<?xml version="1.0" encoding="UTF-8"?>
<!DOCTYPE svg PUBLIC "-//W3C//DTD SVG 1.1//EN" "http://www.w3.org/Graphics/SVG/1.1/DTD/svg11.dtd">
<!-- Creator: CorelDRAW 2017 -->
<svg xmlns="http://www.w3.org/2000/svg" xml:space="preserve" width="210mm" height="297mm" version="1.1" style="shape-rendering:geometricPrecision; text-rendering:geometricPrecision; image-rendering:optimizeQuality; fill-rule:evenodd; clip-rule:evenodd"
viewBox="0 0 21000 29700"
 xmlns:xlink="http://www.w3.org/1999/xlink">
 <defs>
  <style type="text/css">
   <![CDATA[
    .fil1 {fill:#BADDF0}
    .fil0 {fill:#7FB9D8}
    .fil22 {fill:#003365}
    .fil23 {fill:#277BCF}
    .fil21 {fill:#104C87}
    .fil10 {fill:#FAC958;fill-rule:nonzero}
    .fil3 {fill:#F19231;fill-rule:nonzero}
    .fil4 {fill:#ED751E;fill-rule:nonzero}
    .fil13 {fill:#E95655;fill-rule:nonzero}
    .fil7 {fill:#F2F2F4;fill-rule:nonzero}
    .fil2 {fill:#E8F5FC;fill-rule:nonzero}
    .fil12 {fill:#DFE1EC;fill-rule:nonzero}
    .fil19 {fill:#BB292D;fill-rule:nonzero}
    .fil9 {fill:#D1D4E1;fill-rule:nonzero}
    .fil20 {fill:#BD4440;fill-rule:nonzero}
    .fil14 {fill:#BF7A28;fill-rule:nonzero}
    .fil16 {fill:#962629;fill-rule:nonzero}
    .fil18 {fill:#978E93;fill-rule:nonzero}
    .fil15 {fill:#2A2E67;fill-rule:nonzero}
    .fil17 {fill:#003365;fill-rule:nonzero}
    .fil11 {fill:#277BCF;fill-rule:nonzero}
    .fil5 {fill:#104C87;fill-rule:nonzero}
    .fil6 {fill:url(#id3)}
    .fil8 {fill:url(#id4)}
   ]]>
  </style>
    <clipPath id="id0">
     <path d="M10572.23 13766.47l187.1 73.12 70.31 -179.92 -7.2 -2.81 -250.21 109.61z"/>
    </clipPath>
    <clipPath id="id1">
     <path d="M10768.63 13263.88l179.91 70.31 -36.37 93.07 -123.96 317.21 -39.15 100.19 -179.92 -70.31 63.21 -161.74 92.51 -236.72 43.77 -112.01z"/>
    </clipPath>
    <clipPath id="id2">
     <path d="M11035.82 13947.63l-187.11 -73.12 70.31 -179.91 7.2 2.81 109.6 250.22z"/>
    </clipPath>
  <linearGradient id="id3" gradientUnits="userSpaceOnUse" x1="9790.45" y1="15980.15" x2="10960.84" y2="16335.59">
   <stop offset="0" style="stop-opacity:1; stop-color:#2E2D2D"/>
   <stop offset="0.160784" style="stop-opacity:1; stop-color:#2E2D2D"/>
   <stop offset="0.160784" style="stop-opacity:1; stop-color:#403F3E"/>
   <stop offset="0.560784" style="stop-opacity:1; stop-color:#403F3E"/>
   <stop offset="0.560784" style="stop-opacity:1; stop-color:#595857"/>
   <stop offset="0.870588" style="stop-opacity:1; stop-color:#595857"/>
   <stop offset="0.870588" style="stop-opacity:1; stop-color:#484644"/>
   <stop offset="1" style="stop-opacity:1; stop-color:#484644"/>
  </linearGradient>
  <linearGradient id="id4" gradientUnits="userSpaceOnUse" x1="9817.82" y1="16615.63" x2="10585.45" y2="16847.55">
   <stop offset="0" style="stop-opacity:1; stop-color:#B0ADA9"/>
   <stop offset="0.160784" style="stop-opacity:1; stop-color:#B0ADA9"/>
   <stop offset="0.160784" style="stop-opacity:1; stop-color:#C7C7C4"/>
   <stop offset="0.560784" style="stop-opacity:1; stop-color:#C7C7C4"/>
   <stop offset="0.560784" style="stop-opacity:1; stop-color:#E1E0E0"/>
   <stop offset="0.870588" style="stop-opacity:1; stop-color:#E1E0E0"/>
   <stop offset="0.870588" style="stop-opacity:1; stop-color:#CFCDCB"/>
   <stop offset="1" style="stop-opacity:1; stop-color:#CFCDCB"/>
  </linearGradient>
 </defs>
 <g id="Layer_x0020_1">
  <metadata id="CorelCorpID_0Corel-Layer"/>
  <g id="_2064064427376">
   <path class="fil0" d="M12587.31 13431.09l144.2 -83.74c-1.23,-1.87 -2.4,-3.75 -3.57,-5.62 -6.65,0.64 -13.13,1.62 -19.53,2.79 -2.05,0.43 -4.11,0.96 -6.24,1.49 -6.78,1.6 -13.38,3.47 -19.85,5.71 -1.97,0.72 -3.96,1.3 -5.9,2.13 -7.73,2.98 -15.49,6.53 -22.64,10.65l-0.94 0.53c0.32,-0.17 0.62,-0.34 0.94,-0.53l64.64 -37.53c-3.03,-4.53 -6.09,-9.01 -9.19,-13.56 -2.4,-3.54 -4.76,-7.12 -7.06,-10.59l-1.65 -2.49c-8.56,-11.95 -17.2,-23.79 -26.11,-35.29l-1.12 -1.54 -0.11 -0.04 -3.77 -4.6c-9.2,-11.86 -18.74,-23.6 -28.41,-34.71l-0.7 -0.72 -3.07 -3.47c-11.84,-13.32 -23.87,-26.1 -36.18,-38.47l-4.77 -5.19c-4.41,-4.41 -9.2,-8.48 -13.74,-12.74 -4.47,-4.41 -9.13,-8.77 -13.9,-13.01 -7.08,-6.37 -14.32,-12.38 -21.49,-18.38 -4.6,-3.83 -9.1,-7.66 -13.64,-11.27 -8.11,-6.41 -16.37,-12.31 -24.61,-18.2 -3.84,-2.84 -7.73,-5.78 -11.61,-8.48 -12.2,-8.43 -24.71,-16.31 -37.24,-23.57 -12.51,-7.25 -24.99,-13.57 -37.25,-19.34 -3.3,-1.58 -6.44,-3.01 -9.72,-4.47 -3.42,-1.48 -6.73,-3.18 -10.13,-4.54 -8.43,-3.54 -16.74,-6.64 -24.94,-9.48l-2.41 -0.7c-6.83,-2.37 -13.91,-4.56 -20.57,-6.39 -3,-0.81 -6.01,-1.17 -8.95,-1.94 -5.73,-1.34 -11.2,-2.53 -16.73,-3.53 -3.37,-0.64 -6.84,-1.71 -10.2,-2.18 -3.78,-0.64 -7.65,-0.76 -11.5,-1.17 -3.99,-0.49 -8.18,-0.96 -12.13,-1.19 -2.36,-0.17 -4.49,-0.64 -6.79,-0.7 -2.19,-0.11 -4.41,-0.13 -6.6,-0.13 -4.28,0 -8.54,0.13 -12.72,0.25 -0.53,0.03 -1.06,0.04 -1.61,0.04 -0.49,0 -0.96,-0.01 -1.45,-0.01 -0.47,0 -0.94,-0.03 -1.4,-0.03 -0.54,0 -1.09,0.03 -1.6,0.04l-1.54 0.07c-8.43,0.53 -16.67,1.47 -24.64,2.83l-3.77 0.88c-2.57,0.53 -4.93,1.13 -7.23,1.72 -3.95,0.94 -8.02,1.64 -11.91,2.71 -3.54,1.06 -6.88,2.47 -10.38,3.7 -2.34,0.83 -4.83,1.6 -7.13,2.49l-3.94 1.41c-7.13,2.94 -13.73,6.24 -20.44,9.95l-2.26 1.3c-48.13,27.87 -96.02,55.86 -144.18,83.73 8.54,-4.89 17.68,-9.07 26.82,-12.67 2.23,-0.89 4.57,-1.57 6.77,-2.34 7.3,-2.6 14.78,-4.84 22.51,-6.54 2.4,-0.6 4.77,-1.19 7.26,-1.66 9.65,-1.88 19.78,-3.17 30.09,-3.83l5.73 0c2.81,-0.09 5.63,-0.13 8.46,-0.13 5.94,0 11.92,0.19 17.99,0.59 3.94,0.3 7.9,0.77 12.01,1.24 7.14,0.89 14.4,2 21.81,3.36 5.37,1.01 10.97,2.2 16.44,3.54 9.91,2.41 19.91,5.01 30.12,8.43l1.76 0.54c11.54,4 23.39,8.77 35.25,14.07 3.17,1.41 6.54,2.94 9.71,4.48 12.37,5.77 24.75,12.07 37.35,19.4 12.5,7.17 24.88,15.07 37.21,23.45 4,2.76 7.94,5.83 11.94,8.71 8.21,5.9 16.28,11.67 24.22,17.9 4.73,3.73 9.2,7.74 13.91,11.64 7.13,5.81 14.14,11.83 21.21,18.08 4.77,4.23 9.44,8.77 14.21,13.2 6.06,5.83 12.14,11.71 18.2,17.72 12.38,12.5 24.58,25.34 36.42,38.84l3.47 3.84c10.03,11.54 19.74,23.5 29.35,35.77l3.13 3.71 1.3 1.81c9.37,12.2 18.5,24.7 27.38,37.37 2.37,3.47 4.67,7.01 7.03,10.48 7.65,11.27 15.15,22.58 22.32,34.12z"/>
   <path class="fil0" d="M13255.07 13903.32l144.07 -83.71c-0.77,-4.5 -1.7,-8.97 -2.71,-13.4 -0.76,-3.7 -1.87,-7.54 -2.72,-11.24 -1.64,-7.5 -3.47,-14.85 -5.47,-22.35 -0.77,-2.64 -1.24,-5.3 -1.94,-7.89 -1.06,-3.78 -2.36,-7.54 -3.53,-11.25 -1.65,-5.9 -3.41,-11.74 -5.24,-17.57 -0.96,-2.77 -1.6,-5.35 -2.47,-8.01 -1.43,-4.3 -3.2,-8.6 -4.67,-12.9 -1.64,-4.9 -3.4,-9.78 -5.24,-14.67 -0.89,-2.12 -1.49,-4.24 -2.36,-6.25 -2.17,-5.89 -4.65,-11.73 -7.07,-17.44 -1.6,-3.87 -3.07,-7.73 -4.65,-11.44l-1.36 -3.4c-4.54,-10.5 -9.3,-20.87 -14.27,-31.24 -4.94,-10.25 -10.13,-20.45 -15.54,-30.59l-1.84 -3.17c-1.99,-3.83 -4.17,-7.54 -6.3,-11.33 -2.83,-5.24 -5.73,-10.61 -8.77,-15.84 -1.2,-2.05 -2.48,-4.18 -3.83,-6.24 -2.54,-4.31 -5.2,-8.61 -7.91,-12.91 -2.3,-3.71 -4.54,-7.54 -6.84,-11.31 -1.93,-2.9 -3.93,-5.71 -5.89,-8.6 -2.88,-4.6 -6.01,-9.2 -9.08,-13.74 -2.06,-2.87 -3.89,-5.83 -5.83,-8.71 -2.24,-3.13 -4.6,-6.14 -6.9,-9.26 -3.81,-5.31 -7.65,-10.48 -11.54,-15.68 -1.81,-2.4 -3.65,-4.94 -5.48,-7.35 -2.06,-2.62 -4.3,-5.09 -6.3,-7.72 -5.24,-6.54 -10.5,-13.04 -15.91,-19.39 -2.24,-2.66 -4.43,-5.49 -6.6,-8.07l-4.41 -4.77c-10.67,-12.03 -21.46,-23.7 -32.6,-34.71l-1.71 -1.7 -0.3 -0.32c-4.07,-4.11 -8.35,-7.95 -12.6,-11.85 -5.37,-5 -10.61,-10.11 -15.98,-14.84 -4.94,-4.37 -10,-8.37 -15.01,-12.48 -4.9,-4 -9.63,-8.26 -14.67,-12.1 -5.2,-4.1 -10.74,-7.88 -16.17,-11.77 -4.7,-3.43 -9.47,-7.14 -14.25,-10.38 -10.37,-7 -20.8,-13.56 -31.35,-19.57 -11,-6.47 -21.91,-11.95 -32.75,-17.01 -2.83,-1.43 -5.77,-2.73 -8.6,-4 -3.07,-1.31 -6.07,-2.84 -9.03,-4.14 -7.43,-3.06 -14.61,-5.77 -21.85,-8.2l-1.64 -0.53c-6.16,-2.04 -12.33,-4 -18.34,-5.64 -2.72,-0.79 -5.3,-1.06 -8.03,-1.7 -4.94,-1.2 -9.77,-2.26 -14.65,-3.14 -2.9,-0.53 -6.07,-1.46 -9.03,-1.89 -3.35,-0.6 -6.54,-0.64 -9.9,-0.98 -3.71,-0.49 -7.31,-0.85 -10.78,-1.07 -1.94,-0.13 -3.94,-0.49 -5.84,-0.59 -1.81,-0.09 -3.61,-0.13 -5.41,-0.13 -3.91,0 -7.76,0.15 -11.6,0.23l-5.36 0.07 -1.44 0c-7.23,0.47 -14.48,1.34 -21.5,2.53l-3.48 0.77c-2.13,0.46 -4.29,1.06 -6.47,1.53 -3.54,0.77 -6.84,1.41 -10.14,2.36 -3.24,0.95 -6.24,2.18 -9.37,3.31 -2,0.7 -4.19,1.34 -6.23,2.17l-3.31 1.24c-6.32,2.59 -12.33,5.53 -18.16,8.79l-1.88 1.17 -78.62 45.66c1.95,2.94 3.89,5.88 5.79,8.9 1.28,1.94 2.49,3.9 3.73,5.86 2.29,-0.21 4.59,-0.39 6.94,-0.49l5.23 -0.06c2.54,-0.11 5.07,-0.16 7.63,-0.16 5.11,0 10.27,0.2 15.48,0.5 3.47,0.36 7.07,0.72 10.54,1.13 6.31,0.7 12.61,1.7 19.11,2.93 4.81,0.84 9.71,1.96 14.67,3.07 8.65,2.13 17.31,4.37 26.39,7.44l1.53 0.46c10.2,3.5 20.45,7.73 30.93,12.33 2.79,1.28 5.66,2.58 8.66,3.94 10.73,5.18 21.7,10.67 32.84,17.02 10.35,6.13 20.91,12.67 31.16,19.7 3.77,2.47 7.37,5.35 11.07,8.01 6.5,4.6 13.1,9.13 19.45,14.08 4.53,3.59 9.02,7.47 13.56,11.19 5.3,4.41 10.74,8.71 16.08,13.31 4.6,4.13 9.07,8.61 13.74,12.85 4.96,4.66 9.94,9.14 14.9,13.97l1.6 1.59c11.24,11.21 22.15,22.99 32.93,35.12 3.66,4.18 7.26,8.5 10.97,12.74 5.36,6.37 10.54,12.78 15.78,19.32 4.06,5 8.13,10.13 12.03,15.26 3.83,5.18 7.67,10.44 11.48,15.68 4.23,5.83 8.43,11.71 12.56,17.8 3.17,4.58 6.24,9.25 9.42,13.96 4.25,6.48 8.43,13.09 12.46,19.67 2.68,4.36 5.4,8.73 8.04,13.14 4.33,7.2 8.39,14.44 12.51,21.81 2.1,3.77 4.3,7.73 6.36,11.54 12.01,22.34 23.05,45.15 32.93,68.13 1.72,4 3.3,8.01 4.85,12.01 3.18,7.73 6.31,15.44 9.24,23.28 1.88,4.96 3.65,10.03 5.48,15.03 2.36,6.71 4.73,13.54 6.83,20.32 1.97,6.07 3.78,12.16 5.54,18.21 1.84,6.2 3.54,12.37 5.2,18.5 2.04,7.78 3.87,15.45 5.71,23.22 1.83,8.03 3.83,16.04 5.3,24.04z"/>
   <path class="fil0" d="M13578.05 14709.91c48.09,-27.94 95.99,-55.86 144.12,-83.74 58.16,-33.88 94.24,-105.82 94.4,-208 0.07,-11.84 -0.4,-23.87 -1.4,-35.89 -0.23,-3.76 -0.72,-7.55 -1.12,-11.37 -0.48,-5.37 -0.88,-10.79 -1.48,-16.27 -0.42,-2.36 -1.06,-4.83 -1.3,-7.24 -1.23,-8.5 -2.77,-17.08 -4.47,-25.7 -0.7,-4.07 -1.23,-8.07 -2.13,-12.08 -0.34,-1.94 -0.87,-3.83 -1.3,-5.77 -1.23,-5.54 -2.7,-11.01 -4.11,-16.57 -1.25,-4.94 -2.3,-9.95 -3.66,-14.91 -0.76,-2.76 -1.71,-5.51 -2.53,-8.31 -1.24,-4.4 -2.71,-8.77 -3.94,-13.11 -1.3,-3.9 -2.3,-7.8 -3.67,-11.74 -1.53,-4.77 -3.4,-9.66 -5.13,-14.5 -1.28,-3.54 -2.58,-7.18 -3.94,-10.78l-1.94 -5.36c-3.7,-9.78 -7.67,-19.45 -11.84,-29.18l-0.53 -1.06 -1.6 -3.47c-3.47,-7.95 -7.07,-15.85 -10.78,-23.62 -1.42,-2.84 -2.83,-5.67 -4.23,-8.44 -1.66,-3.19 -3.32,-6.41 -4.9,-9.54 -1.66,-3.19 -3.24,-6.43 -4.83,-9.6 -3.6,-6.66 -7.24,-13.14 -11.02,-19.68l-3.12 -5.66 -1.13 -2.01c-5.41,-9.24 -11.01,-18.44 -16.78,-27.51l-2.61 -4.01c-1.93,-2.95 -4,-5.89 -6,-8.83 -3.43,-5.03 -6.73,-10.21 -10.2,-15.14 -2,-2.9 -4.07,-5.61 -6.07,-8.38 -3.07,-4.13 -6.14,-8.13 -9.08,-12.26 -2.19,-2.9 -4.23,-5.84 -6.43,-8.72 -2.7,-3.42 -5.53,-6.55 -8.24,-9.96 -4.13,-5.19 -8.3,-10.31 -12.54,-15.38 -1.96,-2.19 -3.66,-4.53 -5.66,-6.7 -2.13,-2.6 -4.54,-4.86 -6.78,-7.39 -7,-7.82 -14.2,-15.42 -21.44,-22.85 -2.43,-2.41 -4.67,-5.2 -7.03,-7.5 -2.3,-2.24 -4.71,-4.31 -6.94,-6.41 -3.54,-3.41 -7.24,-6.78 -10.78,-10.08 -6.13,-5.53 -12.27,-10.9 -18.51,-16.14 -3.66,-3.07 -7.3,-6.13 -10.97,-9.13 -6.77,-5.37 -13.67,-10.5 -20.55,-15.45 -3.26,-2.36 -6.32,-4.83 -9.66,-7.07 -10.27,-6.96 -20.58,-13.56 -31.01,-19.61 -7.95,-4.6 -15.91,-8.86 -23.75,-12.74 -2.47,-1.17 -4.87,-2.12 -7.3,-3.36 -4.84,-2.17 -9.61,-4.47 -14.25,-6.43l-1 -0.34c-11.5,-4.71 -22.7,-8.37 -33.78,-11.55l-3.6 -1.18c-3.47,-0.95 -6.94,-1.84 -10.37,-2.58l-144.07 83.71c4.67,1.07 9.24,2.48 13.84,3.79 11.1,3.18 22.28,6.88 33.9,11.54 4.78,2.08 9.59,4.31 14.49,6.54 2.7,1.31 5.47,2.41 8.13,3.67 7.84,3.87 15.74,8.05 23.69,12.65 10.37,5.96 20.74,12.67 30.98,19.67 3.26,2.24 6.56,4.84 9.9,7.27 6.86,4.87 13.57,9.84 20.17,15.14 3.77,3.07 7.42,6.11 11.38,9.37 6,5.18 12,10.37 18.08,15.84 3.66,3.41 7.36,6.78 11.07,10.31 4.6,4.43 9.14,9.08 13.67,13.68 7.37,7.47 14.57,15.2 21.68,23.17 4.07,4.6 8.2,9.05 12.14,13.77 4.5,5.14 8.74,10.37 12.97,15.68 4.83,6.01 9.74,12.14 14.38,18.38 3.13,4.19 6.19,8.3 9.2,12.5 5.47,7.61 10.83,15.31 16.01,23.15 2.13,3.07 4.13,6.13 6.26,9.26 7.07,10.89 13.91,21.98 20.38,33.23 1.2,2.02 2.26,4.07 3.5,6.06 5.34,9.57 10.54,19.15 15.54,28.82 1.64,3.3 3.31,6.56 5.01,9.84 5.06,10.37 10.07,20.93 14.74,31.47l1.87 4.01c5.03,11.8 9.79,23.64 14.27,35.52 1.42,3.66 2.66,7.33 3.94,10.92 3,8.66 5.96,17.19 8.67,25.93 1.4,4.47 2.83,8.94 4.13,13.43 2.17,7.71 4.17,15.38 6.07,23.05 1.4,5.53 2.94,11.07 4,16.61 1.34,5.94 2.41,11.84 3.64,17.85 1.6,8.6 3.13,17.2 4.43,25.74 1.07,7.91 2.07,15.67 2.84,23.47 0.29,3.77 0.82,7.58 1.1,11.37 0.79,12.08 1.49,24.11 1.43,35.89 -0.3,102.18 -36.31,174.18 -94.52,208z"/>
   <path class="fil1" d="M12907.87 13389.84c-139.75,-80.61 -260.8,-58.44 -320.56,41.25 -71.94,-116.02 -166.88,-216.37 -271.27,-276.64 -225.17,-129.93 -408.14,-25.71 -408.9,232.92 -0.54,200.19 108.42,433.75 262.06,589.62l129.03 104.24c1.47,0.94 4.43,2.71 8.07,4.88 8.95,5.07 21.74,12.21 26.28,14.74 49.56,28.68 991.85,573.78 1014.42,586.85 23.69,13.63 46.77,23.81 68.99,30.99 146.56,47.91 256.04,-38.29 256.58,-216.78 0.59,-205.9 -144.27,-456.92 -323.45,-560.4 -32.83,-18.98 -64.34,-31.35 -94.05,-38.19 -38.59,-201.93 -179.07,-416.31 -347.2,-513.48z"/>
  </g>
  <g id="_2064064426992">
   <path class="fil0" d="M9430.17 16902.96l406.69 -236.17c-3.48,-5.28 -6.78,-10.57 -10.08,-15.85 -18.75,1.8 -37.02,4.56 -55.08,7.87 -5.77,1.2 -11.6,2.7 -17.61,4.2 -19.1,4.51 -37.73,9.79 -55.98,16.09 -5.53,2.04 -11.17,3.68 -16.63,6.01 -21.81,8.41 -43.68,18.44 -63.85,30.04l-2.64 1.49c0.88,-0.47 1.74,-0.95 2.64,-1.49l182.3 -105.84c-8.53,-12.79 -17.18,-25.4 -25.9,-38.26 -6.79,-9.98 -13.45,-20.06 -19.94,-29.85l-4.63 -7.03c-24.14,-33.69 -48.52,-67.1 -73.64,-99.53l-3.18 -4.33 -0.29 -0.12 -10.64 -12.97c-25.95,-33.46 -52.85,-66.56 -80.13,-97.9l-1.97 -2.04 -8.65 -9.8c-33.41,-37.54 -67.34,-73.58 -102.06,-108.47l-13.45 -14.66c-12.43,-12.43 -25.95,-23.9 -38.75,-35.92 -12.6,-12.43 -25.76,-24.74 -39.21,-36.7 -19.96,-17.96 -40.37,-34.9 -60.61,-51.82 -12.98,-10.82 -25.65,-21.63 -38.45,-31.79 -22.88,-18.08 -46.18,-34.72 -69.43,-51.35 -10.81,-7.99 -21.8,-16.28 -32.73,-23.91 -34.42,-23.78 -69.69,-46 -105.05,-66.49 -35.26,-20.43 -70.45,-38.25 -105.05,-54.53 -9.32,-4.46 -18.15,-8.48 -27.4,-12.62 -9.67,-4.15 -18.98,-8.95 -28.58,-12.8 -23.79,-9.96 -47.22,-18.73 -70.34,-26.73l-6.79 -1.98c-19.28,-6.67 -39.23,-12.85 -58.03,-18.01 -8.46,-2.28 -16.94,-3.3 -25.23,-5.47 -16.16,-3.79 -31.59,-7.15 -47.2,-9.97 -9.5,-1.81 -19.29,-4.81 -28.77,-6.13 -10.64,-1.81 -21.58,-2.17 -32.44,-3.31 -11.24,-1.38 -23.07,-2.7 -34.19,-3.35 -6.65,-0.49 -12.66,-1.81 -19.15,-1.99 -6.18,-0.29 -12.43,-0.36 -18.61,-0.36 -12.09,0 -24.09,0.36 -35.88,0.71 -1.49,0.07 -2.99,0.12 -4.56,0.12 -1.38,0 -2.69,-0.05 -4.08,-0.05 -1.32,0 -2.64,-0.07 -3.95,-0.07 -1.52,0 -3.07,0.07 -4.52,0.12l-4.32 0.19c-23.79,1.5 -47.03,4.14 -69.5,7.99l-10.63 2.47c-7.27,1.49 -13.92,3.18 -20.41,4.86 -11.12,2.64 -22.6,4.62 -33.59,7.63 -9.96,3 -19.4,6.97 -29.26,10.44 -6.6,2.35 -13.62,4.51 -20.1,7.03l-11.12 3.97c-20.13,8.29 -38.74,17.6 -57.67,28.06l-6.37 3.66c-135.73,78.63 -270.82,157.54 -406.64,236.17 24.1,-13.81 49.86,-25.59 75.63,-35.74 6.3,-2.52 12.91,-4.44 19.11,-6.6 20.6,-7.34 41.68,-13.64 63.49,-18.44 6.78,-1.69 13.45,-3.38 20.46,-4.69 27.23,-5.29 55.82,-8.95 84.88,-10.81l16.16 0c7.93,-0.24 15.87,-0.37 23.85,-0.37 16.76,0 33.63,0.54 50.76,1.68 11.1,0.85 22.28,2.17 33.86,3.49 20.13,2.52 40.61,5.64 61.52,9.49 15.14,2.82 30.94,6.19 46.36,9.97 27.94,6.8 56.17,14.12 84.95,23.79l4.97 1.5c32.55,11.29 65.96,24.75 99.41,39.7 8.94,3.97 18.44,8.3 27.38,12.62 34.91,16.28 69.81,34.05 105.36,54.72 35.26,20.23 70.17,42.52 104.93,66.13 11.29,7.8 22.41,16.45 33.7,24.57 23.14,16.64 45.9,32.91 68.29,50.5 13.35,10.52 25.95,21.81 39.23,32.81 20.12,16.4 39.87,33.39 59.83,51 13.45,11.95 26.61,24.73 40.06,37.23 17.11,16.45 34.24,33.03 51.35,49.97 34.91,35.27 69.32,71.48 102.71,109.57l9.8 10.81c28.28,32.55 55.68,66.3 82.77,100.9l8.82 10.45 3.68 5.11c26.42,34.41 52.18,69.67 77.23,105.41 6.67,9.79 13.16,19.77 19.82,29.56 21.57,31.77 42.71,63.66 62.96,96.21z"/>
   <path class="fil0" d="M11313.5 18234.84l406.33 -236.1c-2.16,-12.69 -4.8,-25.3 -7.63,-37.78 -2.16,-10.46 -5.28,-21.27 -7.68,-31.72 -4.63,-21.15 -9.79,-41.87 -15.44,-63.02 -2.16,-7.44 -3.47,-14.95 -5.47,-22.27 -2.99,-10.64 -6.65,-21.26 -9.96,-31.72 -4.63,-16.63 -9.62,-33.1 -14.78,-49.56 -2.7,-7.8 -4.51,-15.07 -6.96,-22.58 -4.03,-12.14 -9.02,-24.26 -13.16,-36.4 -4.63,-13.81 -9.6,-27.56 -14.78,-41.37 -2.52,-5.96 -4.21,-11.96 -6.66,-17.61 -6.13,-16.63 -13.11,-33.1 -19.95,-49.19 -4.5,-10.93 -8.65,-21.81 -13.1,-32.26l-3.84 -9.6c-12.79,-29.61 -26.24,-58.86 -40.24,-88.12 -13.94,-28.89 -28.58,-57.66 -43.84,-86.25l-5.17 -8.96c-5.64,-10.81 -11.77,-21.26 -17.78,-31.95 -7.99,-14.78 -16.16,-29.92 -24.74,-44.68 -3.37,-5.77 -6.98,-11.78 -10.81,-17.61 -7.15,-12.14 -14.66,-24.26 -22.29,-36.4 -6.49,-10.45 -12.8,-21.27 -19.29,-31.89 -5.46,-8.17 -11.1,-16.11 -16.63,-24.26 -8.11,-12.98 -16.95,-25.95 -25.59,-38.75 -5.83,-8.11 -10.99,-16.45 -16.45,-24.57 -6.32,-8.82 -12.98,-17.3 -19.46,-26.12 -10.76,-14.97 -21.58,-29.56 -32.56,-44.22 -5.1,-6.77 -10.28,-13.93 -15.44,-20.72 -5.82,-7.39 -12.14,-14.35 -17.78,-21.79 -14.77,-18.44 -29.6,-36.76 -44.86,-54.67 -6.32,-7.51 -12.5,-15.5 -18.63,-22.77l-12.43 -13.45c-30.1,-33.93 -60.54,-66.84 -91.95,-97.9l-4.82 -4.8 -0.84 -0.9c-11.47,-11.6 -23.54,-22.41 -35.55,-33.41 -15.13,-14.11 -29.91,-28.52 -45.05,-41.87 -13.94,-12.31 -28.23,-23.6 -42.34,-35.19 -13.83,-11.29 -27.16,-23.31 -41.39,-34.12 -14.66,-11.58 -30.28,-22.22 -45.6,-33.2 -13.26,-9.67 -26.72,-20.13 -40.18,-29.27 -29.25,-19.75 -58.68,-38.26 -88.42,-55.2 -31.04,-18.25 -61.81,-33.69 -92.37,-47.98 -7.98,-4.04 -16.28,-7.7 -24.26,-11.29 -8.65,-3.68 -17.13,-8 -25.47,-11.66 -20.96,-8.65 -41.21,-16.28 -61.64,-23.12l-4.61 -1.5c-17.37,-5.77 -34.79,-11.29 -51.73,-15.92 -7.68,-2.23 -14.95,-3 -22.64,-4.8 -13.93,-3.37 -27.57,-6.37 -41.32,-8.84 -8.18,-1.5 -17.12,-4.14 -25.48,-5.35 -9.43,-1.68 -18.44,-1.8 -27.92,-2.75 -10.45,-1.38 -20.6,-2.4 -30.39,-3.02 -5.47,-0.35 -11.12,-1.38 -16.47,-1.67 -5.1,-0.23 -10.19,-0.35 -15.25,-0.35 -11.05,0 -21.91,0.41 -32.73,0.64l-15.13 0.19 -4.04 0c-20.41,1.33 -40.84,3.78 -60.66,7.15l-9.79 2.16c-6.01,1.32 -12.12,3 -18.25,4.33 -9.98,2.16 -19.29,3.97 -28.61,6.66 -9.12,2.65 -17.59,6.13 -26.42,9.31 -5.64,1.99 -11.84,3.78 -17.59,6.13l-9.31 3.49c-17.85,7.32 -34.79,15.61 -51.24,24.81l-5.29 3.3 -221.75 128.77c5.51,8.29 10.98,16.58 16.33,25.11 3.61,5.47 7.03,10.99 10.52,16.52 6.47,-0.6 12.96,-1.09 19.58,-1.38l14.76 -0.19c7.15,-0.3 14.3,-0.42 21.5,-0.42 14.43,0 28.97,0.54 43.68,1.39 9.79,1.02 19.93,2.05 29.72,3.19 17.8,1.97 35.57,4.8 53.89,8.27 13.57,2.35 27.38,5.54 41.38,8.65 24.4,6.01 48.83,12.33 74.42,20.98l4.32 1.31c28.78,9.86 57.67,21.81 87.23,34.78 7.87,3.6 15.97,7.27 24.43,11.1 30.27,14.61 61.21,30.11 92.62,48 29.2,17.3 58.98,35.74 87.88,55.56 10.64,6.98 20.79,15.08 31.24,22.59 18.32,12.98 36.93,25.76 54.84,39.71 12.79,10.15 25.46,21.08 38.26,31.58 14.95,12.43 30.27,24.57 45.34,37.54 12.98,11.65 25.59,24.27 38.75,36.22 14,13.16 28.05,25.78 42.04,39.41l4.51 4.5c31.71,31.6 62.47,64.82 92.86,99.04 10.32,11.78 20.49,23.97 30.94,35.93 15.14,17.96 29.73,36.04 44.51,54.48 11.46,14.12 22.93,28.59 33.93,43.06 10.81,14.59 21.62,29.44 32.37,44.22 11.95,16.45 23.78,33.03 35.45,50.21 8.94,12.9 17.58,26.07 26.54,39.35 12,18.3 23.79,36.93 35.14,55.48 7.56,12.31 15.26,24.64 22.7,37.07 12.19,20.3 23.67,40.73 35.26,61.5 5.94,10.64 12.14,21.81 17.96,32.55 33.87,63.02 64.99,127.34 92.86,192.16 4.86,11.29 9.32,22.58 13.69,33.87 8.96,21.81 17.78,43.55 26.07,65.65 5.3,14 10.27,28.3 15.44,42.41 6.66,18.92 13.34,38.19 19.28,57.3 5.53,17.13 10.64,34.31 15.61,51.37 5.18,17.46 9.98,34.88 14.66,52.18 5.77,21.93 10.93,43.55 16.11,65.47 5.16,22.64 10.81,45.24 14.95,67.81z"/>
   <path class="fil0" d="M12224.44 20509.74c135.63,-78.8 270.71,-157.54 406.46,-236.17 164.04,-95.57 265.78,-298.45 266.26,-586.66 0.19,-33.39 -1.14,-67.32 -3.95,-101.2 -0.66,-10.63 -2.04,-21.32 -3.18,-32.08 -1.33,-15.14 -2.47,-30.44 -4.16,-45.89 -1.19,-6.67 -2.99,-13.63 -3.66,-20.41 -3.49,-23.97 -7.81,-48.18 -12.61,-72.5 -1.98,-11.47 -3.48,-22.76 -6.01,-34.07 -0.96,-5.46 -2.46,-10.81 -3.67,-16.27 -3.47,-15.62 -7.62,-31.06 -11.59,-46.72 -3.54,-13.95 -6.49,-28.06 -10.32,-42.06 -2.16,-7.8 -4.82,-15.54 -7.15,-23.43 -3.49,-12.43 -7.63,-24.74 -11.12,-37 -3.66,-10.98 -6.48,-21.98 -10.33,-33.1 -4.33,-13.45 -9.6,-27.25 -14.47,-40.89 -3.61,-9.98 -7.27,-20.25 -11.11,-30.39l-5.48 -15.14c-10.44,-27.57 -21.62,-54.84 -33.39,-82.29l-1.49 -3 -4.52 -9.79c-9.79,-22.4 -19.93,-44.69 -30.39,-66.62 -4.02,-7.98 -7.98,-15.97 -11.95,-23.78 -4.68,-9.01 -9.37,-18.09 -13.81,-26.91 -4.68,-9 -9.13,-18.15 -13.64,-27.09 -10.15,-18.79 -20.41,-37.06 -31.05,-55.5l-8.82 -15.97 -3.19 -5.65c-15.25,-26.07 -31.05,-52.02 -47.33,-77.61l-7.34 -11.29c-5.46,-8.34 -11.29,-16.63 -16.94,-24.92 -9.67,-14.19 -18.97,-28.78 -28.76,-42.71 -5.65,-8.17 -11.47,-15.8 -17.13,-23.61 -8.64,-11.65 -17.29,-22.94 -25.59,-34.6 -6.18,-8.17 -11.95,-16.45 -18.13,-24.57 -7.63,-9.67 -15.61,-18.49 -23.24,-28.11 -11.66,-14.64 -23.43,-29.06 -35.38,-43.36 -5.53,-6.19 -10.34,-12.79 -15.97,-18.92 -6.01,-7.32 -12.8,-13.69 -19.1,-20.84 -19.77,-22.05 -40.07,-43.49 -60.5,-64.45 -6.84,-6.79 -13.14,-14.66 -19.82,-21.14 -6.48,-6.32 -13.28,-12.14 -19.58,-18.08 -9.98,-9.61 -20.41,-19.11 -30.39,-28.42 -17.3,-15.61 -34.6,-30.75 -52.2,-45.53 -10.32,-8.65 -20.6,-17.3 -30.94,-25.76 -19.09,-15.14 -38.55,-29.61 -57.96,-43.55 -9.19,-6.66 -17.84,-13.64 -27.26,-19.94 -28.96,-19.65 -58.02,-38.26 -87.46,-55.32 -22.41,-12.97 -44.86,-24.99 -66.96,-35.92 -6.98,-3.31 -13.76,-6 -20.61,-9.49 -13.63,-6.13 -27.08,-12.62 -40.18,-18.13l-2.82 -0.97c-32.44,-13.28 -64.04,-23.6 -95.27,-32.56l-10.16 -3.35c-9.79,-2.66 -19.58,-5.18 -29.25,-7.27l-406.33 236.1c13.16,3.02 26.06,6.98 39.04,10.7 31.29,8.95 62.82,19.41 95.62,32.55 13.46,5.84 27.03,12.14 40.84,18.44 7.63,3.68 15.45,6.79 22.95,10.33 22.1,10.93 44.39,22.72 66.8,35.69 29.25,16.81 58.5,35.74 87.39,55.49 9.18,6.32 18.49,13.64 27.93,20.48 19.34,13.76 38.26,27.75 56.88,42.72 10.63,8.65 20.91,17.23 32.08,26.43 16.94,14.59 33.87,29.25 50.99,44.67 10.34,9.62 20.78,19.11 31.23,29.08 12.97,12.5 25.78,25.59 38.56,38.57 20.79,21.08 41.09,42.89 61.15,65.35 11.47,12.97 23.13,25.52 34.24,38.85 12.68,14.49 24.63,29.25 36.58,44.22 13.63,16.94 27.45,34.24 40.54,51.82 8.82,11.84 17.47,23.43 25.95,35.27 15.43,21.45 30.56,43.19 45.17,65.29 6,8.65 11.65,17.3 17.66,26.12 19.94,30.7 39.23,61.99 57.48,93.71 3.37,5.71 6.37,11.48 9.86,17.11 15.07,26.97 29.73,54.01 43.84,81.27 4.62,9.31 9.31,18.51 14.12,27.75 14.28,29.25 28.4,59.05 41.56,88.78l5.28 11.29c14.18,33.28 27.63,66.67 40.25,100.2 4.01,10.31 7.5,20.65 11.11,30.8 8.47,24.4 16.83,48.47 24.45,73.11 3.95,12.61 7.99,25.21 11.65,37.9 6.13,21.74 11.76,43.36 17.11,64.99 3.97,15.61 8.29,31.22 11.31,46.84 3.78,16.77 6.77,33.4 10.26,50.34 4.5,24.27 8.82,48.53 12.5,72.62 3,22.29 5.82,44.2 7.99,66.18 0.83,10.64 2.33,21.39 3.11,32.08 2.23,34.07 4.21,68 4.04,101.22 -0.85,288.19 -102.42,491.26 -266.58,586.64z"/>
   <path class="fil1" d="M10334.26 16786.62c-394.15,-227.35 -735.55,-164.81 -904.09,116.34 -202.9,-327.23 -470.68,-610.25 -765.11,-780.23 -635.06,-366.45 -1151.1,-72.5 -1153.26,656.93 -1.5,564.61 305.79,1223.34 739.11,1662.95l363.94 294.01c4.14,2.66 12.48,7.63 22.76,13.76 25.22,14.3 61.31,34.43 74.12,41.56 139.77,80.91 2797.4,1618.28 2861.06,1655.16 66.79,38.45 131.9,67.15 194.56,87.4 413.36,135.13 722.15,-108 723.67,-611.4 1.67,-580.71 -406.9,-1288.7 -912.27,-1580.55 -92.57,-53.53 -181.47,-88.42 -265.25,-107.71 -108.84,-569.53 -505.04,-1174.15 -979.24,-1448.22z"/>
  </g>
  <path class="fil0" d="M6888.52 16443.64l262.31 -152.33c-2.24,-3.4 -4.37,-6.82 -6.5,-10.22 -12.09,1.16 -23.87,2.94 -35.53,5.07 -3.72,0.78 -7.47,1.75 -11.35,2.71 -12.32,2.91 -24.34,6.32 -36.11,10.38 -3.57,1.32 -7.2,2.37 -10.73,3.88 -14.07,5.42 -28.17,11.89 -41.18,19.37l-1.7 0.97c0.57,-0.31 1.12,-0.62 1.7,-0.97l117.58 -68.26c-5.5,-8.25 -11.08,-16.39 -16.7,-24.68 -4.38,-6.44 -8.68,-12.94 -12.86,-19.25l-2.99 -4.54c-15.57,-21.73 -31.3,-43.28 -47.49,-64.2l-2.06 -2.79 -0.18 -0.07 -6.87 -8.37c-16.73,-21.58 -34.09,-42.93 -51.68,-63.15l-1.27 -1.31 -5.58 -6.32c-21.55,-24.21 -43.43,-47.46 -65.83,-69.96l-8.67 -9.46c-8.02,-8.01 -16.74,-15.42 -25,-23.17 -8.12,-8.02 -16.61,-15.96 -25.29,-23.67 -12.87,-11.58 -26.03,-22.51 -39.09,-33.42 -8.37,-6.98 -16.54,-13.95 -24.8,-20.51 -14.76,-11.66 -29.78,-22.39 -44.78,-33.12 -6.98,-5.15 -14.06,-10.5 -21.11,-15.42 -22.2,-15.34 -44.95,-29.67 -67.76,-42.88 -22.74,-13.18 -45.44,-24.68 -67.75,-35.17 -6.01,-2.88 -11.71,-5.47 -17.67,-8.14 -6.24,-2.68 -12.25,-5.78 -18.44,-8.26 -15.34,-6.42 -30.45,-12.08 -45.37,-17.24l-4.38 -1.28c-12.43,-4.3 -25.3,-8.29 -37.43,-11.61 -5.45,-1.48 -10.92,-2.13 -16.27,-3.53 -10.42,-2.45 -20.37,-4.61 -30.44,-6.43 -6.13,-1.17 -12.44,-3.1 -18.56,-3.96 -6.87,-1.16 -13.92,-1.39 -20.92,-2.13 -7.25,-0.89 -14.88,-1.74 -22.05,-2.16 -4.3,-0.32 -8.17,-1.17 -12.36,-1.29 -3.98,-0.18 -8.01,-0.23 -12,-0.23 -7.8,0 -15.54,0.23 -23.14,0.46 -0.97,0.05 -1.93,0.08 -2.94,0.08 -0.89,0 -1.74,-0.03 -2.64,-0.03 -0.84,0 -1.7,-0.05 -2.55,-0.05 -0.97,0 -1.97,0.05 -2.91,0.08l-2.79 0.12c-15.34,0.97 -30.33,2.67 -44.82,5.15l-6.86 1.59c-4.68,0.97 -8.98,2.06 -13.16,3.14 -7.17,1.71 -14.58,2.98 -21.67,4.92 -6.42,1.94 -12.51,4.5 -18.87,6.74 -4.26,1.51 -8.78,2.91 -12.97,4.53l-7.17 2.56c-12.98,5.35 -24.98,11.36 -37.19,18.1l-4.11 2.36c-87.55,50.71 -174.68,101.61 -262.28,152.33 15.54,-8.91 32.16,-16.51 48.78,-23.05 4.07,-1.63 8.33,-2.87 12.33,-4.26 13.28,-4.74 26.88,-8.8 40.95,-11.9 4.37,-1.08 8.67,-2.17 13.2,-3.02 17.56,-3.41 36,-5.77 54.74,-6.97l10.42 0c5.12,-0.15 10.24,-0.24 15.39,-0.24 10.8,0 21.69,0.35 32.73,1.09 7.16,0.54 14.38,1.39 21.85,2.25 12.98,1.62 26.19,3.63 39.67,6.11 9.77,1.83 19.96,4 29.91,6.44 18.02,4.38 36.23,9.1 54.79,15.34l3.2 0.97c21,7.28 42.55,15.96 64.13,25.61 5.76,2.55 11.89,5.34 17.65,8.13 22.52,10.5 45.03,21.97 67.96,35.3 22.74,13.05 45.25,27.42 67.68,42.65 7.28,5.03 14.45,10.61 21.73,15.85 14.93,10.73 29.61,21.23 44.05,32.57 8.61,6.79 16.74,14.07 25.3,21.16 12.98,10.58 25.72,21.54 38.59,32.89 8.68,7.71 17.17,15.96 25.84,24.02 11.04,10.61 22.09,21.3 33.12,32.23 22.52,22.74 44.71,46.1 66.25,70.67l6.32 6.97c18.24,21 35.91,42.77 53.38,65.08l5.69 6.74 2.37 3.3c17.05,22.19 33.66,44.94 49.82,67.99 4.3,6.31 8.49,12.75 12.78,19.06 13.91,20.49 27.55,41.06 40.61,62.06z"/>
  <path class="fil0" d="M8103.25 17302.69l262.08 -152.29c-1.4,-8.18 -3.1,-16.32 -4.92,-24.37 -1.4,-6.74 -3.41,-13.71 -4.96,-20.45 -2.98,-13.64 -6.31,-27.01 -9.96,-40.65 -1.39,-4.8 -2.24,-9.64 -3.52,-14.36 -1.93,-6.87 -4.3,-13.72 -6.43,-20.46 -2.98,-10.73 -6.2,-21.35 -9.53,-31.97 -1.74,-5.03 -2.91,-9.72 -4.49,-14.56 -2.6,-7.83 -5.82,-15.65 -8.49,-23.48 -2.99,-8.91 -6.19,-17.78 -9.53,-26.69 -1.63,-3.84 -2.71,-7.7 -4.29,-11.35 -3.96,-10.73 -8.46,-21.35 -12.87,-31.73 -2.9,-7.05 -5.58,-14.06 -8.45,-20.81l-2.48 -6.19c-8.25,-19.1 -16.92,-37.97 -25.95,-56.83 -9,-18.64 -18.44,-37.2 -28.28,-55.64l-3.34 -5.77c-3.63,-6.98 -7.59,-13.72 -11.46,-20.61 -5.15,-9.54 -10.42,-19.3 -15.96,-28.82 -2.17,-3.72 -4.5,-7.6 -6.97,-11.36 -4.62,-7.83 -9.46,-15.64 -14.38,-23.47 -4.18,-6.75 -8.26,-13.72 -12.44,-20.57 -3.53,-5.28 -7.16,-10.39 -10.73,-15.65 -5.23,-8.37 -10.93,-16.74 -16.51,-25 -3.75,-5.22 -7.08,-10.61 -10.6,-15.84 -4.08,-5.69 -8.37,-11.16 -12.56,-16.85 -6.94,-9.65 -13.91,-19.06 -20.99,-28.52 -3.3,-4.37 -6.64,-8.98 -9.96,-13.36 -3.76,-4.77 -7.83,-9.26 -11.47,-14.06 -9.53,-11.89 -19.1,-23.71 -28.94,-35.26 -4.07,-4.85 -8.06,-10 -12.01,-14.69l-8.02 -8.67c-19.41,-21.89 -39.05,-43.12 -59.31,-63.15l-3.11 -3.09 -0.53 -0.59c-7.41,-7.47 -15.19,-14.45 -22.93,-21.54 -9.77,-9.11 -19.3,-18.4 -29.06,-27.01 -9,-7.94 -18.21,-15.22 -27.31,-22.7 -8.92,-7.28 -17.52,-15.03 -26.7,-22 -9.46,-7.47 -19.53,-14.33 -29.41,-21.42 -8.55,-6.24 -17.23,-12.98 -25.92,-18.88 -18.86,-12.73 -37.84,-24.67 -57.03,-35.6 -20.01,-11.77 -39.86,-21.73 -59.57,-30.94 -5.15,-2.61 -10.5,-4.97 -15.65,-7.29 -5.58,-2.37 -11.05,-5.16 -16.43,-7.52 -13.52,-5.58 -26.57,-10.5 -39.75,-14.91l-2.98 -0.97c-11.2,-3.72 -22.43,-7.28 -33.36,-10.27 -4.95,-1.43 -9.64,-1.93 -14.61,-3.09 -8.98,-2.18 -17.78,-4.11 -26.65,-5.7 -5.27,-0.97 -11.04,-2.67 -16.43,-3.45 -6.08,-1.09 -11.89,-1.16 -18.01,-1.78 -6.74,-0.89 -13.29,-1.55 -19.6,-1.94 -3.53,-0.23 -7.17,-0.89 -10.62,-1.08 -3.3,-0.15 -6.58,-0.23 -9.84,-0.23 -7.13,0 -14.13,0.26 -21.11,0.42l-9.76 0.12 -2.6 0c-13.17,0.85 -26.35,2.44 -39.13,4.61l-6.32 1.4c-3.87,0.84 -7.81,1.93 -11.77,2.78 -6.43,1.4 -12.44,2.56 -18.45,4.3 -5.88,1.71 -11.34,3.95 -17.04,6.01 -3.64,1.28 -7.63,2.43 -11.35,3.95l-6 2.25c-11.51,4.72 -22.44,10.07 -33.05,16l-3.41 2.13 -143.03 83.06c3.56,5.34 7.09,10.69 10.53,16.19 2.33,3.53 4.54,7.09 6.79,10.66 4.17,-0.39 8.36,-0.71 12.63,-0.89l9.52 -0.12c4.61,-0.2 9.22,-0.28 13.87,-0.28 9.3,0 18.68,0.35 28.17,0.9 6.31,0.66 12.86,1.32 19.17,2.06 11.48,1.27 22.94,3.09 34.76,5.33 8.75,1.52 17.66,3.57 26.69,5.58 15.73,3.88 31.49,7.95 48,13.53l2.79 0.85c18.56,6.36 37.19,14.06 56.26,22.43 5.07,2.32 10.3,4.69 15.75,7.16 19.53,9.42 39.48,19.42 59.75,30.96 18.83,11.16 38.04,23.05 56.67,35.83 6.87,4.51 13.41,9.73 20.15,14.58 11.82,8.36 23.82,16.61 35.38,25.61 8.24,6.54 16.41,13.59 24.67,20.37 9.64,8.01 19.53,15.84 29.25,24.21 8.36,7.51 16.5,15.65 24.99,23.36 9.03,8.49 18.09,16.63 27.12,25.42l2.91 2.9c20.44,20.38 40.29,41.81 59.89,63.88 6.66,7.6 13.21,15.47 19.95,23.17 9.77,11.59 19.18,23.25 28.71,35.15 7.39,9.1 14.79,18.43 21.89,27.77 6.97,9.41 13.94,18.99 20.87,28.52 7.71,10.61 15.34,21.3 22.87,32.38 5.76,8.33 11.34,16.82 17.12,25.38 7.74,11.81 15.34,23.82 22.66,35.79 4.88,7.94 9.84,15.89 14.64,23.91 7.87,13.09 15.27,26.27 22.75,39.67 3.83,6.86 7.83,14.06 11.58,20.99 21.84,40.65 41.92,82.14 59.9,123.94 3.13,7.28 6,14.57 8.83,21.85 5.77,14.06 11.46,28.09 16.81,42.34 3.41,9.03 6.62,18.25 9.96,27.36 4.29,12.2 8.6,24.63 12.43,36.95 3.57,11.05 6.86,22.13 10.07,33.13 3.34,11.27 6.44,22.5 9.46,33.66 3.72,14.15 7.05,28.09 10.39,42.23 3.32,14.6 6.97,29.18 9.64,43.74z"/>
  <path class="fil0" d="M8690.79 18769.97c87.48,-50.82 174.61,-101.61 262.17,-152.33 105.8,-61.64 171.43,-192.49 171.73,-378.38 0.13,-21.54 -0.73,-43.43 -2.54,-65.28 -0.43,-6.85 -1.32,-13.75 -2.06,-20.69 -0.85,-9.76 -1.59,-19.63 -2.68,-29.59 -0.77,-4.31 -1.93,-8.8 -2.36,-13.17 -2.25,-15.46 -5.04,-31.08 -8.14,-46.76 -1.27,-7.4 -2.24,-14.68 -3.87,-21.98 -0.62,-3.52 -1.58,-6.97 -2.36,-10.5 -2.24,-10.07 -4.92,-20.03 -7.48,-30.13 -2.29,-8.99 -4.19,-18.1 -6.66,-27.12 -1.39,-5.03 -3.1,-10.03 -4.61,-15.11 -2.25,-8.02 -4.92,-15.96 -7.17,-23.87 -2.36,-7.08 -4.18,-14.18 -6.67,-21.35 -2.78,-8.67 -6.19,-17.58 -9.33,-26.38 -2.33,-6.43 -4.69,-13.05 -7.16,-19.6l-3.54 -9.76c-6.73,-17.78 -13.94,-35.37 -21.53,-53.08l-0.97 -1.93 -2.91 -6.31c-6.31,-14.45 -12.86,-28.83 -19.6,-42.97 -2.59,-5.15 -5.15,-10.31 -7.71,-15.35 -3.02,-5.81 -6.04,-11.66 -8.91,-17.35 -3.02,-5.81 -5.88,-11.7 -8.79,-17.47 -6.55,-12.12 -13.17,-23.91 -20.03,-35.8l-5.69 -10.3 -2.06 -3.65c-9.83,-16.81 -20.03,-33.55 -30.52,-50.05l-4.74 -7.28c-3.52,-5.38 -7.28,-10.73 -10.92,-16.08 -6.24,-9.15 -12.24,-18.56 -18.55,-27.54 -3.65,-5.27 -7.4,-10.19 -11.05,-15.23 -5.58,-7.52 -11.16,-14.8 -16.51,-22.32 -3.98,-5.27 -7.71,-10.61 -11.69,-15.85 -4.92,-6.23 -10.07,-11.92 -14.99,-18.13 -7.52,-9.44 -15.11,-18.74 -22.82,-27.97 -3.57,-3.98 -6.67,-8.24 -10.3,-12.2 -3.88,-4.72 -8.26,-8.83 -12.32,-13.44 -12.75,-14.22 -25.84,-28.05 -39.02,-41.57 -4.42,-4.38 -8.48,-9.45 -12.79,-13.63 -4.18,-4.08 -8.56,-7.83 -12.62,-11.67 -6.44,-6.19 -13.17,-12.32 -19.61,-18.33 -11.15,-10.07 -22.31,-19.83 -33.67,-29.36 -6.65,-5.58 -13.28,-11.16 -19.95,-16.62 -12.31,-9.76 -24.86,-19.09 -37.38,-28.09 -5.93,-4.29 -11.51,-8.79 -17.58,-12.86 -18.68,-12.67 -37.43,-24.67 -56.42,-35.68 -14.45,-8.37 -28.93,-16.12 -43.19,-23.17 -4.5,-2.13 -8.87,-3.86 -13.29,-6.12 -8.79,-3.95 -17.47,-8.13 -25.91,-11.69l-1.83 -0.63c-20.92,-8.56 -41.3,-15.22 -61.44,-20.99l-6.56 -2.17c-6.31,-1.71 -12.63,-3.34 -18.86,-4.69l-262.08 152.29c8.49,1.94 16.81,4.5 25.18,6.89 20.18,5.78 40.52,12.52 61.67,21 8.69,3.77 17.44,7.83 26.35,11.89 4.92,2.38 9.96,4.39 14.8,6.67 14.25,7.05 28.63,14.65 43.08,23.02 18.87,10.84 37.74,23.05 56.37,35.79 5.92,4.07 11.93,8.79 18.01,13.21 12.48,8.87 24.68,17.9 36.69,27.55 6.85,5.58 13.49,11.12 20.69,17.05 10.93,9.41 21.84,18.86 32.89,28.81 6.67,6.21 13.4,12.32 20.14,18.76 8.37,8.06 16.63,16.5 24.88,24.87 13.4,13.6 26.5,27.67 39.43,42.15 7.4,8.37 14.93,16.46 22.09,25.06 8.18,9.35 15.89,18.87 23.6,28.52 8.78,10.93 17.7,22.08 26.14,33.43 5.69,7.63 11.27,15.11 16.74,22.74 9.95,13.84 19.71,27.86 29.13,42.12 3.87,5.58 7.52,11.15 11.39,16.84 12.86,19.8 25.3,39.99 37.08,60.45 2.17,3.68 4.1,7.4 6.36,11.03 9.71,17.4 19.17,34.84 28.27,52.42 2.98,6.01 6.01,11.94 9.11,17.9 9.21,18.87 18.31,38.08 26.8,57.26l3.41 7.28c9.15,21.47 17.82,43 25.96,64.63 2.59,6.65 4.84,13.32 7.17,19.86 5.46,15.74 10.85,31.27 15.77,47.16 2.55,8.14 5.15,16.26 7.51,24.44 3.95,14.03 7.59,27.98 11.04,41.92 2.56,10.07 5.35,20.14 7.29,30.21 2.44,10.82 4.37,21.55 6.62,32.48 2.9,15.65 5.69,31.29 8.06,46.83 1.94,14.38 3.76,28.51 5.15,42.69 0.54,6.86 1.51,13.79 2.01,20.69 1.44,21.97 2.72,43.86 2.61,65.29 -0.55,185.87 -66.06,316.85 -171.95,378.37z"/>
  <path class="fil1" d="M7471.65 16368.6c-254.23,-146.64 -474.42,-106.3 -583.13,75.04 -130.87,-211.06 -303.58,-393.61 -493.49,-503.24 -409.61,-236.36 -742.44,-46.76 -743.84,423.71 -0.96,364.17 197.24,789.04 476.72,1072.59l234.74 189.63c2.67,1.71 8.05,4.92 14.68,8.87 16.26,9.23 39.55,22.21 47.8,26.81 90.15,52.19 1804.3,1043.77 1845.36,1067.56 43.08,24.8 85.07,43.31 125.49,56.37 266.61,87.16 465.78,-69.66 466.76,-394.34 1.07,-374.56 -262.45,-831.2 -588.41,-1019.44 -59.71,-34.53 -117.04,-57.03 -171.08,-69.47 -70.2,-367.34 -325.74,-757.32 -631.6,-934.09z"/>
  <path class="fil2" d="M10031.91 17802.73c-60.32,50.21 -122.88,102.44 -190.87,142.11 -23.75,13.87 -196.88,107.62 -196.88,107.62 0,0 -8.95,-96.39 -13.33,-146.63 -17.94,-206.15 -46.72,-411.05 -26.35,-617.77 19.68,-199.29 71.02,-394.59 153.92,-576.98 34.64,-76.24 79.45,-154.85 155.04,-191.03 64.74,-30.96 157.65,2.16 221.95,21.58 87.79,26.45 167.98,74.07 245.39,122.15 126.14,78.3 160.27,219.93 140.47,359.63 -23.54,166.29 -104.83,300.99 -191.34,440.53 -75.97,136.41 -181.78,242.02 -298,338.79z"/>
  <path class="fil3" d="M10304.46 15576.89l-851.57 360.06c-41.77,32.93 -100.8,-7.79 -85.46,-58.33l364.67 -1201.22c13.6,-44.79 39.24,-81.32 71.55,-108.21 6.74,-5.88 14.11,-11.58 21.85,-16.5l-18.21 -8.52 87.29 -21.77 -0.11 0.31c68.09,-17.37 144.42,-4.11 203.7,46.64 6.16,4.84 11.81,10.19 17.35,15.84l364.28 377.07c51.06,52.85 -117.35,569.42 -175.34,614.63z"/>
  <path class="fil4" d="M10098.17 14569.35l-171.55 51.06 -122.97 -51.22c6.74,-5.88 14.11,-11.58 21.85,-16.5l-18.21 -8.52 87.29 -21.77 -0.11 0.31c68.09,-17.37 144.42,-4.11 203.7,46.64z"/>
  <path class="fil5" d="M10390.35 14984.66l-364.37 -377.15c-121.21,-125.48 -332.67,-74.46 -383.34,92.48l-364.59 1200.94c-15.42,50.75 43.58,91.23 85.38,58.61l851.57 -360.21c57.92,-45.22 226.41,-561.83 175.35,-614.67z"/>
  <path class="fil5" d="M10939.9 15812.71l507.66 772.74c16.39,50.59 88.1,49.55 103.44,-1.01l364.67 -1201.18c13.6,-44.82 12.59,-89.41 0.74,-129.74 -2.36,-8.64 -5.31,-17.47 -9.03,-25.88l19.91 3.06 -60.48 -66.59 -0.07 0.31c-46.95,-52.31 -117.77,-83.73 -195.26,-74.5 -7.79,0.58 -15.45,1.9 -23.24,3.52l-512.4 110.92c-71.86,15.54 -219.04,538.54 -195.94,608.35z"/>
  <path class="fil5" d="M11671.48 15089.92l114.21 137.79 130.67 25.81c-2.31,-8.64 -5.26,-17.47 -8.98,-25.88l19.91 3.06 -60.48 -66.59 -0.07 0.31c-46.95,-52.31 -117.77,-83.73 -195.26,-74.5z"/>
  <path class="fil5" d="M11197.72 15272.7l512.55 -110.92c170.53,-36.92 317.94,123.01 267.23,289.97l-364.6 1200.95c-15.41,50.75 -86.93,51.6 -103.55,1.24l-507.58 -772.85c-23.02,-69.77 124.13,-592.82 195.95,-608.39z"/>
  <path class="fil6" d="M10335.76 16896.69c-4.1,0 -8.21,-0.04 -12.39,-0.12 -52.38,-0.69 -107.9,-9.26 -164.92,-26.58 -55.76,-16.92 -107.94,-41.06 -150.63,-69.22 -2.71,-1.71 -5.39,-3.45 -8.06,-5.2 -80.16,-52.57 -131.22,-118 -140.24,-180.99 0,0 -1.71,-17.13 -2.33,-24.26l-0.89 -1.66c-0.5,-34.75 0.23,-69.12 1,-103.52 0.71,-66.21 2.72,-132.02 7.25,-197.07 1.9,-35.34 3.83,-70.67 6.16,-105.89 11.86,18.52 25.96,36.77 42.15,54.44 4.54,4.8 8.95,9.99 13.52,14.84 8.84,9.1 18.13,17.93 27.89,26.88 11.16,9.84 22.75,19.8 35.22,29.56 19.65,15.85 40.83,30.87 63.97,45.17 41.8,27.74 89.34,52.03 140.43,73.11 29.14,11.43 59.32,22.31 90.35,31.72 86.47,26.27 171.78,40.57 250.14,41.19 8.14,0.27 16.16,0.39 24.14,0.39 84.54,0 160.51,-14.02 221.57,-40.34l-56.14 98.14 -3.17 5.96c-30.11,48.98 -61.84,98.87 -93.61,148.74 -20.14,29.86 -40.68,61.01 -61.2,92.16l-0.35 1.24c-4.5,5.58 -15.42,18.86 -15.42,18.86 -32.31,35.99 -86.29,59.44 -151.91,68.39 -19.84,2.71 -40.79,4.06 -62.53,4.06z"/>
  <path class="fil7" d="M11046.51 15678.78c-32.58,107.28 -170.54,166.59 -343.75,162.29 -69.43,-1.59 -144.35,-13.56 -220.44,-36.65 -76.08,-23.09 -144.74,-54.7 -203.32,-91.97 -146.36,-92.75 -228.07,-218.73 -195.48,-326 27.86,-91.71 132.69,-148.54 271.11,-160.05 16.04,-1.4 32.35,-2.24 49.39,-2.4 7.68,-0.04 15.34,-0.12 23.25,0.11 69.38,2.18 144.03,13.49 220.08,36.57 76.1,23.14 145.05,54.82 203.63,92.1 146.36,92.74 228.07,218.73 195.53,326z"/>
  <path class="fil8" d="M10627.17 16711.98c-20.14,29.86 -40.68,61.01 -61.17,92.16l-0.43 1.24c-4.41,5.58 -15.37,18.86 -15.37,18.86 -43.94,48.94 -127.88,74.66 -226.8,72.33 -52.41,-0.69 -107.93,-9.26 -164.95,-26.58 -55.79,-16.92 -107.94,-41.06 -150.63,-69.22 -84.8,-53.43 -139.01,-121.11 -148.3,-186.19 0,0 -1.71,-17.13 -2.33,-24.26l-0.89 -1.66c-0.5,-34.75 0.23,-69.12 1,-103.48 17.67,64.85 78.58,133.19 164.65,187.01 49.87,31.73 108.4,57.83 171.79,77.05 64.62,19.6 127.76,30.5 186.84,31.81 105.65,3.02 195.96,-20.76 246.59,-69.07z"/>
  <path class="fil5" d="M12009.96 13986.52c-19.28,64.94 -39.82,131.22 -61.44,198.05 -3.3,12.29 -7.36,24.37 -11.47,36.41 -15.11,46.93 -31.11,94 -47.22,141.45 -12.98,38.56 -26.77,76.83 -40.37,116.03 -10.65,29.41 -21.3,58.78 -32.43,88.45 -54.35,147.88 -114.32,298.74 -180.45,451.57 -45.33,105.52 -93.92,211.84 -145.2,318.53 -41.27,87.9 -86.28,176.81 -132.74,264.83 -21.88,42.27 -44.51,84.34 -68.45,126.41l-143.3 253.02 -5.74 9c-74.23,122.96 -152.1,245.19 -234.69,367.34l-1.75 1.59c-6.9,9.92 -22.85,29.98 -22.85,29.98 -67.33,74.81 -194.87,114.64 -347.48,109.91 -78.36,-0.62 -163.67,-14.92 -250.14,-41.19 -31.03,-9.41 -61.21,-20.29 -90.35,-31.72 -51.09,-21.08 -98.63,-45.37 -140.43,-73.11 -23.14,-14.3 -44.32,-29.32 -63.97,-45.17 -12.47,-9.76 -24.06,-19.72 -35.22,-29.56 -9.76,-8.95 -19.05,-17.78 -27.89,-26.88 -4.57,-4.85 -8.98,-10.04 -13.52,-14.84 -26.76,-29.18 -47.88,-60.05 -62.45,-91.08 -2.36,-5 -4.68,-10 -6.93,-15.39 -2.33,-5.03 -4.19,-10.3 -6.01,-15.57l-3.22 -9.14c-1.85,-5.27 -3.28,-10.42 -4.34,-15.46 -1.73,-6.97 -3.37,-14.33 -4.21,-21.46 0,0 -2.1,-25.53 -2.29,-37.58l-0.58 -2.32c-1.59,-154.54 1.93,-307.53 10.73,-458.08 5.43,-102.62 12.55,-203.89 22.04,-304.43 3.6,-48.66 8.68,-97.78 14.26,-145.86 10.66,-100.19 24.1,-199.52 38.86,-297.61 42.5,-292.61 99.33,-573.18 164.07,-835.92 7.63,-30.73 15.22,-61.44 23.12,-91.67 8.57,-33.9 17.4,-67.25 26.12,-100.21 96.54,-360.34 207.15,-685.1 313.07,-961.91 9.72,-24.95 19.29,-49.47 28.78,-73.65 10.7,-28.08 21.5,-55.24 32.62,-81.94 161.2,-399.49 307.18,-683.9 376.45,-811.78l0.16 -0.39c2.2,-4.46 4.79,-8.79 6.89,-12.9l1.63 -2.52c2.86,-5.15 5.58,-9.88 8.17,-14.25 6.39,-9.65 13.91,-18.95 22.01,-27.2l16.69 -16.81 1409.41 427.86 1.67 8.63 3.48 18.25 1.01 9.3c0.93,9.76 1.93,19.05 2.48,28.66l-0.04 4.26c1.28,18.45 0.78,37.16 -1.09,55.91l-0.11 0.39c-1.39,11.63 -2.6,24.09 -3.95,36.99 -0.69,6.67 -1.44,13.29 -2.29,20.34 -0.85,7.02 -1.7,14.07 -2.56,21.12 -2.91,26.58 -6.27,56.02 -10.22,87.44 -4.84,37.15 -10.27,77.56 -16.63,121.1 -3.75,29.34 -8.36,60.13 -13.74,91.93 -0.66,3.69 -1.37,7.33 -1.75,11.51 -3.8,23.76 -7.4,48.39 -11.77,74.07 -2.91,18.03 -6.32,36.31 -9.43,55.1 -1.54,10.69 -3.48,21.27 -5.38,31.85 -15.84,91.73 -34.86,191.1 -57.06,296.79 -2.99,15.42 -6.54,31.5 -10.04,47.19 -3.06,15.77 -6.66,31.85 -10.26,47.92 -3.02,12.82 -5.77,26.15 -8.95,39.36 -4.26,19.71 -8.91,39.33 -13.32,59.47 -5.81,24.83 -11.24,49.78 -17.72,75.27 -2.62,12.94 -5.65,25.76 -9.1,38.43l-0.69 2.36 -0.36 1.21c-1.62,8.05 -3.48,15.65 -5.45,23.62 -2.33,10.47 -5.04,20.81 -7.76,31.16 -4.69,19.6 -9.84,39.48 -15.03,59.35 -4.22,16.73 -8.32,33.13 -12.55,49.86l-1.89 6.27c-2.71,10.35 -5.32,20.27 -8.03,30.61 -2.47,9.57 -4.8,18.71 -7.28,28.25 -3.8,13.9 -7.56,27.74 -11.46,42.02 -6.04,21.35 -11.7,42.78 -17.86,64.51 -6.44,22.55 -13.06,45.84 -19.6,68.77l-9.07 29.82c-4.77,15.74 -9.26,31.97 -14.15,48.08z"/>
  <path class="fil9" d="M11890.02 14362.27c-108.62,23.71 -226.68,32.63 -354.05,29.76 -179.18,-2.67 -373.27,-34.75 -569.93,-94.45 -197.58,-60.01 -374.89,-140.71 -525.33,-238.06 -125.87,-79.97 -234.23,-168.57 -318.37,-264.73 96.5,-360.44 206.92,-684.87 312.94,-961.94 80.36,89.03 183.14,172.95 302.54,247.94 150.98,95.54 327.79,178.06 525.33,238.07 196.69,59.7 391.33,89.96 569.93,94.45 119.54,2.52 232.48,-5.97 335.18,-26.5 -66.48,291.03 -157.14,622.46 -278.24,975.46z"/>
  <path class="fil9" d="M11290.3 15728.41l-143.33 252.79 -5.78 9.18c-66.28,8.72 -135.74,11.51 -208.93,10.19 -146.33,-2.67 -304.46,-28.83 -464.7,-77.45 -161.17,-48.93 -306.17,-114.82 -429.33,-193.98 -76.56,-49.12 -146.02,-102 -204.44,-158.52 5.35,-102.79 12.25,-204.1 21.89,-304.59 68,77.33 155.43,149.63 258.01,214.55 123.4,78.26 268.18,145.05 429.34,193.98 160.23,48.66 318.61,73.88 464.7,77.45 100.88,1.78 195.49,-5.27 282.57,-23.6z"/>
  <path class="fil9" d="M11491.64 15337.13c-41.56,87.78 -86.42,176.57 -133.11,264.83 -95.11,21.85 -200.48,31.61 -314.03,28.94 -146.37,-2.64 -304.47,-28.78 -464.71,-77.41 -161.16,-48.92 -306.21,-114.83 -429.33,-194.02 -113.32,-72.17 -209.12,-152.94 -280.36,-239.22 10.53,-100.19 23.82,-199.6 38.62,-297.5 72.91,103.68 182.12,202.47 317.18,288.21 123.42,78.21 268.2,145.04 429.33,193.97 160.22,48.66 318.64,73.88 464.74,77.44 137.29,2.91 263.32,-12.51 371.67,-45.24z"/>
  <path class="fil9" d="M11849.46 14478.46c-10.65,29.41 -21.3,58.78 -32.43,88.45 -79.14,9.03 -162.44,12.05 -249.02,10.22 -197.55,-3.75 -411.67,-39.16 -628.16,-104.86 -218.07,-66.21 -414.14,-155.36 -580.84,-262.17 -108.64,-69.03 -205.1,-144.23 -286.22,-223.38 7.63,-30.73 15.22,-61.44 23.12,-91.67 81.94,80.67 179.23,157.42 289.72,227.42 166.93,106.04 362.65,196.34 580.72,262.55 216.49,65.75 430.96,99.95 628.27,104.49 88.64,2.01 173.87,-1.71 254.84,-11.05z"/>
  <path class="fil9" d="M12181.28 13327.46c-75.27,7.59 -154.26,10.65 -236.44,8.45 -197.66,-3.37 -411.78,-38.75 -628.27,-104.49 -218.07,-66.21 -414.14,-155.31 -580.73,-262.55 -102.16,-64.89 -193.7,-135.2 -271.96,-209.59 10.7,-28.08 21.5,-55.24 32.62,-81.94 76.75,72.22 166.16,141.02 265.8,204.28 167.05,105.65 362.66,196.38 580.74,262.59 216.51,65.71 431.11,99.53 628.3,104.49 79.26,1.75 156.09,-1.12 229.15,-8.52 -3.06,15.77 -6.66,31.85 -10.26,47.92 -3.02,12.82 -5.77,26.15 -8.95,39.36z"/>
  <path class="fil10" d="M10853.23 16416.06c10.5,-8.4 20.14,-17.35 28.75,-26.88 -8.61,9.53 -18.21,18.52 -28.75,26.88z"/>
  <path class="fil11" d="M10558.52 16499.48c-7.94,0 -15.95,-0.12 -24.06,-0.39 -78.33,-0.62 -163.67,-14.92 -250.11,-41.19 -31.03,-9.41 -61.21,-20.29 -90.38,-31.72 36.14,-56.8 71.09,-114.02 105.57,-170.92l7.09 -10.7 168.25 -296.96c3.68,-6.47 7.32,-12.93 10.5,-19.17 154.11,45.25 305.94,69.55 446.88,72.14 11.47,0.2 22.86,0.31 34.14,0.31 21.73,0 43.15,-0.43 64.26,-1.28l-62.61 110.49 -5.73 8.98c-71.97,119.21 -147.6,237.8 -227.36,356.27 30.45,-9.22 58.18,-21.04 82.71,-35.22 -66.13,38.47 -156.2,59.36 -259.15,59.36zm479.19 -747.21c-9.95,0 -19.95,-0.08 -29.98,-0.26 -125.72,-3.07 -260.54,-22.16 -397.84,-58.47 0.05,-0.03 0.08,-0.11 0.13,-0.15 19.67,-38.63 39,-77.06 57.91,-115.38 129.86,32.94 257.13,50.72 376.57,52.89 12.16,0.31 24.25,0.43 36.22,0.43 53.65,0 105.41,-2.84 154.96,-8.52 -18.28,36.02 -36.95,72.01 -55.86,107.85 -2.67,5.19 -5.39,10.38 -8.1,15.54 -43.2,4.14 -87.94,6.07 -134.01,6.07zm114.72 -369.55c-10.73,0 -21.58,-0.12 -32.46,-0.35 -107.44,-2.63 -221.5,-16.97 -338.07,-43.7 128.55,-278.78 239.39,-553.61 335.2,-819.22 155.42,35.57 307.52,54.97 450.91,57.68 15.91,0.35 31.76,0.51 47.45,0.51 21.08,0 42,-0.31 62.64,-0.92 -65.86,185.87 -138.81,376.79 -220.36,570.58 -31.34,72.94 -64.23,146.28 -98.47,219.85 -64.89,10.35 -134.17,15.57 -206.84,15.57zm488.72 -892.67c-15.42,0 -30.91,-0.16 -46.53,-0.54 -141.91,-3.26 -292.69,-21.9 -446.76,-56.54 9.64,-27.38 19.1,-54.7 28.43,-81.89 123.85,25.42 244.85,39.21 359.68,40.95 15.34,0.35 30.52,0.5 45.59,0.5 55.99,0 110.11,-2.39 162.37,-7.55 -9.06,27.12 -18.29,54.35 -27.62,81.67 -2.64,7.52 -5.2,14.72 -7.56,22.23 -22.28,0.78 -44.82,1.17 -67.6,1.17zm232.25 -1076.32c-13.33,0 -26.77,-0.15 -40.32,-0.42 -117.08,-2.95 -241.1,-16.97 -368.01,-43.12 0,-0.04 0.04,-0.07 0.04,-0.15 7.67,-31.27 15.11,-62.26 22.32,-92.91 157.63,36.5 311.98,56.3 457.41,58.78 17.47,0.46 34.79,0.69 51.95,0.69 10.7,0 21.31,-0.08 31.88,-0.26 -4.87,23.63 -9.95,47.65 -15.29,71.86 -45.34,3.71 -92.1,5.53 -139.98,5.53zm143.07 -164.57c-14.95,0 -30.02,-0.15 -45.13,-0.46 -146.95,-3.68 -303.54,-23.4 -463.39,-60.4 53.93,-234.08 94.53,-445.84 125.18,-628.92 0,-0.08 0.04,-0.11 0.04,-0.16 62.25,10.96 123.12,17.05 181,18.64l0 0c7.9,0.15 15.69,0.23 23.43,0.23 0.05,0 0.05,0 0.08,0l0 0c0.12,0 0.24,0 0.35,0 74,-0.05 142.46,-6.93 204.33,-22.32 0.18,-0.04 0.41,-0.12 0.61,-0.15 0.86,-0.23 1.75,-0.43 2.59,-0.66l0 0c42.39,-9.84 81.44,-23.05 116.47,-39.48 -0.59,5.04 -1.12,10.12 -1.78,15.42 -0.86,7.02 -1.72,14.07 -2.53,21.12 -2.94,26.57 -6.7,55.89 -10.27,87.39 -4.83,37.16 -10.22,77.61 -16.57,121.15 -4.18,29.21 -8.8,59.97 -13.76,91.93 -0.69,3.68 -1.39,7.32 -1.78,11.51 -3.75,23.71 -7.4,48.38 -11.77,74.07 -2.91,18.02 -6.28,36.31 -9.42,55.1 -1.55,10.68 -3.45,21.26 -5.38,31.83 -12.13,70.36 -26.15,145.21 -42.04,223.98 -10.03,0.15 -20.11,0.18 -30.26,0.18z"/>
  <path class="fil12" d="M11581.56 14392.53c-15.07,0 -30.25,-0.15 -45.59,-0.5 -114.83,-1.74 -235.83,-15.53 -359.68,-40.95 0,-0.04 0.04,-0.12 0.04,-0.15l2.56 -6.97c118.94,-346.62 212.81,-675.54 286.18,-973.77 126.91,26.15 250.93,40.17 368.01,43.12 13.55,0.27 26.99,0.42 40.32,0.42 47.88,0 94.64,-1.82 139.98,-5.53 -0.66,2.9 -1.32,5.81 -1.95,8.71 -7.2,32.16 -14.76,65.47 -22.31,98.79 -5.81,24.87 -11.24,49.82 -17.71,75.31 -2.63,12.95 -5.65,25.73 -9.06,38.44l-0.73 2.36 -1.47 7.71c-1.4,6.01 -3.07,11.51 -4.34,17.12 -2.33,10.47 -5.04,20.81 -7.75,31.16 -4.65,19.55 -9.84,39.46 -14.99,59.34 -4.26,16.74 -8.37,33.09 -12.6,49.86l-1.9 6.28c-2.71,10.35 -5.3,20.26 -7.97,30.61 -2.48,9.56 -4.85,18.71 -7.33,28.24 -3.75,13.9 -7.55,27.74 -11.46,42.03 -6.05,21.31 -11.71,42.77 -17.87,64.51 -6.39,22.51 -13.05,45.82 -19.56,68.72l-9.07 29.87c-31.45,103.6 -65.35,209.78 -101.38,317.72 -52.26,5.16 -106.38,7.55 -162.37,7.55z"/>
  <path class="fil12" d="M10966.4 16000.88c-11.28,0 -22.67,-0.11 -34.14,-0.31 -140.94,-2.59 -292.77,-26.89 -446.88,-72.14 0.04,-0.11 0.11,-0.23 0.16,-0.35 24.29,-43.27 47.03,-85.69 69.11,-128.78 18.91,-35.4 37.27,-70.5 55.24,-105.76 137.3,36.31 272.12,55.4 397.84,58.47 10.03,0.18 20.03,0.26 29.98,0.26 46.07,0 90.81,-1.93 134.01,-6.07 -19.33,37.07 -39.32,73.95 -60.32,110.87l-80.74 142.53c-21.11,0.85 -42.53,1.28 -64.26,1.28z"/>
  <path class="fil12" d="M11080.72 15631.33c-11.97,0 -24.06,-0.12 -36.22,-0.43 -119.44,-2.17 -246.71,-19.95 -376.57,-52.89 14.72,-29.9 29.21,-59.73 43.32,-89.49 24.13,-50.05 47.68,-100.02 70.65,-149.85 116.57,26.73 230.63,41.07 338.07,43.7 10.88,0.23 21.73,0.35 32.46,0.35 72.67,0 141.95,-5.22 206.84,-15.57 -15.31,32.85 -30.88,65.74 -46.73,98.67 -24.44,52.11 -50.24,104.57 -76.86,156.99 -49.55,5.68 -101.31,8.52 -154.96,8.52z"/>
  <path class="fil12" d="M11615.46 14577.64c-15.69,0 -31.54,-0.16 -47.45,-0.51 -143.39,-2.71 -295.49,-22.11 -450.91,-57.68 10.42,-28.94 20.69,-57.76 30.76,-86.48 154.07,34.64 304.85,53.28 446.76,56.54 15.62,0.38 31.11,0.54 46.53,0.54 22.78,0 45.32,-0.39 67.6,-1.17 -0.35,1.01 -0.66,2.06 -0.96,3.1 -9.73,28.09 -19.61,56.34 -29.69,84.74 -20.64,0.61 -41.56,0.92 -62.64,0.92z"/>
  <path class="fil12" d="M11996.79 13336.6c-17.16,0 -34.48,-0.23 -51.95,-0.69 -145.43,-2.48 -299.78,-22.28 -457.41,-58.78 6.23,-26.42 12.27,-52.6 18.13,-78.48 0.81,-3.45 1.58,-6.9 2.39,-10.35 159.85,37 316.44,56.72 463.39,60.4 15.11,0.31 30.18,0.46 45.13,0.46 10.15,0 20.23,-0.03 30.26,-0.18 -4.85,23.89 -9.84,48.18 -15.04,72.83 -1,4.84 -2.01,9.68 -3.02,14.53 -10.57,0.18 -21.18,0.26 -31.88,0.26z"/>
  <path class="fil13" d="M10818.67 16439.62c6.51,-3.83 12.75,-7.86 18.76,-12.08 -5.98,4.22 -12.22,8.29 -18.76,12.08zm18.76 -12.08c4.06,-2.87 8.01,-5.78 11.89,-8.76 -3.88,2.98 -7.83,5.93 -11.89,8.76z"/>
  <path class="fil5" d="M12339.66 12329.71c-33.86,111.58 -142.65,190.15 -294.1,225.25 -69.26,17.59 -146.9,24.48 -231.39,22.9 -105.54,-2.87 -221.1,-20.81 -336.63,-55.87 -116.69,-35.41 -221.55,-84.41 -311.67,-140.98 -56.95,-35.71 -107.62,-75.16 -150.58,-117.39 -24.29,-23.24 -46.23,-47.06 -65.48,-71.35 -80.43,-102.52 -112.89,-211.92 -83.17,-309.75l0.23 -0.81c1.66,-5.5 3.75,-10.88 6.19,-16.15l0.12 -0.39c4.54,-10.62 9.69,-20.64 16.74,-29.67 6.35,-9.65 13.9,-18.95 22.01,-27.2l16.69 -16.81 1076.5 -1368.88c8.33,-10.35 19.57,-16.4 30.49,-16.94 15.27,-2.25 29.45,3.38 38.17,14.15 6.82,7.24 12,16.97 12.2,29.05l249.26 1769.62 1.15 69.12c-1.7,14.06 7.33,28.74 3.27,42.1z"/>
  <path class="fil11" d="M12336.39 12287.61l-1.15 -69.12 -249.26 -1769.62c-0.2,-12.08 -5.38,-21.81 -12.2,-29.05 -8.72,-10.77 -22.9,-16.4 -38.17,-14.15l-3.52 1.01c-98.72,929.36 -399.03,2078.82 -399.03,2078.82l1.15 69.11 0.16 4.38c61.79,10.85 122.34,17.28 179.8,18.87 84.49,1.58 162.13,-5.31 231.39,-22.9 151.45,-35.14 260.24,-113.67 294.1,-225.25 4.06,-13.36 -4.97,-28.04 -3.27,-42.1z"/>
  <path class="fil5" d="M12339.81 12329.33l-0.12 0.38c-33.89,111.58 -142.68,190.11 -294.13,225.25l144.97 -54.24 -116.75 -2080.9c6.82,7.24 12,16.97 12.2,29.05l252.01 1770.48 1.67 8.63 3.48 18.25 1.05 9.3c0.89,9.72 1.93,19.05 2.44,28.63l0 4.29c-0.74,12.25 -2.33,24.65 -5.89,36.42l-0.93 4.46z"/>
  <path class="fil14" d="M9849.87 16144.42c-2.52,-5.24 -4.84,-10.42 -7.01,-15.62 0.19,0.43 0.42,0.89 0.62,1.35 2.05,4.97 4.23,9.61 6.39,14.27zm-10.58 -24.69c-1.31,-3.45 -2.51,-6.85 -3.64,-10.26l1.82 5.11c0.58,1.7 1.21,3.45 1.82,5.15zm-15.77 -84.1c-0.07,-1.79 -0.15,-3.37 -0.18,-4.81l-0.05 -0.27 0.12 0.39c0,1.4 0.04,2.98 0.11,4.69z"/>
  <path class="fil15" d="M10446.99 12802.4c6.27,-16.12 12.51,-32.08 18.71,-47.88 -0.62,1.58 -1.2,3.17 -1.82,4.76 -5.58,14.22 -11.2,28.59 -16.89,43.12zm48.31 -122.15c161.82,-401.44 308.34,-686.73 377.76,-815.04l-0.11 0.35c-69.27,127.88 -215.25,412.29 -376.45,811.78 -0.43,0.97 -0.82,1.95 -1.2,2.91z"/>
  <path class="fil16" d="M9895.39 14914.31c4.07,-29.22 8.29,-58.35 12.67,-87.33 0,0.08 0,0.12 -0.04,0.15 -4.26,28.43 -8.4,56.95 -12.4,85.58 -0.08,0.54 -0.16,1.05 -0.23,1.6z"/>
  <path class="fil17" d="M9989.46 16307.71c-64,-50.29 -112.13,-106.35 -139.59,-163.29 -2.16,-4.66 -4.34,-9.3 -6.39,-14.27 -0.2,-0.46 -0.43,-0.92 -0.62,-1.35 -1.24,-3.02 -2.45,-6.04 -3.57,-9.07 -0.61,-1.7 -1.24,-3.45 -1.82,-5.15l-1.82 -5.11c-4.53,-13.76 -7.82,-27.47 -9.77,-41.1 0,0 -1.73,-19.84 -2.36,-32.74 -0.07,-1.71 -0.11,-3.29 -0.11,-4.69l-0.12 -0.39 -0.3 -1.86c-1.75,-154.65 1.93,-307.64 10.8,-458.07l0 0c50.84,49.2 110.03,95.61 175,139.24 -2.95,44.35 -5.58,88.94 -7.91,133.77 -8.98,152.48 -12.59,307.52 -11.42,464.08zm-155.44 -741.9c5.35,-101.15 12.17,-200.87 21.66,-299.78 -9.49,98.91 -16.31,198.63 -21.66,299.78zm198.63 -140.36c-68.11,-49.93 -127.65,-103.36 -176.97,-159.42 3.8,-48.58 8.79,-97.74 14.42,-145.78l0 0c48.57,58.8 108.58,115.1 177.74,167.83 -2.75,23.67 -5.38,47.34 -7.91,71.09 -2.55,21.88 -5,44.04 -7.28,66.28zm-162.06 -309.89c7.17,-67.53 15.54,-134.7 24.8,-201.25 0.07,-0.55 0.15,-1.06 0.23,-1.6 -9.34,67.1 -17.81,134.78 -25.03,202.85zm215.21 -105.8c-71.56,-59.08 -131.44,-122.07 -177.08,-187.01 42.73,-292.99 99.53,-573.37 164.14,-835.95 54.94,53.58 116.88,105.33 184.84,154.58 -67.22,273.23 -126.53,564.38 -171.9,868.38zm-177.78 -182.63c0.04,-0.03 0.04,-0.07 0.04,-0.15 0.23,-1.4 0.43,-2.83 0.66,-4.23 -0.23,1.48 -0.47,2.91 -0.7,4.38zm372.42 -776.21c-67.95,-49.64 -129.67,-101.86 -184.48,-155.82 8.67,-33.75 17.47,-67.18 26.38,-100.31l0 0c51.72,59.08 112.54,115.34 180.95,168.45 -7.7,28.98 -15.34,58.23 -22.85,87.68zm331.55 -1057.17c-66.83,-50.99 -126.18,-104.92 -176.71,-160.9 3.93,-10.23 7.83,-20.33 11.71,-30.45 5.69,-14.53 11.31,-28.9 16.89,-43.12 0.62,-1.59 1.2,-3.18 1.82,-4.76l0 0c-0.62,1.58 -1.2,3.17 -1.82,4.76 54.16,51.49 114.67,100.96 180.65,148.11 -10.8,28.32 -21.7,57.1 -32.54,86.36zm64.77 -169.58c-65.82,-46.76 -126.18,-95.92 -180.26,-146.83 -0.43,0.97 -0.82,1.95 -1.2,2.91l0 0c0.38,-0.96 0.77,-1.94 1.2,-2.91 161.2,-399.49 307.18,-683.9 376.45,-811.78l0.11 -0.35c0.16,-0.27 0.28,-0.5 0.43,-0.77 -0.12,0.27 -0.2,0.5 -0.31,0.73l-0.12 0.39c-2.44,5.27 -4.53,10.65 -6.19,16.15l-0.23 0.81c-29.72,97.83 2.74,207.23 83.17,309.75 0.04,0.03 0.04,0.07 0.08,0.11 -79.46,167.09 -174.34,380.01 -273.13,631.79z"/>
  <path class="fil18" d="M10303.29 13963.24c-68.41,-53.11 -129.23,-109.37 -180.95,-168.45 96.5,-360.44 206.92,-684.87 312.94,-961.94l0 0c50.53,55.98 109.88,109.91 176.71,160.9 -102.79,276.26 -207.73,592.39 -300.68,939.54 -2.71,9.96 -5.34,19.96 -8.02,29.95z"/>
  <path class="fil18" d="M10008.79 15709.86c-64.97,-43.63 -124.16,-90.04 -175,-139.24 0.08,-1.62 0.15,-3.22 0.23,-4.81 5.35,-101.15 12.17,-200.87 21.66,-299.78l0 0c49.32,56.06 108.86,109.49 176.97,159.42 -3.1,30.15 -5.89,60.44 -8.22,90.5 -6.16,64.28 -11.26,128.85 -15.64,193.91z"/>
  <path class="fil18" d="M10047.84 15288.08c-69.16,-52.73 -129.17,-109.03 -177.74,-167.83 0.15,-1.55 0.3,-3.1 0.49,-4.69 7.22,-68.07 15.69,-135.75 25.03,-202.85 4,-28.63 8.14,-57.15 12.4,-85.58 0.23,-1.47 0.47,-2.9 0.7,-4.38l0 0c45.64,64.94 105.52,127.93 177.08,187.01 -1.43,9.76 -2.9,19.57 -4.34,29.36 -12.4,82.14 -23.82,165.24 -33.62,248.96z"/>
  <path class="fil18" d="M10257.7 14141.38c-67.96,-49.25 -129.9,-101 -184.84,-154.58 7.59,-30.81 15.3,-61.37 23.1,-91.7 54.81,53.96 116.53,106.18 184.48,155.82 -7.67,29.95 -15.26,60.08 -22.74,90.46z"/>
  <path class="fil18" d="M10644.53 12907.39c-65.98,-47.15 -126.49,-96.62 -180.65,-148.11 0.62,-1.59 1.2,-3.18 1.82,-4.76 9.92,-25.19 19.79,-49.94 29.6,-74.27 0.38,-0.96 0.77,-1.94 1.2,-2.91 54.08,50.91 114.44,100.07 180.26,146.83 -9.61,24.41 -19.22,49.16 -28.86,74.31 -1.13,2.94 -2.25,5.92 -3.37,8.91z"/>
  <path class="fil19" d="M10889.45 11836.16c0.16,-0.24 0.32,-0.47 0.47,-0.66 2.13,-3.22 4.41,-6.43 6.77,-9.58 -2.36,3.15 -4.64,6.36 -6.77,9.58 -0.15,0.23 -0.31,0.42 -0.47,0.66z"/>
  <path class="fil15" d="M12005.74 10421.86c8.22,-9.92 19.22,-15.68 29.87,-16.19 -10.65,0.54 -21.65,6.27 -29.87,16.19z"/>
  <path class="fil17" d="M10949.89 12192.38c-0.04,-0.04 -0.04,-0.08 -0.08,-0.11 -80.43,-102.52 -112.89,-211.92 -83.17,-309.75l0.23 -0.81c1.66,-5.5 3.75,-10.88 6.19,-16.15l0.12 -0.39c0.11,-0.23 0.19,-0.46 0.31,-0.73 2.28,-4.23 4.49,-8.29 6.62,-12.17l1.75 -2.44c2.51,-4.53 4.46,-9.49 7.59,-13.67 0.16,-0.24 0.32,-0.43 0.47,-0.66 2.13,-3.22 4.41,-6.43 6.77,-9.58 4.69,-6.19 9.84,-12.16 15.24,-17.62l16.69 -16.81 1076.5 -1368.88c0.2,-0.24 0.43,-0.51 0.62,-0.75 8.22,-9.92 19.22,-15.65 29.87,-16.19l0 0 -3.52 1.01c-0.15,1.43 -0.31,2.9 -0.47,4.3 -59.39,80.04 -772.11,1047.06 -1081.7,1781.32 0,0 -0.03,0.04 -0.03,0.08z"/>
  <path class="fil20" d="M12031.62 10410.98c0.16,-1.4 0.32,-2.87 0.47,-4.3l3.52 -1.01 0 0c0,0 -1.36,1.83 -3.99,5.31z"/>
  <path class="fil17" d="M11808.2 16382.44c-4.3,60.09 -20.41,118.74 -41.5,175.19l-352.73 944.94c-8.29,27.23 -30.8,41.56 -54.39,43l-20.26 4.42 11.86 -79.39 17.19 -1.08 -386.17 -1040c-10.04,-26.85 -10.73,-56.14 -2.36,-83.69l171.58 -565.19 -32.85 -5 -26.85 -44.52 110.03 -25.8 -0.12 0.31c14.92,-3.4 31.3,-0.74 44.59,9.92l405.89 327.17c37.42,30.22 68.61,65.82 92.9,105.61l0.43 0.77c40.25,64.47 61.98,138.85 63.27,215.25 0.11,6.16 -0.08,12.17 -0.51,18.09z"/>
  <path class="fil11" d="M11745.44 16149.1l-147.8 33.82 -468.19 -329.91 21.97 -72.37 -32.85 -5 -26.85 -44.52 110.03 -25.8 -0.12 0.31c14.92,-3.4 31.3,-0.74 44.59,9.92l405.89 327.17c37.42,30.22 68.61,65.82 92.9,105.61l0.43 0.77z"/>
  <path class="fil11" d="M11808.71 16364.35l-321.59 55.13 97.81 -236.13 160.08 -35.02c40.57,64.54 62.53,139.31 63.7,216.02z"/>
  <path class="fil5" d="M11138.13 15740.88l405.7 327.29c133.73,107.93 188.59,286.19 138.7,450.61l-300.56 989.98c-16.97,55.91 -95.27,58.27 -115.56,3.49l-392.41 -1057.44c-9.97,-26.85 -10.85,-56.25 -2.52,-83.64l183.55 -604.71c10.81,-35.57 54.16,-48.89 83.1,-25.58z"/>
  <path class="fil17" d="M9237.99 15602.15c-29.83,52.34 -49.05,110.07 -62.92,168.68l-232.1 981.55c-8.29,27.28 2.48,51.68 21.27,65.98l14.41 14.96 34.25 -72.62 -13.67 -10.45 899.18 -649.77c23.25,-16.74 40.14,-40.72 48.5,-68.26l171.59 -565.16 30.11 14.1 47.03 -22.08 -77.1 -82.6 -0.08 0.31c-10.5,-11.16 -25.61,-18.05 -42.58,-16.58l-519.28 46.34c-47.92,4.3 -93.6,16.54 -135.91,36.1l-0.81 0.43c-69.31,31.19 -128.7,80.93 -172.24,143.77 -3.53,5.03 -6.71,10.12 -9.65,15.3z"/>
  <path class="fil5" d="M9419.88 15443.08l104.06 110.3 572.59 -13.99 21.97 -72.33 30.11 14.1 47.03 -22.08 -77.1 -82.6 -0.08 0.31c-10.5,-11.16 -25.61,-18.05 -42.58,-16.58l-519.28 46.34c-47.92,4.3 -93.6,16.54 -135.91,36.1l-0.81 0.43z"/>
  <path class="fil5" d="M9247.64 15586.85l236.62 224.58 49.98 -250.65 -113.55 -118.13c-69.66,31.11 -129.43,81.06 -173.05,144.2z"/>
  <path class="fil11" d="M10151.63 15441.42l-519.18 46.49c-171.16,15.34 -315.86,133.03 -365.79,297.45l-300.56 989.95c-16.97,55.91 46.8,101.39 94.15,67.19l914.05 -660.85c23.21,-16.78 40.29,-40.68 48.59,-68.11l183.59 -604.68c10.82,-35.6 -17.81,-70.78 -54.85,-67.44z"/>
  <g id="_2064064411472">
   <path class="fil0" d="M11529.2 19058.82l277.48 -161.13c-2.37,-3.6 -4.63,-7.22 -6.88,-10.82 -12.79,1.23 -25.25,3.12 -37.58,5.37 -3.94,0.82 -7.91,1.85 -12.01,2.87 -13.03,3.08 -25.74,6.68 -38.2,10.98 -3.77,1.39 -7.62,2.51 -11.35,4.1 -14.88,5.74 -29.79,12.58 -43.56,20.49l-1.8 1.02c0.61,-0.32 1.19,-0.65 1.8,-1.02l124.38 -72.21c-5.82,-8.72 -11.72,-17.33 -17.67,-26.1 -4.63,-6.81 -9.17,-13.69 -13.6,-20.37l-3.16 -4.79c-16.47,-22.99 -33.11,-45.79 -50.24,-67.91l-2.17 -2.96 -0.2 -0.08 -7.26 -8.85c-17.71,-22.83 -36.06,-45.41 -54.67,-66.79l-1.35 -1.4 -5.9 -6.68c-22.79,-25.61 -45.94,-50.2 -69.63,-74.01l-9.18 -10c-8.48,-8.48 -17.7,-16.31 -26.44,-24.51 -8.59,-8.48 -17.57,-16.88 -26.75,-25.03 -13.61,-12.26 -27.54,-23.82 -41.35,-35.36 -8.86,-7.38 -17.5,-14.76 -26.23,-21.69 -15.62,-12.34 -31.51,-23.69 -47.38,-35.04 -7.37,-5.45 -14.87,-11.1 -22.32,-16.31 -23.49,-16.23 -47.55,-31.39 -71.68,-45.36 -24.06,-13.94 -48.07,-26.1 -71.67,-37.21 -6.36,-3.04 -12.39,-5.78 -18.69,-8.61 -6.6,-2.83 -12.96,-6.11 -19.51,-8.73 -16.23,-6.8 -32.21,-12.78 -47.99,-18.24l-4.63 -1.35c-13.15,-4.55 -26.77,-8.77 -39.59,-12.29 -5.77,-1.56 -11.56,-2.25 -17.22,-3.73 -11.02,-2.59 -21.54,-4.88 -32.2,-6.81 -6.48,-1.23 -13.16,-3.27 -19.63,-4.18 -7.26,-1.23 -14.72,-1.47 -22.13,-2.25 -7.67,-0.94 -15.74,-1.85 -23.33,-2.29 -4.54,-0.34 -8.64,-1.23 -13.06,-1.36 -4.22,-0.2 -8.48,-0.24 -12.7,-0.24 -8.25,0 -16.44,0.24 -24.48,0.49 -1.02,0.04 -2.04,0.08 -3.11,0.08 -0.94,0 -1.84,-0.04 -2.79,-0.04 -0.89,0 -1.8,-0.04 -2.69,-0.04 -1.04,0 -2.09,0.04 -3.08,0.08l-2.95 0.12c-16.23,1.03 -32.09,2.83 -47.42,5.45l-7.25 1.69c-4.96,1.02 -9.5,2.17 -13.93,3.32 -7.58,1.8 -15.41,3.15 -22.92,5.2 -6.79,2.05 -13.23,4.76 -19.96,7.12 -4.5,1.61 -9.29,3.08 -13.71,4.8l-7.59 2.71c-13.73,5.66 -26.43,12.01 -39.35,19.14l-4.34 2.5c-92.61,53.65 -184.77,107.49 -277.44,161.13 16.44,-9.42 34.01,-17.45 51.6,-24.38 4.3,-1.72 8.81,-3.03 13.04,-4.51 14.05,-5 28.43,-9.3 43.31,-12.58 4.63,-1.15 9.18,-2.3 13.97,-3.19 18.57,-3.61 38.08,-6.11 57.91,-7.38l11.02 0c5.41,-0.16 10.83,-0.25 16.27,-0.25 11.44,0 22.95,0.37 34.63,1.15 7.58,0.58 15.21,1.47 23.11,2.38 13.73,1.72 27.7,3.84 41.97,6.47 10.33,1.93 21.11,4.23 31.63,6.81 19.06,4.63 38.33,9.63 57.96,16.22l3.39 1.03c22.21,7.7 45,16.89 67.83,27.09 6.1,2.7 12.58,5.65 18.68,8.6 23.81,11.11 47.63,23.24 71.88,37.34 24.06,13.8 47.87,29.01 71.59,45.12 7.71,5.32 15.29,11.22 22.99,16.76 15.79,11.35 31.32,22.46 46.6,34.46 9.11,7.18 17.7,14.88 26.76,22.38 13.73,11.19 27.21,22.78 40.82,34.79 9.18,8.16 18.16,16.88 27.34,25.41 11.67,11.22 23.36,22.54 35.03,34.09 23.82,24.06 47.29,48.77 70.07,74.76l6.7 7.37c19.29,22.21 37.98,45.24 56.46,68.84l6.02 7.14 2.51 3.48c18.03,23.48 35.61,47.54 52.69,71.92 4.56,6.68 8.98,13.49 13.53,20.17 14.71,21.67 29.14,43.43 42.95,65.64z"/>
   <path class="fil0" d="M12814.15 19967.53l277.23 -161.09c-1.47,-8.65 -3.27,-17.26 -5.2,-25.77 -1.48,-7.14 -3.6,-14.51 -5.24,-21.65 -3.16,-14.42 -6.68,-28.56 -10.54,-42.99 -1.47,-5.08 -2.37,-10.2 -3.73,-15.19 -2.04,-7.26 -4.54,-14.51 -6.79,-21.65 -3.16,-11.34 -6.57,-22.58 -10.09,-33.81 -1.84,-5.32 -3.07,-10.28 -4.75,-15.4 -2.75,-8.29 -6.15,-16.56 -8.98,-24.84 -3.16,-9.42 -6.55,-18.81 -10.08,-28.23 -1.72,-4.07 -2.87,-8.15 -4.54,-12.01 -4.18,-11.35 -8.95,-22.58 -13.62,-33.56 -3.06,-7.46 -5.9,-14.88 -8.93,-22.01l-2.63 -6.56c-8.72,-20.2 -17.9,-40.16 -27.45,-60.11 -9.51,-19.72 -19.5,-39.35 -29.91,-58.85l-3.53 -6.11c-3.84,-7.38 -8.03,-14.51 -12.13,-21.81 -5.45,-10.08 -11.02,-20.41 -16.88,-30.48 -2.3,-3.94 -4.76,-8.04 -7.37,-12.01 -4.88,-8.28 -10,-16.55 -15.21,-24.84 -4.42,-7.13 -8.73,-14.51 -13.16,-21.75 -3.73,-5.58 -7.57,-10.99 -11.35,-16.56 -5.53,-8.85 -11.56,-17.7 -17.46,-26.44 -3.97,-5.53 -7.49,-11.22 -11.22,-16.76 -4.31,-6.02 -8.85,-11.8 -13.28,-17.82 -7.34,-10.21 -14.72,-20.17 -22.21,-30.17 -3.48,-4.62 -7.02,-9.5 -10.54,-14.14 -3.97,-5.04 -8.28,-9.79 -12.12,-14.87 -10.09,-12.58 -20.21,-25.08 -30.61,-37.3 -4.31,-5.12 -8.53,-10.57 -12.71,-15.53l-8.48 -9.17c-20.54,-23.16 -41.31,-45.61 -62.74,-66.8l-3.29 -3.28 -0.57 -0.61c-7.83,-7.91 -16.07,-15.29 -24.26,-22.79 -10.32,-9.63 -20.41,-19.46 -30.73,-28.57 -9.52,-8.4 -19.26,-16.1 -28.89,-24.01 -9.44,-7.7 -18.53,-15.9 -28.24,-23.28 -10.01,-7.9 -20.66,-15.16 -31.11,-22.65 -9.05,-6.6 -18.23,-13.73 -27.42,-19.97 -19.96,-13.48 -40.03,-26.1 -60.32,-37.66 -21.18,-12.46 -42.17,-22.99 -63.02,-32.74 -5.45,-2.75 -11.11,-5.25 -16.56,-7.7 -5.9,-2.51 -11.68,-5.46 -17.38,-7.96 -14.3,-5.9 -28.11,-11.1 -42.05,-15.77l-3.15 -1.02c-11.84,-3.94 -23.73,-7.71 -35.29,-10.87 -5.24,-1.52 -10.2,-2.04 -15.45,-3.27 -9.5,-2.3 -18.8,-4.35 -28.19,-6.03 -5.58,-1.02 -11.68,-2.82 -17.38,-3.65 -6.43,-1.15 -12.58,-1.23 -19.05,-1.88 -7.13,-0.94 -14.06,-1.64 -20.74,-2.06 -3.72,-0.24 -7.58,-0.94 -11.23,-1.14 -3.48,-0.16 -6.96,-0.24 -10.41,-0.24 -7.54,0 -14.95,0.28 -22.32,0.44l-10.33 0.13 -2.76 0c-13.92,0.91 -27.86,2.58 -41.39,4.88l-6.67 1.47c-4.11,0.9 -8.28,2.05 -12.46,2.95 -6.8,1.48 -13.16,2.71 -19.51,4.55 -6.23,1.81 -12,4.18 -18.03,6.35 -3.85,1.36 -8.08,2.58 -12,4.18l-6.36 2.38c-12.17,5 -23.73,10.66 -34.95,16.93l-3.61 2.25 -151.3 87.86c3.77,5.66 7.49,11.31 11.14,17.13 2.46,3.73 4.8,7.5 7.18,11.27 4.42,-0.4 8.84,-0.74 13.36,-0.94l10.07 -0.13c4.88,-0.21 9.76,-0.29 14.67,-0.29 9.84,0 19.76,0.38 29.8,0.96 6.68,0.69 13.6,1.39 20.28,2.17 12.14,1.35 24.27,3.27 36.77,5.64 9.26,1.61 18.68,3.78 28.23,5.91 16.64,4.1 33.31,8.41 50.77,14.31l2.95 0.89c19.64,6.73 39.35,14.88 59.52,23.73 5.36,2.46 10.89,4.96 16.67,7.58 20.65,9.97 41.76,20.54 63.19,32.75 19.92,11.8 40.24,24.38 59.95,37.9 7.26,4.76 14.19,10.29 21.32,15.42 12.5,8.85 25.2,17.57 37.42,27.09 8.72,6.92 17.36,14.38 26.1,21.54 10.2,8.48 20.65,16.77 30.93,25.62 8.86,7.94 17.46,16.55 26.44,24.71 9.55,8.98 19.14,17.58 28.69,26.89l3.07 3.07c21.63,21.56 42.63,44.22 63.36,67.57 7.04,8.04 13.98,16.36 21.11,24.51 10.33,12.26 20.28,24.59 30.36,37.17 7.82,9.63 15.65,19.51 23.16,29.38 7.37,9.96 14.75,20.09 22.08,30.17 8.15,11.22 16.23,22.54 24.18,34.26 6.1,8.8 12,17.78 18.12,26.84 8.18,12.49 16.22,25.2 23.97,37.86 5.16,8.4 10.41,16.81 15.49,25.29 8.31,13.85 16.14,27.79 24.05,41.96 4.06,7.26 8.29,14.88 12.26,22.21 23.11,43 44.34,86.88 63.36,131.11 3.31,7.7 6.35,15.4 9.34,23.1 6.11,14.88 12.12,29.72 17.78,44.8 3.61,9.55 7.01,19.3 10.54,28.93 4.54,12.91 9.09,26.06 13.15,39.09 3.77,11.69 7.26,23.41 10.65,35.05 3.53,11.92 6.81,23.8 10,35.61 3.94,14.96 7.46,29.71 10.99,44.66 3.52,15.45 7.38,30.87 10.2,46.27z"/>
   <path class="fil0" d="M13435.66 21519.64c92.54,-53.76 184.71,-107.49 277.33,-161.14 111.91,-65.2 181.33,-203.62 181.66,-400.26 0.12,-22.78 -0.78,-45.93 -2.7,-69.05 -0.45,-7.25 -1.39,-14.54 -2.17,-21.88 -0.91,-10.33 -1.69,-20.77 -2.84,-31.31 -0.81,-4.55 -2.04,-9.31 -2.49,-13.93 -2.38,-16.35 -5.33,-32.87 -8.61,-49.46 -1.35,-7.83 -2.37,-15.53 -4.1,-23.25 -0.65,-3.73 -1.67,-7.37 -2.5,-11.1 -2.37,-10.65 -5.2,-21.19 -7.91,-31.88 -2.42,-9.51 -4.43,-19.14 -7.04,-28.69 -1.47,-5.32 -3.29,-10.61 -4.88,-15.99 -2.38,-8.48 -5.2,-16.87 -7.58,-25.24 -2.5,-7.49 -4.43,-15 -7.06,-22.58 -2.95,-9.18 -6.55,-18.6 -9.87,-27.9 -2.46,-6.81 -4.96,-13.82 -7.57,-20.74l-3.74 -10.33c-7.13,-18.8 -14.76,-37.41 -22.78,-56.14l-1.03 -2.05 -3.07 -6.67c-6.68,-15.29 -13.61,-30.5 -20.74,-45.46 -2.74,-5.45 -5.45,-10.9 -8.16,-16.23 -3.19,-6.14 -6.38,-12.34 -9.42,-18.35 -3.19,-6.15 -6.22,-12.39 -9.3,-18.48 -6.92,-12.83 -13.93,-25.29 -21.19,-37.88l-6.02 -10.89 -2.17 -3.86c-10.41,-17.78 -21.19,-35.49 -32.29,-52.95l-5.01 -7.7c-3.73,-5.69 -7.7,-11.35 -11.56,-17.01 -6.6,-9.67 -12.94,-19.63 -19.62,-29.13 -3.86,-5.58 -7.83,-10.78 -11.69,-16.11 -5.9,-7.95 -11.8,-15.65 -17.46,-23.61 -4.21,-5.57 -8.15,-11.22 -12.37,-16.76 -5.2,-6.6 -10.65,-12.62 -15.85,-19.18 -7.96,-9.99 -15.99,-19.83 -24.14,-29.59 -3.78,-4.21 -7.05,-8.72 -10.9,-12.9 -4.1,-5 -8.74,-9.34 -13.03,-14.22 -13.49,-15.04 -27.34,-29.67 -41.28,-43.97 -4.67,-4.63 -8.97,-10 -13.52,-14.43 -4.43,-4.31 -9.06,-8.28 -13.36,-12.33 -6.81,-6.56 -13.93,-13.04 -20.73,-19.39 -11.81,-10.65 -23.61,-20.98 -35.62,-31.07 -7.04,-5.9 -14.06,-11.8 -21.11,-17.57 -13.02,-10.33 -26.3,-20.2 -39.54,-29.72 -6.27,-4.54 -12.17,-9.3 -18.6,-13.6 -19.76,-13.41 -39.59,-26.1 -59.67,-37.74 -15.29,-8.85 -30.61,-17.06 -45.69,-24.51 -4.76,-2.26 -9.39,-4.09 -14.06,-6.47 -9.3,-4.19 -18.48,-8.61 -27.41,-12.38l-1.93 -0.66c-22.13,-9.06 -43.69,-16.1 -65,-22.21l-6.93 -2.29c-6.68,-1.81 -13.36,-3.53 -19.96,-4.96l-277.23 161.09c8.98,2.06 17.79,4.76 26.64,7.3 21.35,6.11 42.86,13.24 65.24,22.21 9.19,3.98 18.44,8.28 27.87,12.58 5.2,2.51 10.53,4.63 15.65,7.05 15.08,7.46 30.29,15.5 45.58,24.35 19.95,11.46 39.91,24.38 59.62,37.86 6.27,4.31 12.62,9.3 19.06,13.97 13.19,9.39 26.1,18.94 38.81,29.15 7.25,5.9 14.26,11.75 21.88,18.03 11.56,9.95 23.11,19.95 34.79,30.48 7.06,6.56 14.18,13.03 21.31,19.84 8.85,8.53 17.59,17.46 26.31,26.31 14.18,14.38 28.03,29.26 41.72,44.58 7.83,8.86 15.78,17.42 23.36,26.51 8.65,9.89 16.81,19.96 24.96,30.17 9.29,11.56 18.73,23.36 27.66,35.36 6.02,8.08 11.92,15.99 17.7,24.06 10.53,14.64 20.86,29.47 30.82,44.55 4.09,5.9 7.95,11.8 12.05,17.82 13.6,20.95 26.76,42.3 39.22,63.94 2.3,3.89 4.34,7.83 6.72,11.67 10.28,18.4 20.29,36.85 29.92,55.45 3.14,6.35 6.35,12.63 9.63,18.93 9.74,19.96 19.37,40.29 28.35,60.57l3.6 7.71c9.68,22.71 18.86,45.49 27.46,68.36 2.75,7.04 5.13,14.09 7.59,21.01 5.77,16.65 11.48,33.08 16.68,49.88 2.7,8.61 5.45,17.21 7.95,25.86 4.18,14.84 8.02,29.59 11.67,44.34 2.71,10.66 5.66,21.31 7.72,31.96 2.57,11.44 4.62,22.79 7,34.35 3.07,16.56 6.02,33.11 8.53,49.55 2.04,15.2 3.97,30.15 5.45,45.15 0.56,7.26 1.59,14.59 2.12,21.89 1.52,23.24 2.87,46.39 2.75,69.06 -0.58,196.62 -69.87,335.17 -181.88,400.25z"/>
   <path class="fil1" d="M12146.05 18979.45c-268.93,-155.12 -501.85,-112.45 -616.85,79.37 -138.43,-223.26 -321.13,-416.36 -522.01,-532.33 -433.29,-250.02 -785.37,-49.46 -786.84,448.2 -1.02,385.22 208.63,834.66 504.28,1134.6l248.3 200.59c2.82,1.82 8.52,5.21 15.53,9.39 17.21,9.76 41.83,23.49 50.57,28.36 95.36,55.2 1908.6,1104.11 1952.03,1129.27 45.57,26.23 89.99,45.82 132.74,59.63 282.03,92.2 492.71,-73.69 493.74,-417.14 1.14,-396.21 -277.61,-879.25 -622.41,-1078.37 -63.16,-36.53 -123.81,-60.33 -180.98,-73.49 -74.25,-388.57 -344.57,-801.09 -668.1,-988.08z"/>
  </g>
  <g id="_2064064408976">
   <path class="fil0" d="M8849.61 17774.94l277.47 -161.13c-2.37,-3.6 -4.62,-7.22 -6.88,-10.82 -12.79,1.23 -25.25,3.12 -37.58,5.37 -3.93,0.82 -7.91,1.85 -12.01,2.87 -13.03,3.08 -25.74,6.68 -38.19,10.98 -3.78,1.39 -7.62,2.51 -11.35,4.1 -14.88,5.74 -29.8,12.58 -43.56,20.49l-1.81 1.02c0.61,-0.32 1.19,-0.65 1.81,-1.02l124.37 -72.21c-5.82,-8.72 -11.72,-17.33 -17.66,-26.1 -4.64,-6.81 -9.18,-13.69 -13.61,-20.37l-3.16 -4.79c-16.47,-22.99 -33.1,-45.78 -50.24,-67.91l-2.17 -2.95 -0.2 -0.09 -7.26 -8.85c-17.7,-22.82 -36.06,-45.41 -54.67,-66.79l-1.34 -1.4 -5.91 -6.68c-22.79,-25.61 -45.94,-50.2 -69.63,-74.01l-9.17 -10c-8.48,-8.48 -17.71,-16.31 -26.44,-24.51 -8.6,-8.48 -17.58,-16.88 -26.76,-25.03 -13.61,-12.26 -27.54,-23.82 -41.35,-35.36 -8.85,-7.38 -17.5,-14.76 -26.23,-21.69 -15.61,-12.34 -31.5,-23.69 -47.37,-35.04 -7.38,-5.45 -14.87,-11.1 -22.33,-16.31 -23.49,-16.23 -47.55,-31.39 -71.67,-45.36 -24.06,-13.94 -48.07,-26.1 -71.68,-37.21 -6.35,-3.04 -12.38,-5.78 -18.69,-8.61 -6.6,-2.83 -12.95,-6.11 -19.5,-8.73 -16.23,-6.8 -32.22,-12.78 -47.99,-18.24l-4.64 -1.35c-13.15,-4.55 -26.76,-8.77 -39.59,-12.29 -5.77,-1.55 -11.56,-2.25 -17.21,-3.73 -11.03,-2.59 -21.55,-4.88 -32.2,-6.8 -6.49,-1.24 -13.17,-3.28 -19.64,-4.19 -7.26,-1.23 -14.71,-1.47 -22.13,-2.25 -7.66,-0.94 -15.74,-1.85 -23.32,-2.29 -4.54,-0.34 -8.64,-1.23 -13.07,-1.36 -4.22,-0.2 -8.48,-0.24 -12.7,-0.24 -8.25,0 -16.44,0.24 -24.47,0.49 -1.03,0.04 -2.05,0.08 -3.12,0.08 -0.94,0 -1.83,-0.04 -2.79,-0.04 -0.89,0 -1.8,-0.04 -2.69,-0.04 -1.03,0 -2.09,0.04 -3.08,0.08l-2.95 0.13c-16.23,1.02 -32.08,2.82 -47.42,5.44l-7.25 1.69c-4.96,1.02 -9.5,2.17 -13.93,3.32 -7.58,1.8 -15.41,3.15 -22.91,5.2 -6.8,2.05 -13.24,4.76 -19.96,7.13 -4.51,1.6 -9.3,3.07 -13.72,4.79l-7.59 2.71c-13.73,5.66 -26.42,12.01 -39.34,19.14l-4.35 2.5c-92.6,53.65 -184.77,107.49 -277.44,161.14 16.44,-9.43 34.02,-17.46 51.6,-24.39 4.3,-1.72 8.81,-3.03 13.04,-4.5 14.05,-5.01 28.44,-9.31 43.32,-12.59 4.62,-1.15 9.17,-2.3 13.96,-3.19 18.57,-3.61 38.08,-6.11 57.91,-7.38l11.02 0c5.42,-0.16 10.83,-0.25 16.28,-0.25 11.43,0 22.94,0.37 34.63,1.15 7.57,0.58 15.2,1.47 23.1,2.38 13.73,1.72 27.71,3.84 41.97,6.47 10.33,1.93 21.11,4.23 31.63,6.81 19.07,4.63 38.33,9.63 57.96,16.23l3.39 1.02c22.21,7.7 45,16.89 67.83,27.09 6.1,2.7 12.58,5.65 18.68,8.61 23.82,11.1 47.63,23.23 71.88,37.33 24.06,13.8 47.88,29.01 71.6,45.12 7.7,5.32 15.29,11.22 22.99,16.76 15.78,11.35 31.32,22.46 46.59,34.46 9.11,7.18 17.7,14.88 26.77,22.38 13.73,11.19 27.2,22.78 40.82,34.79 9.17,8.16 18.15,16.88 27.33,25.41 11.68,11.22 23.36,22.54 35.04,34.09 23.81,24.06 47.29,48.77 70.07,74.76l6.69 7.37c19.29,22.22 37.98,45.24 56.47,68.84l6.01 7.14 2.51 3.48c18.03,23.48 35.61,47.54 52.7,71.92 4.55,6.68 8.98,13.49 13.52,20.17 14.72,21.67 29.14,43.43 42.96,65.64z"/>
   <path class="fil0" d="M10134.55 18683.65l277.23 -161.09c-1.47,-8.65 -3.27,-17.26 -5.2,-25.77 -1.48,-7.14 -3.6,-14.51 -5.24,-21.65 -3.16,-14.42 -6.68,-28.56 -10.54,-42.99 -1.47,-5.07 -2.36,-10.2 -3.72,-15.19 -2.05,-7.26 -4.55,-14.51 -6.8,-21.64 -3.16,-11.35 -6.56,-22.59 -10.08,-33.82 -1.85,-5.32 -3.08,-10.28 -4.75,-15.4 -2.76,-8.29 -6.16,-16.56 -8.98,-24.84 -3.16,-9.42 -6.56,-18.81 -10.09,-28.23 -1.72,-4.06 -2.87,-8.15 -4.54,-12.01 -4.18,-11.35 -8.94,-22.58 -13.61,-33.56 -3.07,-7.46 -5.91,-14.88 -8.94,-22.01l-2.62 -6.56c-8.73,-20.2 -17.9,-40.15 -27.45,-60.11 -9.52,-19.72 -19.51,-39.35 -29.92,-58.85l-3.53 -6.11c-3.84,-7.38 -8.02,-14.51 -12.12,-21.81 -5.45,-10.08 -11.03,-20.41 -16.88,-30.48 -2.3,-3.94 -4.77,-8.04 -7.38,-12.01 -4.88,-8.28 -10,-16.55 -15.21,-24.84 -4.42,-7.13 -8.73,-14.51 -13.16,-21.75 -3.73,-5.58 -7.57,-10.99 -11.35,-16.56 -5.53,-8.85 -11.56,-17.7 -17.46,-26.44 -3.97,-5.53 -7.49,-11.22 -11.22,-16.76 -4.31,-6.02 -8.85,-11.8 -13.28,-17.82 -7.34,-10.21 -14.71,-20.17 -22.21,-30.17 -3.48,-4.62 -7.01,-9.5 -10.53,-14.14 -3.98,-5.04 -8.29,-9.79 -12.13,-14.86 -10.08,-12.59 -20.2,-25.09 -30.61,-37.31 -4.31,-5.12 -8.53,-10.57 -12.71,-15.53l-8.48 -9.17c-20.54,-23.16 -41.31,-45.61 -62.74,-66.8l-3.29 -3.28 -0.57 -0.61c-7.83,-7.91 -16.06,-15.29 -24.25,-22.79 -10.33,-9.63 -20.41,-19.46 -30.74,-28.57 -9.51,-8.4 -19.26,-16.1 -28.89,-24.01 -9.43,-7.7 -18.53,-15.9 -28.24,-23.28 -10,-7.9 -20.66,-15.16 -31.11,-22.65 -9.05,-6.6 -18.23,-13.73 -27.42,-19.97 -19.95,-13.48 -40.03,-26.1 -60.32,-37.66 -21.18,-12.45 -42.17,-22.99 -63.02,-32.74 -5.45,-2.75 -11.11,-5.25 -16.55,-7.7 -5.91,-2.51 -11.69,-5.46 -17.38,-7.96 -14.3,-5.9 -28.11,-11.1 -42.05,-15.77l-3.15 -1.02c-11.85,-3.94 -23.74,-7.71 -35.29,-10.87 -5.24,-1.52 -10.2,-2.04 -15.45,-3.27 -9.51,-2.3 -18.81,-4.35 -28.2,-6.03 -5.57,-1.02 -11.67,-2.82 -17.38,-3.65 -6.43,-1.15 -12.58,-1.23 -19.05,-1.88 -7.13,-0.94 -14.05,-1.64 -20.73,-2.06 -3.73,-0.24 -7.59,-0.94 -11.24,-1.13 -3.48,-0.17 -6.95,-0.25 -10.4,-0.25 -7.54,0 -14.96,0.28 -22.33,0.44l-10.33 0.13 -2.75 0c-13.93,0.91 -27.87,2.58 -41.39,4.88l-6.68 1.47c-4.1,0.9 -8.27,2.05 -12.45,2.96 -6.81,1.47 -13.17,2.7 -19.52,4.54 -6.23,1.81 -12,4.18 -18.03,6.35 -3.84,1.36 -8.07,2.58 -12,4.18l-6.35 2.39c-12.18,4.99 -23.74,10.65 -34.96,16.92l-3.61 2.25 -151.3 87.86c3.77,5.66 7.5,11.32 11.14,17.14 2.47,3.72 4.8,7.49 7.18,11.26 4.42,-0.4 8.84,-0.74 13.36,-0.94l10.07 -0.13c4.88,-0.2 9.76,-0.29 14.68,-0.29 9.84,0 19.76,0.38 29.79,0.96 6.68,0.69 13.61,1.39 20.29,2.17 12.13,1.35 24.26,3.27 36.76,5.64 9.26,1.61 18.68,3.78 28.23,5.91 16.65,4.1 33.32,8.41 50.78,14.31l2.95 0.89c19.63,6.73 39.34,14.88 59.51,23.73 5.37,2.46 10.9,4.96 16.67,7.58 20.65,9.97 41.76,20.54 63.19,32.75 19.93,11.8 40.24,24.38 59.96,37.9 7.26,4.76 14.18,10.29 21.31,15.42 12.5,8.85 25.2,17.57 37.42,27.09 8.72,6.92 17.37,14.38 26.1,21.54 10.2,8.48 20.66,16.77 30.94,25.62 8.85,7.95 17.46,16.55 26.44,24.71 9.55,8.98 19.13,17.59 28.68,26.89l3.08 3.07c21.63,21.56 42.62,44.22 63.35,67.57 7.04,8.04 13.98,16.36 21.11,24.51 10.33,12.26 20.28,24.59 30.37,37.18 7.81,9.63 15.64,19.5 23.15,29.37 7.38,9.96 14.75,20.09 22.08,30.17 8.16,11.22 16.23,22.54 24.19,34.26 6.1,8.8 12,17.78 18.11,26.85 8.19,12.48 16.23,25.19 23.97,37.85 5.16,8.4 10.41,16.81 15.49,25.29 8.32,13.85 16.15,27.79 24.06,41.96 4.05,7.26 8.28,14.88 12.25,22.21 23.11,43 44.34,86.88 63.36,131.11 3.31,7.7 6.35,15.4 9.34,23.1 6.11,14.88 12.13,29.72 17.78,44.8 3.62,9.55 7.01,19.3 10.54,28.93 4.54,12.91 9.1,26.06 13.15,39.09 3.78,11.69 7.26,23.41 10.65,35.05 3.53,11.92 6.81,23.8 10.01,35.61 3.93,14.96 7.45,29.71 10.98,44.66 3.52,15.45 7.38,30.87 10.2,46.27z"/>
   <path class="fil0" d="M10756.07 20235.76c92.53,-53.76 184.7,-107.49 277.32,-161.14 111.91,-65.2 181.33,-203.62 181.66,-400.26 0.13,-22.78 -0.78,-45.93 -2.7,-69.05 -0.45,-7.25 -1.39,-14.54 -2.17,-21.88 -0.9,-10.33 -1.68,-20.77 -2.83,-31.31 -0.82,-4.55 -2.05,-9.3 -2.5,-13.93 -2.38,-16.35 -5.33,-32.87 -8.61,-49.46 -1.35,-7.83 -2.37,-15.53 -4.1,-23.25 -0.65,-3.73 -1.67,-7.37 -2.5,-11.1 -2.37,-10.65 -5.2,-21.19 -7.91,-31.88 -2.41,-9.51 -4.42,-19.14 -7.04,-28.69 -1.47,-5.32 -3.28,-10.61 -4.88,-15.99 -2.38,-8.48 -5.2,-16.87 -7.58,-25.24 -2.5,-7.49 -4.43,-15 -7.05,-22.58 -2.95,-9.18 -6.55,-18.6 -9.88,-27.9 -2.46,-6.81 -4.96,-13.82 -7.57,-20.74l-3.74 -10.33c-7.12,-18.8 -14.75,-37.41 -22.78,-56.14l-1.02 -2.04 -3.08 -6.68c-6.68,-15.29 -13.61,-30.5 -20.74,-45.46 -2.74,-5.45 -5.45,-10.9 -8.15,-16.23 -3.2,-6.14 -6.39,-12.33 -9.42,-18.35 -3.2,-6.15 -6.23,-12.39 -9.31,-18.48 -6.92,-12.83 -13.93,-25.29 -21.19,-37.87l-6.01 -10.9 -2.18 -3.86c-10.41,-17.78 -21.19,-35.49 -32.29,-52.95l-5.01 -7.7c-3.73,-5.69 -7.7,-11.35 -11.56,-17 -6.59,-9.68 -12.94,-19.64 -19.62,-29.14 -3.85,-5.58 -7.83,-10.78 -11.68,-16.11 -5.9,-7.95 -11.81,-15.65 -17.46,-23.61 -4.22,-5.57 -8.16,-11.22 -12.37,-16.76 -5.21,-6.6 -10.66,-12.61 -15.86,-19.18 -7.96,-9.99 -15.99,-19.83 -24.14,-29.59 -3.78,-4.21 -7.05,-8.72 -10.9,-12.9 -4.1,-5 -8.73,-9.34 -13.03,-14.22 -13.49,-15.04 -27.33,-29.67 -41.27,-43.97 -4.67,-4.63 -8.97,-10 -13.53,-14.43 -4.42,-4.31 -9.06,-8.28 -13.36,-12.33 -6.8,-6.56 -13.92,-13.04 -20.73,-19.39 -11.8,-10.65 -23.61,-20.98 -35.62,-31.06 -7.04,-5.91 -14.05,-11.81 -21.1,-17.58 -13.03,-10.33 -26.3,-20.2 -39.55,-29.72 -6.27,-4.54 -12.17,-9.3 -18.6,-13.6 -19.76,-13.4 -39.59,-26.1 -59.67,-37.74 -15.29,-8.85 -30.61,-17.05 -45.69,-24.51 -4.76,-2.26 -9.38,-4.09 -14.05,-6.47 -9.31,-4.18 -18.49,-8.61 -27.42,-12.37l-1.93 -0.67c-22.13,-9.06 -43.69,-16.1 -64.99,-22.21l-6.94 -2.29c-6.68,-1.81 -13.36,-3.53 -19.96,-4.96l-277.23 161.09c8.98,2.06 17.79,4.76 26.64,7.3 21.35,6.11 42.87,13.24 65.24,22.21 9.19,3.98 18.45,8.28 27.87,12.58 5.2,2.51 10.53,4.63 15.66,7.05 15.08,7.46 30.28,15.5 45.57,24.35 19.96,11.46 39.91,24.38 59.63,37.86 6.26,4.31 12.61,9.3 19.05,13.97 13.19,9.39 26.1,18.94 38.81,29.15 7.25,5.9 14.26,11.75 21.89,18.03 11.55,9.95 23.1,19.95 34.79,30.48 7.05,6.56 14.17,13.03 21.3,19.84 8.85,8.53 17.59,17.46 26.31,26.31 14.19,14.38 28.03,29.26 41.72,44.59 7.83,8.85 15.79,17.41 23.36,26.5 8.65,9.89 16.81,19.96 24.96,30.17 9.3,11.56 18.73,23.36 27.66,35.36 6.02,8.08 11.92,15.99 17.71,24.06 10.52,14.64 20.85,29.47 30.82,44.55 4.08,5.9 7.94,11.8 12.04,17.82 13.6,20.95 26.77,42.3 39.22,63.94 2.3,3.89 4.34,7.83 6.73,11.67 10.28,18.4 20.28,36.85 29.91,55.45 3.15,6.35 6.35,12.63 9.63,18.93 9.74,19.96 19.37,40.29 28.35,60.57l3.61 7.71c9.67,22.71 18.85,45.49 27.46,68.36 2.74,7.04 5.12,14.09 7.58,21.01 5.78,16.65 11.48,33.08 16.68,49.89 2.7,8.6 5.45,17.2 7.95,25.85 4.18,14.84 8.03,29.59 11.67,44.34 2.71,10.66 5.66,21.31 7.72,31.96 2.58,11.44 4.62,22.79 7,34.35 3.07,16.56 6.02,33.11 8.53,49.55 2.04,15.2 3.97,30.15 5.45,45.15 0.57,7.26 1.59,14.59 2.12,21.89 1.53,23.24 2.87,46.39 2.76,69.06 -0.58,196.62 -69.88,335.17 -181.88,400.25z"/>
   <path class="fil1" d="M9466.45 17695.57c-268.93,-155.12 -501.85,-112.45 -616.84,79.37 -138.44,-223.26 -321.13,-416.36 -522.02,-532.33 -433.29,-250.02 -785.36,-49.46 -786.84,448.2 -1.02,385.22 208.64,834.66 504.28,1134.6l248.3 200.59c2.83,1.82 8.52,5.21 15.54,9.39 17.2,9.76 41.83,23.49 50.56,28.36 95.36,55.2 1908.6,1104.11 1952.03,1129.27 45.58,26.23 90,45.82 132.75,59.63 282.02,92.2 492.7,-73.69 493.74,-417.14 1.14,-396.21 -277.62,-879.25 -622.42,-1078.37 -63.16,-36.52 -123.81,-60.33 -180.98,-73.49 -74.25,-388.57 -344.57,-801.09 -668.1,-988.08z"/>
  </g>
  <g id="_2064064409168">
   <path class="fil0" d="M8608.76 12040.78l144.2 -83.74c-1.23,-1.87 -2.4,-3.75 -3.57,-5.62 -6.65,0.64 -13.13,1.62 -19.53,2.79 -2.05,0.43 -4.11,0.96 -6.24,1.49 -6.78,1.6 -13.38,3.47 -19.85,5.71 -1.97,0.72 -3.96,1.3 -5.9,2.13 -7.73,2.98 -15.49,6.53 -22.64,10.65l-0.94 0.53c0.32,-0.17 0.62,-0.34 0.94,-0.53l64.64 -37.53c-3.03,-4.53 -6.09,-9.01 -9.19,-13.56 -2.4,-3.54 -4.76,-7.12 -7.06,-10.59l-1.65 -2.49c-8.56,-11.95 -17.2,-23.79 -26.11,-35.29l-1.12 -1.54 -0.11 -0.04 -3.77 -4.6c-9.2,-11.86 -18.74,-23.6 -28.41,-34.71l-0.7 -0.72 -3.07 -3.47c-11.84,-13.32 -23.87,-26.1 -36.18,-38.47l-4.77 -5.19c-4.41,-4.41 -9.2,-8.48 -13.74,-12.74 -4.47,-4.41 -9.13,-8.77 -13.9,-13.01 -7.08,-6.37 -14.32,-12.38 -21.49,-18.38 -4.6,-3.83 -9.1,-7.66 -13.64,-11.27 -8.11,-6.41 -16.37,-12.31 -24.61,-18.2 -3.84,-2.84 -7.73,-5.78 -11.61,-8.48 -12.2,-8.43 -24.71,-16.31 -37.24,-23.57 -12.51,-7.25 -24.99,-13.57 -37.25,-19.34 -3.3,-1.58 -6.44,-3.01 -9.72,-4.47 -3.42,-1.48 -6.73,-3.18 -10.13,-4.54 -8.43,-3.54 -16.74,-6.64 -24.94,-9.48l-2.41 -0.7c-6.83,-2.37 -13.91,-4.56 -20.57,-6.39 -3,-0.81 -6.01,-1.17 -8.95,-1.94 -5.73,-1.34 -11.2,-2.53 -16.73,-3.53 -3.37,-0.64 -6.84,-1.71 -10.2,-2.18 -3.78,-0.64 -7.65,-0.76 -11.5,-1.17 -3.99,-0.49 -8.18,-0.96 -12.13,-1.19 -2.36,-0.17 -4.49,-0.64 -6.79,-0.7 -2.19,-0.11 -4.41,-0.13 -6.6,-0.13 -4.28,0 -8.54,0.13 -12.72,0.25 -0.53,0.03 -1.06,0.04 -1.61,0.04 -0.49,0 -0.96,-0.01 -1.45,-0.01 -0.47,0 -0.94,-0.03 -1.4,-0.03 -0.54,0 -1.09,0.03 -1.6,0.04l-1.54 0.07c-8.43,0.53 -16.67,1.47 -24.64,2.83l-3.77 0.88c-2.57,0.53 -4.93,1.13 -7.23,1.72 -3.95,0.94 -8.02,1.64 -11.91,2.71 -3.54,1.06 -6.88,2.47 -10.38,3.7 -2.34,0.83 -4.83,1.6 -7.13,2.49l-3.94 1.41c-7.13,2.94 -13.73,6.24 -20.44,9.95l-2.26 1.3c-48.13,27.87 -96.02,55.86 -144.18,83.73 8.54,-4.89 17.68,-9.07 26.82,-12.67 2.23,-0.89 4.57,-1.57 6.77,-2.34 7.3,-2.6 14.78,-4.84 22.51,-6.54 2.4,-0.6 4.77,-1.19 7.26,-1.66 9.65,-1.88 19.78,-3.17 30.09,-3.83l5.73 0c2.81,-0.09 5.63,-0.13 8.46,-0.13 5.94,0 11.92,0.19 17.99,0.59 3.94,0.3 7.9,0.77 12.01,1.24 7.14,0.89 14.4,2 21.81,3.36 5.37,1.01 10.97,2.2 16.44,3.54 9.91,2.41 19.91,5.01 30.12,8.43l1.76 0.54c11.54,4 23.39,8.77 35.25,14.07 3.17,1.41 6.54,2.94 9.71,4.48 12.37,5.77 24.75,12.07 37.35,19.4 12.5,7.17 24.88,15.07 37.21,23.45 4,2.76 7.94,5.83 11.94,8.71 8.21,5.9 16.28,11.67 24.22,17.9 4.73,3.73 9.2,7.74 13.91,11.64 7.13,5.81 14.14,11.83 21.21,18.08 4.77,4.23 9.44,8.77 14.21,13.2 6.06,5.83 12.14,11.71 18.2,17.72 12.38,12.5 24.58,25.34 36.42,38.84l3.47 3.84c10.03,11.54 19.74,23.5 29.35,35.77l3.13 3.71 1.3 1.81c9.37,12.2 18.5,24.7 27.38,37.37 2.37,3.47 4.67,7.01 7.03,10.48 7.65,11.27 15.15,22.58 22.32,34.12z"/>
   <path class="fil0" d="M9276.52 12513.01l144.07 -83.71c-0.77,-4.5 -1.7,-8.97 -2.71,-13.4 -0.76,-3.7 -1.87,-7.54 -2.72,-11.24 -1.64,-7.5 -3.47,-14.85 -5.47,-22.35 -0.77,-2.64 -1.24,-5.3 -1.94,-7.89 -1.06,-3.78 -2.36,-7.54 -3.53,-11.25 -1.65,-5.9 -3.41,-11.74 -5.24,-17.57 -0.96,-2.77 -1.6,-5.35 -2.47,-8.01 -1.43,-4.3 -3.2,-8.6 -4.67,-12.9 -1.64,-4.9 -3.4,-9.78 -5.24,-14.67 -0.89,-2.12 -1.49,-4.24 -2.36,-6.25 -2.17,-5.89 -4.65,-11.73 -7.07,-17.44 -1.6,-3.87 -3.07,-7.73 -4.65,-11.44l-1.36 -3.4c-4.54,-10.5 -9.3,-20.87 -14.27,-31.24 -4.94,-10.25 -10.13,-20.45 -15.54,-30.59l-1.84 -3.17c-1.99,-3.83 -4.17,-7.54 -6.3,-11.33 -2.83,-5.24 -5.73,-10.61 -8.77,-15.84 -1.2,-2.05 -2.48,-4.18 -3.83,-6.24 -2.54,-4.31 -5.2,-8.61 -7.91,-12.91 -2.3,-3.71 -4.54,-7.54 -6.84,-11.31 -1.93,-2.9 -3.93,-5.71 -5.89,-8.6 -2.88,-4.6 -6.01,-9.2 -9.08,-13.74 -2.06,-2.87 -3.89,-5.83 -5.83,-8.71 -2.24,-3.13 -4.6,-6.14 -6.9,-9.26 -3.81,-5.31 -7.65,-10.48 -11.54,-15.68 -1.81,-2.4 -3.65,-4.94 -5.48,-7.35 -2.06,-2.62 -4.3,-5.09 -6.3,-7.72 -5.24,-6.54 -10.5,-13.04 -15.91,-19.39 -2.24,-2.66 -4.43,-5.49 -6.6,-8.07l-4.41 -4.77c-10.67,-12.03 -21.46,-23.7 -32.6,-34.71l-1.71 -1.7 -0.3 -0.32c-4.07,-4.11 -8.35,-7.95 -12.6,-11.85 -5.37,-5 -10.61,-10.11 -15.98,-14.84 -4.94,-4.37 -10,-8.37 -15.01,-12.48 -4.9,-4 -9.63,-8.26 -14.67,-12.1 -5.2,-4.1 -10.74,-7.88 -16.17,-11.77 -4.7,-3.43 -9.47,-7.14 -14.25,-10.38 -10.37,-7 -20.8,-13.56 -31.35,-19.57 -11,-6.47 -21.91,-11.95 -32.75,-17.01 -2.83,-1.43 -5.77,-2.73 -8.6,-4 -3.07,-1.31 -6.07,-2.84 -9.03,-4.14 -7.43,-3.06 -14.61,-5.77 -21.85,-8.2l-1.64 -0.53c-6.16,-2.04 -12.33,-4 -18.34,-5.64 -2.72,-0.79 -5.3,-1.06 -8.03,-1.7 -4.94,-1.2 -9.77,-2.26 -14.65,-3.14 -2.9,-0.53 -6.07,-1.46 -9.03,-1.89 -3.35,-0.6 -6.54,-0.64 -9.9,-0.98 -3.71,-0.49 -7.31,-0.85 -10.78,-1.07 -1.94,-0.13 -3.94,-0.49 -5.84,-0.59 -1.81,-0.09 -3.61,-0.13 -5.41,-0.13 -3.91,0 -7.76,0.15 -11.6,0.23l-5.36 0.07 -1.44 0c-7.23,0.47 -14.48,1.34 -21.5,2.53l-3.48 0.77c-2.13,0.46 -4.29,1.06 -6.47,1.53 -3.54,0.77 -6.84,1.41 -10.14,2.36 -3.24,0.95 -6.24,2.18 -9.37,3.31 -2,0.7 -4.19,1.34 -6.23,2.17l-3.31 1.24c-6.32,2.59 -12.33,5.53 -18.16,8.79l-1.88 1.17 -78.62 45.66c1.95,2.94 3.89,5.88 5.79,8.9 1.28,1.94 2.49,3.9 3.73,5.86 2.29,-0.21 4.59,-0.39 6.94,-0.49l5.23 -0.06c2.54,-0.11 5.07,-0.16 7.63,-0.16 5.11,0 10.27,0.2 15.48,0.5 3.47,0.36 7.07,0.72 10.54,1.13 6.31,0.7 12.61,1.7 19.11,2.93 4.81,0.84 9.71,1.96 14.67,3.07 8.65,2.13 17.31,4.37 26.39,7.44l1.53 0.46c10.2,3.5 20.45,7.73 30.93,12.33 2.79,1.28 5.66,2.58 8.66,3.94 10.73,5.18 21.7,10.67 32.84,17.02 10.35,6.13 20.91,12.67 31.16,19.7 3.77,2.47 7.37,5.35 11.07,8.01 6.5,4.6 13.1,9.13 19.45,14.08 4.53,3.59 9.02,7.47 13.56,11.19 5.3,4.41 10.74,8.71 16.08,13.31 4.6,4.13 9.07,8.61 13.74,12.85 4.96,4.66 9.94,9.14 14.9,13.97l1.6 1.59c11.24,11.21 22.15,22.99 32.93,35.12 3.66,4.18 7.26,8.5 10.97,12.74 5.36,6.37 10.54,12.78 15.78,19.32 4.06,5 8.13,10.13 12.03,15.26 3.83,5.18 7.67,10.44 11.48,15.68 4.23,5.83 8.43,11.71 12.56,17.8 3.17,4.58 6.24,9.25 9.42,13.96 4.25,6.48 8.43,13.09 12.46,19.67 2.68,4.36 5.4,8.73 8.04,13.14 4.33,7.2 8.39,14.44 12.51,21.81 2.1,3.77 4.3,7.73 6.36,11.54 12.01,22.34 23.05,45.15 32.93,68.13 1.72,4 3.3,8.01 4.85,12.01 3.18,7.73 6.31,15.44 9.24,23.28 1.88,4.96 3.65,10.03 5.48,15.03 2.36,6.71 4.73,13.54 6.83,20.32 1.97,6.07 3.78,12.16 5.54,18.21 1.84,6.2 3.54,12.37 5.2,18.5 2.04,7.78 3.87,15.45 5.71,23.22 1.83,8.03 3.83,16.04 5.3,24.04z"/>
   <path class="fil0" d="M9599.5 13319.6c48.09,-27.94 95.99,-55.86 144.12,-83.74 58.16,-33.88 94.24,-105.82 94.4,-208 0.07,-11.84 -0.4,-23.87 -1.4,-35.89 -0.23,-3.76 -0.72,-7.55 -1.12,-11.37 -0.48,-5.37 -0.88,-10.79 -1.48,-16.27 -0.42,-2.36 -1.06,-4.83 -1.3,-7.24 -1.23,-8.5 -2.77,-17.08 -4.47,-25.7 -0.7,-4.07 -1.23,-8.07 -2.13,-12.08 -0.34,-1.94 -0.87,-3.83 -1.3,-5.77 -1.23,-5.54 -2.7,-11.01 -4.11,-16.57 -1.25,-4.94 -2.3,-9.95 -3.66,-14.91 -0.76,-2.76 -1.71,-5.51 -2.53,-8.31 -1.24,-4.4 -2.71,-8.77 -3.94,-13.11 -1.3,-3.9 -2.3,-7.8 -3.67,-11.74 -1.53,-4.77 -3.4,-9.66 -5.13,-14.5 -1.28,-3.54 -2.58,-7.18 -3.94,-10.78l-1.94 -5.36c-3.7,-9.78 -7.67,-19.45 -11.84,-29.18l-0.53 -1.06 -1.6 -3.47c-3.47,-7.95 -7.07,-15.85 -10.78,-23.62 -1.42,-2.84 -2.83,-5.67 -4.23,-8.44 -1.66,-3.19 -3.32,-6.41 -4.9,-9.54 -1.66,-3.19 -3.24,-6.43 -4.83,-9.6 -3.6,-6.66 -7.24,-13.14 -11.02,-19.68l-3.12 -5.66 -1.13 -2.01c-5.41,-9.24 -11.01,-18.44 -16.78,-27.51l-2.61 -4.01c-1.93,-2.95 -4,-5.89 -6,-8.83 -3.43,-5.03 -6.73,-10.21 -10.2,-15.14 -2,-2.9 -4.07,-5.61 -6.07,-8.38 -3.07,-4.13 -6.14,-8.13 -9.08,-12.26 -2.19,-2.9 -4.23,-5.84 -6.43,-8.72 -2.7,-3.42 -5.53,-6.55 -8.24,-9.96 -4.13,-5.19 -8.3,-10.31 -12.54,-15.38 -1.96,-2.19 -3.66,-4.53 -5.66,-6.7 -2.13,-2.6 -4.54,-4.86 -6.78,-7.39 -7,-7.82 -14.2,-15.42 -21.44,-22.85 -2.43,-2.41 -4.67,-5.2 -7.03,-7.5 -2.3,-2.24 -4.71,-4.31 -6.94,-6.41 -3.54,-3.41 -7.24,-6.78 -10.78,-10.08 -6.13,-5.53 -12.27,-10.9 -18.51,-16.14 -3.66,-3.07 -7.3,-6.13 -10.97,-9.13 -6.77,-5.37 -13.67,-10.5 -20.55,-15.45 -3.26,-2.36 -6.32,-4.83 -9.66,-7.07 -10.27,-6.96 -20.58,-13.56 -31.01,-19.61 -7.95,-4.6 -15.91,-8.86 -23.75,-12.74 -2.47,-1.17 -4.87,-2.12 -7.3,-3.36 -4.84,-2.17 -9.61,-4.47 -14.25,-6.43l-1 -0.34c-11.5,-4.71 -22.7,-8.37 -33.78,-11.55l-3.6 -1.18c-3.47,-0.95 -6.94,-1.84 -10.37,-2.58l-144.07 83.71c4.67,1.07 9.24,2.48 13.84,3.79 11.1,3.18 22.28,6.88 33.9,11.54 4.78,2.08 9.59,4.31 14.49,6.54 2.7,1.31 5.47,2.41 8.13,3.67 7.84,3.87 15.74,8.05 23.69,12.65 10.37,5.96 20.74,12.67 30.98,19.67 3.26,2.24 6.56,4.84 9.9,7.27 6.86,4.87 13.57,9.84 20.17,15.14 3.77,3.07 7.42,6.11 11.38,9.37 6,5.18 12,10.37 18.08,15.84 3.66,3.41 7.36,6.78 11.07,10.31 4.6,4.43 9.14,9.08 13.67,13.68 7.37,7.47 14.57,15.2 21.68,23.17 4.07,4.6 8.2,9.05 12.14,13.77 4.5,5.14 8.74,10.37 12.97,15.68 4.83,6.01 9.74,12.14 14.38,18.38 3.13,4.19 6.19,8.3 9.2,12.5 5.47,7.61 10.83,15.31 16.01,23.15 2.13,3.07 4.13,6.13 6.26,9.26 7.07,10.89 13.91,21.98 20.38,33.23 1.2,2.02 2.26,4.07 3.5,6.06 5.34,9.57 10.54,19.15 15.54,28.82 1.64,3.3 3.31,6.56 5.01,9.84 5.06,10.37 10.07,20.93 14.74,31.47l1.87 4.01c5.03,11.8 9.79,23.64 14.27,35.52 1.42,3.66 2.66,7.33 3.94,10.92 3,8.66 5.96,17.19 8.67,25.93 1.4,4.47 2.83,8.94 4.13,13.43 2.17,7.71 4.17,15.38 6.07,23.05 1.4,5.53 2.94,11.07 4,16.61 1.34,5.94 2.41,11.84 3.64,17.85 1.6,8.6 3.13,17.2 4.43,25.74 1.07,7.91 2.07,15.67 2.84,23.47 0.29,3.77 0.82,7.58 1.1,11.37 0.79,12.08 1.49,24.11 1.43,35.89 -0.3,102.18 -36.31,174.18 -94.52,208z"/>
   <path class="fil1" d="M8929.32 11999.53c-139.75,-80.61 -260.8,-58.44 -320.56,41.25 -71.94,-116.02 -166.88,-216.37 -271.27,-276.64 -225.17,-129.93 -408.14,-25.71 -408.9,232.92 -0.54,200.19 108.42,433.75 262.06,589.62l129.03 104.24c1.47,0.94 4.43,2.71 8.07,4.88 8.95,5.07 21.74,12.21 26.28,14.74 49.56,28.68 991.85,573.78 1014.42,586.85 23.69,13.63 46.77,23.81 68.99,30.99 146.56,47.91 256.04,-38.29 256.58,-216.78 0.59,-205.9 -144.27,-456.92 -323.45,-560.4 -32.83,-18.98 -64.34,-31.35 -94.05,-38.19 -38.59,-201.93 -179.07,-416.31 -347.2,-513.48z"/>
  </g>
  <g id="_2064064407088">
   <path class="fil0" d="M10806.75 11502.7l87.83 -51c-0.75,-1.14 -1.47,-2.29 -2.18,-3.43 -4.05,0.39 -7.99,0.99 -11.89,1.7 -1.25,0.26 -2.51,0.59 -3.81,0.91 -4.12,0.98 -8.15,2.12 -12.09,3.48 -1.19,0.44 -2.41,0.79 -3.59,1.29 -4.71,1.82 -9.43,3.99 -13.79,6.49l-0.57 0.32c0.19,-0.1 0.38,-0.2 0.57,-0.32l39.37 -22.86c-1.84,-2.76 -3.71,-5.48 -5.59,-8.26 -1.47,-2.15 -2.91,-4.33 -4.31,-6.44l-1 -1.52c-5.21,-7.28 -10.48,-14.49 -15.9,-21.5l-0.69 -0.93 -0.06 -0.03 -2.3 -2.8c-5.6,-7.23 -11.41,-14.38 -17.3,-21.15l-0.43 -0.44 -1.87 -2.11c-7.21,-8.11 -14.54,-15.89 -22.04,-23.43l-2.9 -3.16c-2.69,-2.69 -5.61,-5.17 -8.37,-7.76 -2.72,-2.69 -5.57,-5.35 -8.47,-7.93 -4.31,-3.88 -8.72,-7.54 -13.09,-11.19 -2.8,-2.34 -5.54,-4.67 -8.31,-6.87 -4.94,-3.9 -9.97,-7.49 -14.99,-11.09 -2.34,-1.72 -4.71,-3.51 -7.07,-5.16 -7.43,-5.14 -15.05,-9.93 -22.69,-14.36 -7.61,-4.41 -15.21,-8.26 -22.68,-11.78 -2.02,-0.96 -3.92,-1.83 -5.92,-2.72 -2.09,-0.9 -4.1,-1.94 -6.18,-2.77 -5.13,-2.15 -10.19,-4.04 -15.19,-5.77l-1.46 -0.43c-4.17,-1.44 -8.48,-2.77 -12.53,-3.89 -1.83,-0.49 -3.66,-0.71 -5.45,-1.18 -3.49,-0.82 -6.83,-1.54 -10.2,-2.15 -2.05,-0.39 -4.16,-1.04 -6.21,-1.33 -2.3,-0.39 -4.66,-0.46 -7.01,-0.71 -2.42,-0.3 -4.98,-0.58 -7.38,-0.72 -1.44,-0.11 -2.74,-0.39 -4.14,-0.43 -1.33,-0.07 -2.68,-0.08 -4.02,-0.08 -2.61,0 -5.2,0.08 -7.74,0.15 -0.33,0.02 -0.65,0.03 -0.99,0.03 -0.3,0 -0.58,-0.01 -0.88,-0.01 -0.29,0 -0.57,-0.02 -0.86,-0.02 -0.32,0 -0.66,0.02 -0.97,0.03l-0.93 0.04c-5.14,0.32 -10.16,0.89 -15.01,1.72l-2.3 0.54c-1.57,0.32 -3.01,0.69 -4.41,1.05 -2.4,0.57 -4.88,1 -7.25,1.65 -2.15,0.64 -4.19,1.5 -6.32,2.25 -1.43,0.51 -2.94,0.98 -4.34,1.52l-2.4 0.86c-4.35,1.79 -8.37,3.8 -12.46,6.06l-1.37 0.79c-29.32,16.98 -58.49,34.02 -87.83,51 5.21,-2.98 10.77,-5.52 16.34,-7.72 1.36,-0.54 2.79,-0.96 4.12,-1.42 4.45,-1.59 9.01,-2.95 13.72,-3.98 1.46,-0.37 2.9,-0.73 4.42,-1.02 5.88,-1.14 12.05,-1.93 18.33,-2.33l3.49 0c1.71,-0.05 3.42,-0.08 5.15,-0.08 3.62,0 7.26,0.12 10.96,0.36 2.4,0.19 4.81,0.47 7.31,0.76 4.35,0.54 8.77,1.21 13.29,2.04 3.27,0.61 6.68,1.34 10.01,2.16 6.04,1.47 12.13,3.05 18.35,5.14l1.07 0.32c7.03,2.44 14.25,5.35 21.47,8.57 1.93,0.86 3.99,1.8 5.92,2.73 7.53,3.52 15.07,7.35 22.75,11.82 7.62,4.37 15.15,9.18 22.66,14.28 2.44,1.68 4.84,3.55 7.28,5.31 5,3.59 9.91,7.1 14.75,10.9 2.88,2.28 5.6,4.71 8.47,7.09 4.35,3.54 8.61,7.21 12.92,11.01 2.91,2.58 5.75,5.34 8.65,8.04 3.7,3.56 7.4,7.14 11.09,10.8 7.54,7.61 14.97,15.43 22.19,23.66l2.11 2.33c6.11,7.03 12.03,14.32 17.88,21.79l1.9 2.26 0.8 1.11c5.7,7.43 11.27,15.04 16.68,22.76 1.44,2.12 2.84,4.27 4.28,6.38 4.66,6.87 9.22,13.75 13.6,20.78z"/>
   <path class="fil0" d="M11213.49 11790.35l87.75 -50.99c-0.46,-2.74 -1.03,-5.47 -1.65,-8.16 -0.46,-2.26 -1.13,-4.59 -1.65,-6.85 -1,-4.57 -2.12,-9.04 -3.34,-13.61 -0.47,-1.61 -0.75,-3.23 -1.18,-4.81 -0.65,-2.3 -1.44,-4.59 -2.15,-6.85 -1,-3.59 -2.08,-7.15 -3.19,-10.71 -0.59,-1.68 -0.98,-3.25 -1.51,-4.87 -0.87,-2.62 -1.94,-5.24 -2.84,-7.86 -1,-2.98 -2.07,-5.96 -3.19,-8.94 -0.54,-1.29 -0.91,-2.58 -1.44,-3.8 -1.32,-3.59 -2.83,-7.15 -4.31,-10.62 -0.97,-2.36 -1.87,-4.71 -2.83,-6.97l-0.83 -2.08c-2.76,-6.39 -5.66,-12.71 -8.69,-19.03 -3.01,-6.24 -6.17,-12.45 -9.46,-18.62l-1.12 -1.94c-1.22,-2.33 -2.54,-4.59 -3.84,-6.9 -1.73,-3.19 -3.49,-6.46 -5.34,-9.65 -0.73,-1.25 -1.51,-2.54 -2.34,-3.8 -1.54,-2.62 -3.16,-5.24 -4.81,-7.86 -1.4,-2.26 -2.77,-4.6 -4.17,-6.89 -1.18,-1.77 -2.4,-3.48 -3.59,-5.24 -1.75,-2.8 -3.66,-5.6 -5.53,-8.37 -1.26,-1.75 -2.37,-3.55 -3.55,-5.31 -1.36,-1.9 -2.8,-3.73 -4.2,-5.64 -2.33,-3.23 -4.66,-6.38 -7.03,-9.55 -1.11,-1.46 -2.22,-3 -3.34,-4.47 -1.26,-1.6 -2.62,-3.1 -3.84,-4.71 -3.19,-3.98 -6.39,-7.94 -9.69,-11.81 -1.36,-1.62 -2.7,-3.34 -4.02,-4.91l-2.68 -2.91c-6.51,-7.32 -13.08,-14.43 -19.86,-21.14l-1.05 -1.04 -0.18 -0.19c-2.47,-2.51 -5.08,-4.84 -7.67,-7.22 -3.27,-3.04 -6.46,-6.16 -9.73,-9.04 -3.01,-2.66 -6.1,-5.1 -9.15,-7.6 -2.98,-2.44 -5.86,-5.03 -8.94,-7.37 -3.16,-2.5 -6.54,-4.8 -9.84,-7.17 -2.87,-2.09 -5.77,-4.35 -8.68,-6.32 -6.32,-4.27 -12.67,-8.26 -19.1,-11.92 -6.7,-3.94 -13.35,-7.28 -19.95,-10.36 -1.72,-0.87 -3.51,-1.67 -5.24,-2.44 -1.86,-0.8 -3.7,-1.73 -5.5,-2.52 -4.52,-1.87 -8.9,-3.52 -13.31,-4.99l-1 -0.33c-3.75,-1.24 -7.51,-2.44 -11.17,-3.44 -1.66,-0.48 -3.23,-0.64 -4.89,-1.03 -3.01,-0.73 -5.95,-1.38 -8.92,-1.91 -1.77,-0.32 -3.7,-0.89 -5.5,-1.16 -2.04,-0.36 -3.99,-0.39 -6.03,-0.59 -2.26,-0.3 -4.45,-0.52 -6.57,-0.65 -1.18,-0.08 -2.4,-0.3 -3.55,-0.36 -1.11,-0.05 -2.21,-0.08 -3.3,-0.08 -2.38,0 -4.73,0.09 -7.07,0.14l-3.26 0.04 -0.88 0c-4.4,0.29 -8.82,0.82 -13.1,1.54l-2.11 0.47c-1.3,0.29 -2.62,0.65 -3.94,0.94 -2.16,0.46 -4.17,0.85 -6.18,1.43 -1.97,0.58 -3.8,1.33 -5.71,2.02 -1.22,0.43 -2.55,0.81 -3.8,1.32l-2.01 0.75c-3.85,1.58 -7.51,3.37 -11.06,5.36l-1.15 0.71 -47.89 27.81c1.19,1.79 2.37,3.59 3.53,5.43 0.78,1.18 1.52,2.37 2.27,3.56 1.4,-0.12 2.8,-0.23 4.23,-0.29l3.19 -0.04c1.54,-0.07 3.09,-0.1 4.64,-0.1 3.12,0 6.26,0.12 9.43,0.31 2.12,0.22 4.31,0.44 6.42,0.68 3.85,0.43 7.69,1.04 11.64,1.79 2.93,0.51 5.92,1.2 8.94,1.87 5.27,1.3 10.54,2.66 16.07,4.53l0.93 0.28c6.22,2.13 12.46,4.71 18.84,7.51 1.7,0.78 3.45,1.57 5.28,2.4 6.54,3.16 13.22,6.5 20,10.37 6.31,3.73 12.74,7.72 18.98,12 2.3,1.5 4.49,3.25 6.75,4.88 3.96,2.8 7.97,5.56 11.84,8.57 2.76,2.19 5.5,4.55 8.27,6.82 3.22,2.69 6.53,5.31 9.79,8.11 2.8,2.52 5.52,5.24 8.37,7.82 3.02,2.84 6.05,5.57 9.08,8.51l0.97 0.98c6.85,6.82 13.49,13.99 20.06,21.39 2.22,2.54 4.42,5.17 6.68,7.75 3.27,3.88 6.42,7.79 9.61,11.77 2.47,3.05 4.95,6.17 7.33,9.3 2.33,3.15 4.67,6.36 6.99,9.55 2.58,3.55 5.13,7.13 7.65,10.84 1.93,2.79 3.8,5.63 5.74,8.5 2.59,3.95 5.13,7.98 7.59,11.99 1.63,2.65 3.29,5.32 4.9,8 2.63,4.38 5.11,8.8 7.61,13.28 1.29,2.3 2.63,4.71 3.88,7.03 7.32,13.61 14.04,27.51 20.06,41.5 1.05,2.44 2.01,4.88 2.95,7.32 1.94,4.71 3.84,9.4 5.63,14.18 1.15,3.02 2.22,6.11 3.34,9.16 1.44,4.08 2.88,8.24 4.16,12.37 1.2,3.7 2.3,7.41 3.37,11.09 1.12,3.78 2.16,7.54 3.17,11.28 1.25,4.73 2.36,9.4 3.48,14.13 1.11,4.89 2.33,9.77 3.23,14.65z"/>
   <path class="fil0" d="M11410.22 12281.66c29.29,-17.02 58.47,-34.03 87.79,-51.01 35.42,-20.64 57.4,-64.45 57.5,-126.7 0.04,-7.21 -0.25,-14.54 -0.85,-21.85 -0.15,-2.3 -0.44,-4.61 -0.69,-6.93 -0.29,-3.27 -0.53,-6.58 -0.9,-9.91 -0.25,-1.44 -0.64,-2.95 -0.79,-4.41 -0.75,-5.18 -1.69,-10.41 -2.72,-15.66 -0.43,-2.48 -0.75,-4.91 -1.3,-7.36 -0.21,-1.18 -0.53,-2.33 -0.79,-3.51 -0.75,-3.37 -1.65,-6.71 -2.51,-10.09 -0.76,-3.01 -1.4,-6.06 -2.22,-9.08 -0.47,-1.69 -1.04,-3.36 -1.55,-5.06 -0.75,-2.69 -1.65,-5.35 -2.4,-7.99 -0.79,-2.38 -1.4,-4.75 -2.23,-7.15 -0.94,-2.91 -2.08,-5.89 -3.13,-8.84 -0.78,-2.15 -1.57,-4.37 -2.39,-6.56l-1.19 -3.27c-2.25,-5.95 -4.67,-11.84 -7.21,-17.77l-0.32 -0.65 -0.98 -2.11c-2.11,-4.84 -4.3,-9.65 -6.56,-14.39 -0.87,-1.72 -1.73,-3.45 -2.58,-5.14 -1.01,-1.94 -2.03,-3.9 -2.98,-5.81 -1.02,-1.94 -1.98,-3.92 -2.95,-5.85 -2.19,-4.06 -4.41,-8 -6.71,-11.98l-1.9 -3.45 -0.69 -1.22c-3.29,-5.63 -6.71,-11.24 -10.22,-16.77l-1.59 -2.43c-1.18,-1.81 -2.44,-3.6 -3.66,-5.39 -2.08,-3.06 -4.09,-6.21 -6.21,-9.22 -1.22,-1.76 -2.48,-3.41 -3.7,-5.1 -1.86,-2.51 -3.73,-4.95 -5.52,-7.47 -1.34,-1.77 -2.58,-3.55 -3.92,-5.31 -1.65,-2.09 -3.37,-3.99 -5.02,-6.07 -2.52,-3.16 -5.06,-6.28 -7.64,-9.36 -1.19,-1.34 -2.23,-2.77 -3.45,-4.09 -1.3,-1.58 -2.76,-2.96 -4.12,-4.5 -4.27,-4.76 -8.66,-9.39 -13.07,-13.92 -1.48,-1.47 -2.84,-3.16 -4.28,-4.57 -1.4,-1.36 -2.87,-2.62 -4.23,-3.9 -2.15,-2.07 -4.41,-4.13 -6.56,-6.14 -3.74,-3.37 -7.47,-6.64 -11.28,-9.83 -2.22,-1.87 -4.45,-3.74 -6.68,-5.56 -4.12,-3.27 -8.32,-6.4 -12.51,-9.41 -1.99,-1.44 -3.86,-2.95 -5.89,-4.31 -6.26,-4.24 -12.53,-8.26 -18.89,-11.94 -4.84,-2.81 -9.69,-5.4 -14.46,-7.76 -1.51,-0.72 -2.97,-1.3 -4.45,-2.05 -2.95,-1.32 -5.85,-2.73 -8.68,-3.92l-0.61 -0.21c-7.01,-2.86 -13.83,-5.09 -20.58,-7.03l-2.19 -0.72c-2.11,-0.57 -4.23,-1.12 -6.32,-1.57l-87.75 50.99c2.84,0.65 5.63,1.51 8.43,2.31 6.76,1.93 13.57,4.19 20.65,7.03 2.91,1.26 5.84,2.62 8.82,3.98 1.65,0.8 3.34,1.47 4.96,2.23 4.77,2.37 9.58,4.91 14.42,7.71 6.32,3.63 12.64,7.72 18.88,11.99 1.98,1.36 3.99,2.94 6.03,4.42 4.18,2.97 8.26,5.99 12.28,9.23 2.3,1.86 4.52,3.72 6.93,5.7 3.66,3.15 7.32,6.32 11.02,9.65 2.23,2.08 4.48,4.13 6.74,6.28 2.8,2.7 5.57,5.53 8.33,8.33 4.49,4.55 8.87,9.26 13.2,14.11 2.48,2.81 5,5.52 7.4,8.39 2.74,3.13 5.32,6.32 7.9,9.55 2.94,3.66 5.93,7.4 8.75,11.2 1.91,2.55 3.78,5.06 5.61,7.61 3.33,4.64 6.6,9.33 9.75,14.1 1.3,1.87 2.52,3.74 3.82,5.65 4.3,6.63 8.47,13.38 12.41,20.23 0.73,1.24 1.38,2.48 2.13,3.7 3.25,5.82 6.42,11.66 9.47,17.55 1,2.01 2.01,4 3.05,5.99 3.08,6.32 6.13,12.76 8.97,19.18l1.14 2.44c3.07,7.18 5.97,14.4 8.7,21.64 0.86,2.22 1.62,4.46 2.4,6.65 1.83,5.27 3.63,10.47 5.28,15.79 0.85,2.72 1.72,5.44 2.51,8.18 1.33,4.7 2.54,9.37 3.7,14.04 0.86,3.37 1.79,6.74 2.44,10.11 0.82,3.63 1.46,7.22 2.22,10.88 0.97,5.24 1.9,10.48 2.7,15.68 0.64,4.81 1.25,9.55 1.72,14.29 0.18,2.3 0.51,4.62 0.67,6.93 0.49,7.36 0.91,14.69 0.88,21.86 -0.19,62.24 -22.12,106.1 -57.58,126.7z"/>
   <path class="fil1" d="M11002 11477.58c-85.12,-49.1 -158.85,-35.6 -195.25,25.12 -43.83,-70.67 -101.66,-131.79 -165.25,-168.5 -137.15,-79.15 -248.6,-15.66 -249.06,141.87 -0.33,121.94 66.04,264.21 159.62,359.15l78.6 63.5c0.89,0.57 2.7,1.65 4.92,2.97 5.44,3.09 13.24,7.44 16,8.98 30.19,17.47 604.16,349.5 617.91,357.46 14.42,8.3 28.48,14.5 42.02,18.88 89.27,29.18 155.96,-23.33 156.29,-132.05 0.36,-125.41 -87.88,-278.32 -197.03,-341.35 -19.99,-11.56 -39.19,-19.09 -57.28,-23.26 -23.51,-123 -109.08,-253.58 -211.49,-312.77z"/>
  </g>
  <g id="_2064064405136">
   <polygon class="fil21" points="10572.23,13766.47 10642.53,13586.56 10928.97,13698.49 11038.57,13948.71 "/>
   <g style="clip-path:url(#id0)">
    <image x="10572.23" y="13656.86" width="257.41" height="182.73" xlink:href="About Kreaktif_Images\About Kreaktif_ImgID1.png"/>
   </g>
   <rect class="fil22" transform="matrix(0.27546 0.107645 -0.107645 0.27546 10756.9 13293.8)" width="653.13" height="2188.54"/>
   <g style="clip-path:url(#id1)">
    <image x="10569.14" y="13263.88" width="379.4" height="580.78" xlink:href="About Kreaktif_Images\About Kreaktif_ImgID2.png"/>
   </g>
   <polygon class="fil23" points="11229.6,13478.51 10572.23,13766.47 10671.65,13512.04 10975.17,13379.09 "/>
   <g style="clip-path:url(#id2)">
    <image x="10848.71" y="13694.6" width="187.11" height="253.03" xlink:href="About Kreaktif_Images\About Kreaktif_ImgID3.png"/>
   </g>
   <polygon class="fil23" points="11038.57,13948.71 10987.7,14078.9 10807.79,14008.6 10928.97,13698.49 "/>
  </g>
 </g>
</svg>
