<?xml version="1.0" encoding="UTF-8"?>
<!DOCTYPE svg PUBLIC "-//W3C//DTD SVG 1.1//EN" "http://www.w3.org/Graphics/SVG/1.1/DTD/svg11.dtd">
<!-- Creator: CorelDRAW 2017 -->
<svg xmlns="http://www.w3.org/2000/svg" xml:space="preserve" width="210mm" height="297mm" version="1.1" style="shape-rendering:geometricPrecision; text-rendering:geometricPrecision; image-rendering:optimizeQuality; fill-rule:evenodd; clip-rule:evenodd"
viewBox="0 0 21000 29700"
 xmlns:xlink="http://www.w3.org/1999/xlink">
 <defs>
  <style type="text/css">
   <![CDATA[
    .fil18 {fill:#003365}
    .fil21 {fill:#277BCF}
    .fil1 {fill:#FEFEFE;fill-rule:nonzero}
    .fil2 {fill:#FBFCFB;fill-rule:nonzero}
    .fil0 {fill:#F4F4F3;fill-rule:nonzero}
    .fil4 {fill:#F4F6F5;fill-rule:nonzero}
    .fil16 {fill:#F0F1EF;fill-rule:nonzero}
    .fil12 {fill:#EEEEEC;fill-rule:nonzero}
    .fil20 {fill:#E8F5FC;fill-rule:nonzero}
    .fil3 {fill:#E1E1E0;fill-rule:nonzero}
    .fil22 {fill:#C3DAE9;fill-rule:nonzero}
    .fil9 {fill:#BADDF0;fill-rule:nonzero}
    .fil19 {fill:#A3CAE3;fill-rule:nonzero}
    .fil13 {fill:#8A979A;fill-rule:nonzero}
    .fil14 {fill:#828E90;fill-rule:nonzero}
    .fil5 {fill:#7FB9D8;fill-rule:nonzero}
    .fil15 {fill:#59BEB7;fill-rule:nonzero}
    .fil17 {fill:#2F4C55;fill-rule:nonzero}
    .fil11 {fill:#00AAA3;fill-rule:nonzero}
    .fil10 {fill:#243840;fill-rule:nonzero}
    .fil7 {fill:#003365;fill-rule:nonzero}
    .fil6 {fill:#277BCF;fill-rule:nonzero}
    .fil8 {fill:#104C87;fill-rule:nonzero}
   ]]>
  </style>
 </defs>
 <g id="Layer_x0020_1">
  <metadata id="CorelCorpID_0Corel-Layer"/>
  <path class="fil0" d="M6037.6 23083.83c2545.84,1329.94 6673.49,1330 9219.29,0.03 2545.82,-1329.99 2545.82,-3486.31 0,-4816.29 -2545.83,-1329.96 -6673.48,-1329.96 -9219.33,-0.02 -2545.81,1329.97 -2545.81,3486.32 0.04,4816.28z"/>
  <path class="fil1" d="M6023.09 18806.94l-0.88 -0.06c-5.28,-0.48 -9.17,-5.14 -8.71,-10.39 34.84,-390.94 -228.83,-778.78 -575.76,-846.97 -5.22,-1.02 -8.63,-6.1 -7.6,-11.3 1.04,-5.22 6.07,-8.61 11.3,-7.6 356.14,70.03 626.89,467.31 591.22,867.53 -0.45,5.03 -4.64,8.79 -9.57,8.79z"/>
  <path class="fil2" d="M7712.95 12518.18l16.89 -9.78c9.87,-5.69 21.99,-9.31 34.69,-10.84l28.47 0c12.71,1.54 24.82,5.15 34.69,10.84l2770.61 1599.61c27,15.63 48.89,53.53 48.89,84.74l0.03 3861.62c0,31.22 -21.89,69.15 -48.92,84.74l-16.89 9.77c-27.03,15.6 -70.84,15.6 -97.88,0l-2770.55 -1599.6c-27.03,-15.59 -48.92,-53.56 -48.95,-84.74l0 -3861.65c0,-31.19 21.89,-69.12 48.92,-84.71z"/>
  <path class="fil3" d="M10647.22 16123.58l-0.03 -1930.83c0,-15.61 -5.45,-32.88 -14.32,-48.24l-157.89 91.18 0 3908.23 8.55 4.96c27.04,15.57 70.85,15.6 97.88,0l16.89 -9.77c27.03,-15.59 48.92,-53.52 48.92,-84.74l0 -1930.79z"/>
  <path class="fil4" d="M7712.95 12574.64l2770.58 1599.64c27.04,15.6 48.93,53.5 48.93,84.71l0 3861.65c0,31.18 -21.89,43.84 -48.93,28.24l-2770.55 -1599.6c-27.03,-15.59 -48.92,-53.56 -48.95,-84.74l0 -3861.65c0,-31.19 21.89,-43.84 48.92,-28.25z"/>
  <path class="fil3" d="M8057.16 13038.36l2082.16 1202.13c27.04,15.62 48.93,53.55 48.93,84.74l0 151.99c0,31.21 -21.89,43.86 -48.93,28.24l-2082.16 -1202.12c-27,-15.6 -48.93,-53.56 -48.93,-84.74l0 -152c0,-31.21 21.93,-43.83 48.93,-28.24z"/>
  <path class="fil3" d="M8295.08 13705.67c158.43,91.46 286.87,313.91 286.87,496.86 0,182.89 -128.44,257.04 -286.87,165.58 -158.41,-91.44 -286.85,-313.88 -286.85,-496.82 0,-182.93 128.44,-257.08 286.85,-165.62z"/>
  <path class="fil5" d="M8297.37 13812.02c-55.57,-32.08 -100.65,-6.07 -100.65,58.1 0,64.18 45.08,142.22 100.65,174.31 55.58,32.09 100.64,6.08 100.64,-58.1 0,-64.18 -45.06,-142.22 -100.64,-174.31z"/>
  <path class="fil5" d="M8323.63 14091.74l-57.08 -32.98c-91.29,-52.71 -165.36,-9.98 -165.36,95.47l0 14.35c51.1,83.72 119.03,156.31 193.89,199.53 74.88,43.24 142.81,49.09 193.87,24.31l0 -14.31c0,-105.45 -74.03,-233.66 -165.32,-286.37z"/>
  <path class="fil3" d="M8069.41 14503.15l451.38 260.6c33.76,19.49 61.16,64.96 61.16,101.55 0,36.6 -27.4,50.44 -61.18,30.93l-451.36 -260.61c-33.78,-19.49 -61.18,-64.93 -61.18,-101.54 0,-36.58 27.4,-50.42 61.18,-30.93z"/>
  <path class="fil3" d="M8069.41 14767.96l451.38 260.59c33.76,19.5 61.16,64.97 61.16,101.55 0,36.61 -27.4,50.45 -61.18,30.94l-451.36 -260.61c-33.78,-19.49 -61.18,-64.94 -61.18,-101.54 0,-36.58 27.4,-50.42 61.18,-30.93z"/>
  <path class="fil3" d="M8069.41 15032.77l451.38 260.59c33.76,19.49 61.16,64.97 61.16,101.55 0,36.61 -27.4,50.45 -61.18,30.93l-451.36 -260.6c-33.78,-19.49 -61.18,-64.94 -61.18,-101.54 0,-36.59 27.4,-50.42 61.18,-30.93z"/>
  <path class="fil3" d="M8069.41 15297.57l451.38 260.6c33.76,19.49 61.16,64.97 61.16,101.55 0,36.61 -27.4,50.44 -61.18,30.92l-451.36 -260.59c-33.78,-19.49 -61.18,-64.94 -61.18,-101.54 0,-36.59 27.4,-50.42 61.18,-30.94z"/>
  <path class="fil6" d="M8069.41 15695.17l451.38 260.6c33.78,19.52 61.16,66.91 61.16,105.92l0 256.22c0,39.01 -27.38,54.82 -61.16,35.31l-451.38 -260.6c-33.78,-19.49 -61.14,-66.92 -61.14,-105.92l0 -256.22c0,-39.01 27.36,-54.8 61.14,-35.31z"/>
  <path class="fil6" d="M8987.31 13972.83l1139.79 658.08c33.78,19.48 61.15,64.96 61.15,101.55 0,36.57 -27.37,50.44 -61.15,30.93l-1139.79 -658.06c-33.79,-19.52 -61.16,-64.97 -61.16,-101.57 0,-36.58 27.37,-50.42 61.16,-30.93z"/>
  <path class="fil6" d="M8987.31 14237.84l1139.79 658.04c33.78,19.5 61.15,64.97 61.15,101.55 0,36.58 -27.37,50.45 -61.15,30.93l-1139.79 -658.05c-33.79,-19.49 -61.16,-64.99 -61.16,-101.58 0,-36.57 27.37,-50.41 61.16,-30.89z"/>
  <path class="fil6" d="M8987.31 14502.78l1139.79 658.08c33.78,19.52 61.15,64.97 61.15,101.55 0,36.57 -27.37,50.44 -61.15,30.95l-1139.79 -658.07c-33.79,-19.49 -61.16,-64.97 -61.16,-101.58 0,-36.57 27.37,-50.42 61.16,-30.93z"/>
  <path class="fil6" d="M12888.36 14962.12l107.19 -61.88c33.76,-19.5 88.53,-19.5 122.31,0l2401.91 1386.77c33.75,19.49 61.15,66.92 61.15,105.93l0 3038.44c0,39.01 -27.37,86.43 -61.15,105.92l-107.17 61.86c-33.78,19.51 -88.54,19.51 -122.33,0l-2402.22 -1386.75c-33.76,-19.49 -61.16,-66.92 -61.16,-105.89l0.31 -3038.48c0,-39 27.4,-86.43 61.16,-105.92z"/>
  <path class="fil7" d="M15580.92 17912.15l0 -1519.21c0,-19.52 -6.83,-41.13 -17.93,-60.29l-326.27 188.38 0 3047.22 53.58 30.91c33.76,19.51 88.52,19.51 122.3,0l107.17 -61.86c33.78,-19.49 61.15,-66.91 61.15,-105.9l0 -1519.25z"/>
  <path class="fil8" d="M12888.36 15032.73l2401.94 1386.76c33.76,19.51 61.16,66.91 61.16,105.92l0 3038.44c0,39.01 -27.4,54.82 -61.19,35.31l-2402.22 -1386.75c-33.76,-19.49 -61.16,-66.92 -61.16,-105.89l0.31 -3038.48c0,-39 27.4,-54.82 61.16,-35.31z"/>
  <path class="fil1" d="M15118 16517.61l-2057.68 -1188.01c-33.78,-19.51 -61.16,-3.7 -61.16,35.31l0 2309.78c0,39.01 27.4,86.43 61.16,105.92l2057.71 1188.01c33.78,19.52 61.15,3.7 61.15,-35.31l0 -2309.78c0,-39 -27.37,-86.43 -61.18,-105.92z"/>
  <path class="fil6" d="M13475.57 15845.63c109.42,63.19 198.14,216.85 198.14,343.22 0,126.35 -88.72,177.56 -198.14,114.37 -109.43,-63.16 -198.15,-216.82 -198.15,-343.19 0,-126.37 88.72,-177.58 198.15,-114.4z"/>
  <path class="fil9" d="M13990.16 17251.53l-368.48 -555.29c-59.6,-89.79 -162.64,-94.49 -230.12,-10.48l-392.16 488.09 0 502.11c0,38.98 27.36,86.4 61.14,105.89l2057.49 1187.3c33.78,19.49 61.15,3.7 61.15,-35.31l0 -1302.4 -511.11 -1082c-46.07,-97.45 -132.37,-104.08 -192.76,-14.82l-485.15 716.91z"/>
  <path class="fil8" d="M13408.51 21816.17l673.28 -388.75c67.56,-38.98 122.33,-133.83 122.33,-211.82l-0.05 -3824.64c0,-78.02 -54.75,-172.87 -122.31,-211.85l-4574.36 -2641.02c-67.53,-38.98 -177.04,-38.98 -244.61,0l-673.28 388.72c-67.56,38.99 -122.3,133.84 -122.3,211.85l0.03 3824.65c0,77.96 54.73,172.83 122.3,211.84l4574.33 2641.02c67.54,39.01 177.07,39.01 244.64,0z"/>
  <path class="fil8" d="M14204.09 17390.93c-0.02,-39.01 -13.7,-82.2 -35.84,-120.53l-996.81 575.51 0 3973.81c67.9,35 171.74,34.08 236.96,-3.53l673.5 -388.82c67.45,-39.02 122.17,-133.73 122.19,-211.69l0 -3824.75z"/>
  <path class="fil7" d="M13163.87 17709.04l-4574.36 -2641c-67.56,-39 -122.3,-7.39 -122.3,70.62l0.03 3824.65c0,77.96 54.73,172.83 122.3,211.84l4574.33 2641.02c67.54,39.01 122.31,7.35 122.31,-70.61l0 -3824.68c0,-77.99 -54.77,-172.83 -122.31,-211.84z"/>
  <path class="fil10" d="M13565.31 17477.3c67.5,39.01 122.3,133.86 122.3,211.85l0 3965.87 114.76 -66.26 -0.05 -3965.84c0,-78.02 -54.75,-172.87 -122.31,-211.86l-4696.66 -2711.62 -114.74 66.26 4696.7 2711.6z"/>
  <path class="fil7" d="M13680.01 17411.06l-4689.14 -2707.28 -118.41 64.12 4692.85 2709.4c33.75,19.49 64.31,52.97 86.46,91.3l114.73 -66.24c-22.11,-38.33 -52.67,-71.8 -86.49,-91.3z"/>
  <path class="fil10" d="M12969.14 16801.71l-80.76 -46.63c-33.75,-19.49 -88.54,-19.49 -122.3,0l-310.26 179.11 -51.71 -15.71 0 66.24c0,12.79 8.44,25.59 25.33,35.31l107.16 61.88c33.79,19.49 88.56,19.49 122.32,0l336.63 -194.35c16.89,-9.76 25.31,-22.52 25.31,-35.31l0 -66.24 -51.72 15.7z"/>
  <path class="fil6" d="M12995.55 16750.7l-107.17 -61.89c-33.78,-19.49 -88.54,-19.49 -122.3,0l-336.64 194.37c-33.78,19.51 -33.78,51.12 0,70.61l107.16 61.89c33.79,19.49 88.56,19.49 122.32,0l336.63 -194.36c33.76,-19.53 33.76,-51.13 0,-70.62z"/>
  <path class="fil10" d="M10215.48 15212.05l-80.79 -46.64c-33.78,-19.52 -88.55,-19.52 -122.33,0l-310.22 179.11 -51.73 -15.7 0 66.23c0,12.79 8.42,25.57 25.34,35.31l107.17 61.88c33.78,19.5 88.52,19.5 122.3,0l336.64 -194.35c16.86,-9.75 25.31,-22.54 25.31,-35.31l0 -66.24 -51.69 15.71z"/>
  <path class="fil6" d="M10241.86 15161.04l-107.17 -61.9c-33.78,-19.49 -88.55,-19.49 -122.3,0l-336.64 194.37c-33.79,19.49 -33.79,51.1 0,70.61l107.17 61.86c33.78,19.52 88.52,19.52 122.3,0l336.64 -194.33c33.75,-19.52 33.75,-51.13 0,-70.61z"/>
  <path class="fil7" d="M11106.13 15196.22l0 397.43 -229.35 132.47 0 -605.87c0,-31.36 21.78,-43.79 48.89,-28.25l180.46 104.22z"/>
  <path class="fil6" d="M12309.14 15617.63l0 738.67 -170.3 98.58 -114.7 -66.41 0 -605.85c0,-31.08 -22.04,-69.2 -48.84,-84.74l-869.17 -501.66 -180.46 -104.22c-27.11,-15.54 -48.89,-3.11 -48.89,28.25l0 605.87 -114.94 -66.37 0 -738.36c0,-3.1 0.28,-6.52 0.82,-9.6 3.67,-29.13 24.04,-61.3 48.3,-75.13l72.59 -42.1c26.87,-15.53 70.62,-15.53 97.73,0l1279.03 738.33c27.11,15.85 48.83,53.7 48.83,84.74z"/>
  <path class="fil8" d="M12138.84 15716.24l0 738.64 -114.7 -66.41 0 -605.85c0,-31.08 -22.04,-69.2 -48.84,-84.74l-869.17 -501.66 -180.46 -104.22c-27.11,-15.54 -48.89,-3.11 -48.89,28.25l0 605.87 -114.94 -66.37 0 -738.36c0,-3.1 0.28,-6.52 0.82,-9.6 4.27,-24.01 24.29,-32.48 48.3,-18.65l1278.99 738.36c26.87,15.82 48.89,53.67 48.89,84.74z"/>
  <path class="fil11" d="M13859.89 23144.92l114.73 -66.26 -114.73 -3307.76c0,-38.84 -27.49,-86.52 -61.16,-105.93l-2172.47 -1254.3c-33.61,-19.41 -71.55,-65.33 -84.26,-102.02l-68.49 -197.75c-12.71,-36.73 -50.88,-82.26 -84.77,-101.21l-1024.09 -572.8c-33.9,-18.96 -61.64,-2.72 -61.64,36.15l0 3547.72c0,38.84 27.51,86.49 61.16,105.92l3495.72 2018.24z"/>
  <path class="fil8" d="M13859.89 23144.92l0 0 -105.87 -574.58 207.13 119.6 13.47 388.72 -114.73 66.26zm-1735.17 -3784.05l-1821.71 -1051.74 0 -836.09c0,-27.85 14.24,-44.1 34.78,-44.1 8.13,0 17.25,2.57 26.86,7.95l1024.09 572.8c33.89,18.95 72.06,64.48 84.77,101.21l68.49 197.75c12.71,36.69 50.65,82.61 84.26,102.02l498.46 287.8 0 662.4z"/>
  <path class="fil1" d="M12187.76 17542.66l2426.38 1400.87c27.03,15.6 48.92,53.53 48.92,84.75l0 3994.11c0,31.19 -21.89,43.84 -48.92,28.25l-2426.34 -1400.9c-27.04,-15.59 -48.93,-53.53 -48.93,-84.74l-0.03 -3994.09c0,-31.21 21.89,-43.84 48.92,-28.25z"/>
  <path class="fil12" d="M14636.09 23071.37c-9.23,0 -19.21,-2.82 -29.01,-8.5l-645.93 -372.93 -0.59 -16.66 653.58 377.36c7.86,4.52 15.25,6.67 21.84,6.67 16.07,0 27.08,-12.8 27.08,-34.92l0 -119.9c4.55,0.51 9.27,0.96 14.13,1.38l0 118.52c0,20.34 -7.57,35.9 -21.38,43.89 -5.91,3.42 -12.6,5.09 -19.72,5.09zm26.97 -1567.77l0 -2266.5 14.13 8.16 0 2227.72c-4.89,10.23 -9.58,20.45 -14.13,30.62z"/>
  <path class="fil13" d="M14677.19 19245.26l-14.13 -8.16 0 -208.82c0,-31.22 -21.89,-69.15 -48.92,-84.75l-410.05 -236.75 0 -16.3 417.11 240.82c31.38,18.14 55.99,60.7 55.99,96.98l0 216.98z"/>
  <path class="fil13" d="M14204.09 18706.78l-401.74 -231.93 0 -16.33 401.74 231.96 0 16.3zm-516.48 -298.2l-401.43 -231.76 0 -16.3 401.43 231.76 0 16.3z"/>
  <path class="fil13" d="M12138.84 18706.6l-14.12 -8.13 0 -1127.56c0,-20.06 7.8,-36.07 21.38,-43.89 5.94,-3.42 12.63,-5.12 19.75,-5.12 9.23,0 19.18,2.86 28.98,8.54l1091.35 630.08 0 16.3 -1098.42 -634.16c-7.84,-4.54 -15.27,-6.69 -21.85,-6.69 -16.05,0 -27.07,12.79 -27.07,34.94l0 1135.69z"/>
  <polygon class="fil14" points="13802.35,18474.85 13687.61,18408.58 13687.61,18392.28 13802.35,18458.52 "/>
  <path class="fil15" d="M13961.15 22689.94l-207.13 -119.6 -3.36 -18.24 209.9 121.18 0.59 16.66zm-1822.31 -3320.9l-14.12 -8.17 0 -662.4 14.12 8.13 0 662.44z"/>
  <path class="fil16" d="M14635.98 23057.31c-6.59,0 -13.98,-2.15 -21.84,-6.67l-653.58 -377.36 -209.9 -121.18 -3.37 -18.26 873.91 504.57c5.48,3.14 10.6,4.81 14.78,4.81 2.17,0 4.12,-0.46 5.71,-1.42 4.6,-2.63 7.25,-9.72 7.25,-19.41l0 -3994.11c0,-26.22 -19.18,-59.41 -41.86,-72.55l-2426.38 -1400.83c-5.47,-3.17 -10.58,-4.81 -14.74,-4.81l-5.73 1.39c-4.61,2.66 -7.26,9.74 -7.26,19.43l0 1806.29 -14.13 -8.16 0 -1798.13c0,-22.15 11.02,-34.94 27.07,-34.94 6.58,0 14.01,2.15 21.85,6.69l1098.42 634.16 401.43 231.76 114.74 66.27 401.74 231.93 410.05 236.75c27.03,15.6 48.92,53.53 48.92,84.75l0 3994.11c0,22.12 -11.01,34.92 -27.08,34.92z"/>
  <path class="fil17" d="M12429.47 18079.68l1139.79 658.05c33.78,19.52 61.15,64.97 61.15,101.58 0,36.57 -27.34,50.42 -61.12,30.93l-1139.82 -658.06c-33.75,-19.49 -61.15,-64.96 -61.15,-101.54 0,-36.61 27.4,-50.45 61.15,-30.96z"/>
  <path class="fil3" d="M12429.47 18477.14l1942.97 1121.71c33.78,19.45 61.18,64.96 61.18,101.52 0,36.57 -27.4,50.47 -61.16,30.95l-1942.99 -1121.68c-33.75,-19.5 -61.15,-64.97 -61.15,-101.55 0,-36.58 27.4,-50.44 61.15,-30.95z"/>
  <path class="fil3" d="M12429.47 18874.62l1942.97 1121.68c33.78,19.48 61.18,64.96 61.18,101.57 0,36.58 -27.4,50.42 -61.16,30.9l-1942.99 -1121.66c-33.75,-19.51 -61.15,-64.96 -61.15,-101.54 0,-36.57 27.4,-50.45 61.15,-30.95z"/>
  <path class="fil3" d="M12429.47 19272.1l1942.97 1121.68c33.78,19.52 61.18,64.96 61.18,101.54 0,36.61 -27.4,50.45 -61.16,30.96l-1942.99 -1121.69c-33.75,-19.51 -61.15,-64.96 -61.15,-101.54 0,-36.6 27.4,-50.45 61.15,-30.95z"/>
  <path class="fil3" d="M12429.47 19669.6l1942.97 1121.69c33.78,19.46 61.18,64.94 61.18,101.51 0,36.58 -27.4,50.42 -61.16,30.96l-1942.99 -1121.68c-33.75,-19.49 -61.15,-64.97 -61.15,-101.58 0,-36.57 27.4,-50.42 61.15,-30.9z"/>
  <path class="fil3" d="M12429.47 20067.05l1942.97 1121.69c33.78,19.49 61.18,64.97 61.18,101.57 0,36.59 -27.4,50.42 -61.16,30.9l-1942.99 -1121.68c-33.75,-19.46 -61.15,-64.94 -61.15,-101.52 0,-36.58 27.4,-50.45 61.15,-30.96z"/>
  <path class="fil3" d="M12429.47 20464.53l1942.97 1121.69c33.78,19.51 61.18,64.97 61.18,101.54 0,36.61 -27.4,50.45 -61.16,30.97l-1942.99 -1121.69c-33.75,-19.52 -61.15,-64.97 -61.15,-101.54 0,-36.61 27.4,-50.46 61.15,-30.97z"/>
  <path class="fil3" d="M12429.47 20862.01l1942.97 1121.68c33.78,19.5 61.18,64.97 61.18,101.56 0,36.58 -27.4,50.44 -61.16,30.95l-1942.99 -1121.68c-33.75,-19.52 -61.15,-64.97 -61.15,-101.58 0,-36.57 27.4,-50.41 61.15,-30.93z"/>
  <path class="fil1" d="M11843.53 17741.18l2426.38 1400.87c27,15.62 48.92,53.53 48.92,84.74l0 3994.09c0,31.24 -21.92,43.87 -48.92,28.25l-2426.35 -1400.87c-27.01,-15.59 -48.92,-53.53 -48.92,-84.74l-0.06 -3994.1c0,-31.21 21.92,-43.86 48.95,-28.24z"/>
  <path class="fil3" d="M11821.69 17748.61l-5.73 1.36c-4.6,2.68 -7.25,9.77 -7.25,19.45l0.05 3994.1c0,26.19 19.18,59.41 41.86,72.54l2426.35 1400.86c8.39,4.82 15.79,6.14 20.48,3.42 4.6,-2.65 7.25,-9.74 7.25,-19.46l0 -3994.09c0,-26.18 -19.17,-59.4 -41.86,-72.54l-2426.37 -1400.84c-5.5,-3.19 -10.59,-4.8 -14.78,-4.8zm2470.16 5521.3c-9.26,0 -19.17,-2.88 -29.01,-8.55l-2426.34 -1400.87c-31.41,-18.1 -55.99,-60.73 -55.99,-96.97l-0.05 -3994.1c0,-20.05 7.82,-36.07 21.38,-43.91 13.64,-7.8 31.38,-6.62 48.75,3.44l2426.38 1400.87c31.38,18.13 55.98,60.75 55.98,96.97l0 3994.09c0,20.08 -7.82,36.1 -21.41,43.92 -5.9,3.42 -12.59,5.11 -19.69,5.11z"/>
  <path class="fil3" d="M12085.2 18278.2l1139.82 658.08c33.79,19.49 61.16,64.96 61.16,101.52 0.03,36.6 -27.37,50.47 -61.13,30.95l-1139.85 -658.05c-33.75,-19.52 -61.12,-65 -61.12,-101.55 0,-36.6 27.37,-50.45 61.12,-30.95z"/>
  <path class="fil3" d="M12085.24 18675.65l1942.96 1121.69c33.79,19.51 61.18,64.95 61.18,101.56 0,36.58 -27.36,50.43 -61.18,30.93l-1942.96 -1121.68c-33.79,-19.52 -61.16,-64.96 -61.16,-101.55 0,-36.6 27.37,-50.44 61.16,-30.95z"/>
  <path class="fil3" d="M12085.24 19073.13l1942.96 1121.68c33.79,19.52 61.18,64.97 61.18,101.55 0,36.61 -27.36,50.44 -61.18,30.95l-1942.96 -1121.68c-33.79,-19.52 -61.16,-64.96 -61.16,-101.57 0,-36.58 27.37,-50.42 61.16,-30.93z"/>
  <path class="fil3" d="M12085.24 19470.63l1942.96 1121.66c33.79,19.49 61.18,64.97 61.18,101.55 0,36.57 -27.36,50.44 -61.18,30.95l-1942.96 -1121.68c-33.79,-19.49 -61.16,-64.96 -61.16,-101.57 0,-36.58 27.37,-50.42 61.16,-30.91z"/>
  <path class="fil3" d="M12085.24 19868.09l1942.96 1121.68c33.79,19.49 61.18,64.97 61.18,101.57 0,36.59 -27.36,50.42 -61.18,30.91l-1942.96 -1121.69c-33.79,-19.48 -61.16,-64.93 -61.16,-101.51 0,-36.58 27.37,-50.46 61.16,-30.96z"/>
  <path class="fil3" d="M12085.24 20265.57l1942.96 1121.68c33.79,19.51 61.18,64.97 61.18,101.54 0,36.61 -27.36,50.45 -61.18,30.97l-1942.96 -1121.69c-33.79,-19.51 -61.16,-64.97 -61.16,-101.54 0,-36.61 27.37,-50.45 61.16,-30.96z"/>
  <path class="fil3" d="M12085.24 20663.08l1942.96 1121.65c33.79,19.49 61.18,64.97 61.18,101.55 0,36.58 -27.36,50.45 -61.18,30.97l-1942.96 -1121.7c-33.79,-19.49 -61.16,-64.97 -61.16,-101.57 0,-36.58 27.37,-50.42 61.16,-30.9z"/>
  <path class="fil3" d="M12085.24 21060.53l1942.96 1121.68c33.79,19.49 61.18,64.97 61.18,101.55 0,36.57 -27.36,50.45 -61.18,30.93l-1942.96 -1121.68c-33.79,-19.5 -61.16,-64.97 -61.16,-101.52 0,-36.58 27.37,-50.48 61.16,-30.96z"/>
  <path class="fil6" d="M13859.89 23144.92l-560.86 -3044c-7.03,-38.18 -40.33,-85.33 -73.95,-104.76l-3434.6 -1982.94c-33.63,-19.44 -55.39,-4.07 -48.35,34.15l548.09 2974.55c7.03,38.18 40.3,85.33 73.95,104.76l3495.72 2018.24z"/>
  <path class="fil1" d="M5303.25 19075.78c894.25,-539.05 1442.88,-1507.83 1442.88,-2554.75l0 -1003.42c0,-31.07 22.02,-43.78 48.92,-28.24l2541.15 1467.1c26.9,15.54 48.92,53.67 48.92,84.74l0 1003.45c0,1042.59 -544.15,2007.73 -1431.91,2548.09 -36.57,22.25 -82.64,22.11 -119.73,0.7l-2530 -1460.69c-26.89,-15.54 -26.83,-40.93 -0.23,-56.98z"/>
  <path class="fil3" d="M5310.55 19087.87c-8.39,5.08 -13.18,11.13 -13.13,16.64 0.06,5.39 4.84,11.22 13.13,16.01l2529.99 1460.7c33.04,19.09 73.41,18.87 105.35,-0.51 879.03,-535.07 1425.11,-1506.82 1425.11,-2536.05l0 -1003.45c0,-26.19 -19.18,-59.4 -41.86,-72.51l-2541.15 -1467.1c-8.36,-4.83 -15.81,-6.02 -20.43,-3.37 -4.64,2.69 -7.3,9.75 -7.3,19.38l0 1003.42c0,1044.26 -555.5,2027.82 -1449.71,2566.84zm2582.59 1535.77c-22.94,0 -45.96,-5.98 -66.72,-17.99l-2530 -1460.69c-17.41,-10.03 -27.08,-24.32 -27.24,-40.2 -0.14,-15.95 9.36,-30.56 26.78,-41.06 885.79,-533.94 1436.05,-1508.24 1436.05,-2542.67l0 -1003.42c0,-19.99 7.83,-35.96 21.44,-43.84 13.65,-7.88 31.36,-6.64 48.67,3.37l2541.14 1467.1c31.38,18.14 55.99,60.73 55.99,96.97l0 1003.45c0,1039.01 -551.28,2020.02 -1438.7,2560.14 -20.61,12.54 -43.94,18.84 -67.41,18.84z"/>
  <path class="fil3" d="M7893.42 17117.08c0,36.61 -27.38,50.45 -61.16,30.96l-680.73 -392.93c-33.79,-19.49 -61.15,-64.95 -61.15,-101.52 0,-36.61 27.36,-50.45 61.15,-30.93l680.73 392.9c33.78,19.5 61.16,64.94 61.16,101.52z"/>
  <path class="fil3" d="M9007.5 18289.98c-5.14,33.63 -37.31,44.96 -71.09,25.47l-1827.82 -1055.27c-33.75,-19.53 -56.49,-62.57 -51.43,-96.24 5,-33.7 35.73,-45.31 69.51,-25.79l1828.38 1055.56c33.78,19.49 57.62,62.65 52.45,96.27z"/>
  <path class="fil3" d="M8931.97 18644.09c-8.78,31.53 -43.98,41.1 -77.73,21.61l-1827.84 -1055.56c-33.79,-19.48 -53.47,-60.7 -44.72,-92.22 8.79,-31.5 42.6,-41.38 76.36,-21.89l1828.09 1055.56c33.78,19.49 54.62,60.98 45.84,92.5z"/>
  <path class="fil3" d="M8818.36 18975.9c-12.14,29.58 -49.85,37.51 -83.63,18.03l-1828.08 -1055.31c-33.79,-19.49 -50.63,-59.01 -38.53,-88.64 12.11,-29.66 48.53,-38.18 82.31,-18.66l1828.08 1055.56c33.78,19.48 51.94,59.48 39.85,89.02z"/>
  <path class="fil3" d="M8669.25 19287.32c-15.36,27.73 -55.81,34 -89.59,14.49l-1827.8 -1055c-33.78,-19.51 -48.22,-57.5 -32.94,-85.27 15.26,-27.79 54.52,-34.8 88.29,-15.31l1828.09 1055.28c33.78,19.51 49.29,58.13 33.95,85.81z"/>
  <path class="fil3" d="M7613.72 19208.04c-19.57,25.24 -63.19,29.65 -96.97,10.16l-1025.05 -591.79c-33.77,-19.48 -44.81,-55.5 -25.2,-80.81 19.6,-25.33 62.33,-30.45 96.1,-10.96l1025.05 592.01c33.78,19.49 45.62,56.08 26.07,81.39z"/>
  <path class="fil6" d="M7239.43 19755.56c0,0 -537.47,354.37 -1181.7,379.01 131.31,75.84 427.57,107.27 656.52,75.84 0,0 -32.04,133.12 -262.61,303.21 0,0 375.48,101.24 1050.4,-606.44l-262.61 -151.62z"/>
  <path class="fil11" d="M7807.18 19888.76c-114.99,116.91 -346.95,126.72 -505.44,35.2 -158.51,-91.49 -183.46,-249.5 -68.49,-366.32 114.99,-116.83 325.76,-147.5 484.27,-56.1 158.5,91.43 204.65,270.34 89.66,387.22z"/>
  <path class="fil8" d="M7540.7 19985.42c-34.82,0 -70.04,-3.62 -104.45,-10.87 -47.56,-10 -93.49,-26.9 -134.51,-50.59 -61.8,-35.64 -103.3,-81.43 -124.11,-130.92 -10.48,-24.91 -15.7,-50.76 -15.68,-76.75 0.03,-5.79 0.29,-11.61 0.82,-17.42 6.61,71.31 53.27,140.24 138.97,189.73 70.68,40.78 155.95,61.46 238.96,61.46 103.13,0 202.78,-31.92 266.48,-96.69 38.76,-39.4 59.21,-85.87 63.22,-133.63 0.48,5.85 0.73,11.72 0.73,17.57 0.05,53.98 -20.4,107.16 -63.95,151.45 -63.7,64.77 -163.35,96.66 -266.48,96.66z"/>
  <path class="fil6" d="M7807.18 19853.37c-114.99,116.91 -346.95,126.71 -505.44,35.23 -158.51,-91.52 -183.46,-249.5 -68.49,-366.35 114.99,-116.83 325.76,-147.51 484.27,-56.11 158.5,91.44 204.65,270.35 89.66,387.23z"/>
  <path class="fil11" d="M7540.73 19865.29c-70.81,0 -140.66,-17.79 -196.62,-50.11 -56.13,-32.39 -90.36,-74.84 -96.43,-119.59 -6.66,-48.78 21.35,-88.89 45.98,-113.92 51.86,-52.71 133.83,-84.17 219.25,-84.17 58.47,0 114.57,14.55 162.25,42.06 61.38,35.39 102.47,89.42 109.99,144.56 5.53,40.71 -7.71,78.67 -38.38,109.85 -44.61,45.34 -119.71,71.32 -206.04,71.32z"/>
  <path class="fil8" d="M7344.11 19815.18c-56.13,-32.39 -90.36,-74.84 -96.43,-119.59 -0.67,-4.95 -0.99,-9.81 -0.99,-14.58 -0.03,-42.19 24.83,-76.85 46.97,-99.34 51.86,-52.71 133.83,-84.17 219.25,-84.17 58.47,0 114.57,14.55 162.25,42.06 61.38,35.39 102.47,89.42 109.99,144.56 0.82,6.04 1.24,12.03 1.24,17.93 -0.02,33.91 -13.53,65.37 -39.62,91.92 21.65,-22.03 34.45,-47.51 38.24,-74.88l0 0c-7.74,-54.91 -48.7,-108.67 -109.85,-143.91 -47.68,-27.51 -103.78,-42.06 -162.25,-42.06 -85.42,0 -167.39,31.47 -219.25,84.17 -18.9,19.21 -39.62,47.34 -45.33,81.38l0 0c7.2,43.58 40.96,84.88 95.78,116.51z"/>
  <path class="fil11" d="M7675.16 19575.18c-47.68,-27.51 -103.78,-42.06 -162.25,-42.06 -85.42,0 -167.39,31.47 -219.25,84.17 -18.9,19.21 -39.62,47.34 -45.33,81.38 7.2,43.58 40.96,84.88 95.78,116.51 55.96,32.32 125.81,50.11 196.62,50.11 86.33,0 161.43,-25.98 206.04,-71.32 21.65,-22.03 34.45,-47.51 38.24,-74.88 -7.74,-54.91 -48.7,-108.67 -109.85,-143.91z"/>
  <path class="fil7" d="M7540.73 19865.29c-70.81,0 -140.66,-17.79 -196.62,-50.11 -54.82,-31.63 -88.58,-72.93 -95.78,-116.51 5.71,-34.04 26.43,-62.17 45.33,-81.38 51.86,-52.7 133.83,-84.17 219.25,-84.17 58.47,0 114.57,14.55 162.25,42.06 61.15,35.24 102.11,89 109.85,143.91 -3.79,27.37 -16.59,52.85 -38.24,74.88 -44.61,45.34 -119.71,71.32 -206.04,71.32z"/>
  <g id="_2100162301728">
   <g>
    <g>
     <path class="fil18" d="M11453.4 20042.05l-78.52 172.91c-7.24,15.93 -0.2,34.67 15.73,41.91l172.91 78.52c15.93,7.24 34.68,0.2 41.91,-15.73l26.17 -57.63 50.01 22.71c30.2,13.71 51.29,42.7 55.07,75.65l27.51 239.95 -496.66 -225.55 52.35 -115.28c4.76,-10.47 3.46,-22.7 -3.41,-31.96 -6.84,-9.22 -18.17,-14.03 -29.6,-12.49l-295.99 39.39c-10.79,1.44 -20.27,8.69 -24.62,18.26 -4.36,9.59 -3.59,21.51 2.44,30.6l165.11 248.79c6.36,9.61 17.44,14.98 28.88,14.07 11.49,-0.93 21.56,-8 26.31,-18.47l52.36 -115.28 671.5 304.95 -158.8 117.59c-27.69,20.52 -64.38,24.4 -95.76,10.15l-50.37 -22.88c16.44,-71.77 -19.25,-147.79 -88.83,-179.39 -79.45,-36.08 -173.45,-0.79 -209.53,78.66 -36.08,79.45 -0.79,173.46 78.66,209.54 69.58,31.6 150.3,8.44 193.53,-51.17l50.36 22.88c52.32,23.76 113.48,17.28 159.61,-16.94l187.05 -138.5 72.43 32.89c-16.45,71.77 19.24,147.79 88.83,179.39 79.44,36.08 173.45,0.8 209.53,-78.65 36.08,-79.45 0.79,-173.45 -78.66,-209.53 -69.58,-31.6 -150.31,-8.45 -193.53,51.16l-245.97 -111.7 -31.84 -277.7c-6.27,-54.89 -41.46,-103.22 -91.78,-126.07l-50.01 -22.71 26.18 -57.64c7.23,-15.93 0.19,-34.67 -15.73,-41.9l-172.92 -78.53c-15.93,-7.24 -34.67,-0.2 -41.91,15.73zm86.72 804.16c-21.65,47.67 -78.04,68.84 -125.72,47.19 -47.67,-21.65 -68.84,-78.05 -47.19,-125.72 21.65,-47.68 78.04,-68.85 125.72,-47.19 47.67,21.65 68.84,78.04 47.19,125.72zm704.61 -97.17c47.68,21.65 68.85,78.05 47.2,125.72 -21.65,47.68 -78.05,68.85 -125.72,47.2 -47.68,-21.65 -68.85,-78.05 -47.19,-125.72 21.65,-47.68 78.04,-68.85 125.71,-47.2zm-1089.74 -279.52l-105.54 -159.01 189.18 -25.16 -83.64 184.17 0 0zm458.24 -320.13l-52.35 115.28 -115.28 -52.35 52.35 -115.28 115.28 52.35z"/>
    </g>
   </g>
   <g>
   </g>
   <g>
   </g>
   <g>
   </g>
   <g>
   </g>
   <g>
   </g>
   <g>
   </g>
   <g>
   </g>
   <g>
   </g>
   <g>
   </g>
   <g>
   </g>
   <g>
   </g>
   <g>
   </g>
   <g>
   </g>
   <g>
   </g>
   <g>
   </g>
  </g>
  <path class="fil19" d="M10766.44 21855.46c-24.04,89.58 -1564.09,909.56 -1564.09,909.56 -99.74,57.86 -299.62,48.92 -400.33,-9.57 -696.21,-401.95 -2730.57,-1589.06 -2730.57,-1589.06 -100.1,-57.89 -130.58,-207.97 -31.13,-265.67l1604.34 -879.99c0,0 3349.32,995.65 3121.78,1834.73z"/>
  <path class="fil20" d="M10777.77 21784.93l-1575.42 915.56c-99.74,57.62 -299.62,49.14 -400.33,-8.98 -696.21,-402.32 -2747.98,-1599.47 -2747.98,-1599.47 -100.75,-58.57 -101.16,-152.13 -1.53,-209.92l1592.15 -925.5 3133.11 1828.31z"/>
  <path class="fil19" d="M11193.13 19591.18c-1.3,-11.54 -3.26,-23.46 -5.78,-35.45 -1.25,-3.37 -1.66,-6.74 -2.76,-10.33 -3.3,-12 -6.78,-24.47 -11.78,-35.96 -0.21,-2.07 -1.1,-4.44 -1.75,-5.87 -4.2,-10.01 -9.02,-19.95 -14.07,-29.43 -2.89,-4.96 -4.88,-8.98 -8.26,-13.69 -5,-7.96 -9.9,-15.84 -15.66,-22.42 -0.89,-2.2 -3.03,-4.95 -4.11,-6.41 -7.34,-9.93 -15.53,-17.8 -23.58,-25.67 -2.74,-2 -4.04,-3.36 -6.8,-5.44 -8.9,-7.9 -18.13,-14.75 -28.46,-20.67l-2766.83 -1597.12c-10.65,-6.22 -21.44,-10.45 -32.33,-13.77 -3.85,-1.22 -6.8,-2.09 -10.93,-2.92 -4.79,-1.48 -9.89,-2.12 -14.83,-2.8 -4.34,-0.77 -8.79,-0.77 -13.27,-0.77 -3.11,0 -6.87,0 -9.71,0 -7.07,0.77 -13.44,1.45 -19.93,3.17l78.65 -19.43c4.42,-1.31 9.18,-2.41 13.69,-2.55 2.15,0 4.19,0 6.32,0 3.28,-0.42 5.71,-0.42 9.87,-0.42 2.08,0 4.11,0 6.48,0 1.76,0 4.14,0.42 6.7,0.56 4.1,0.77 9.12,1.66 14.24,2.81 2.72,0.32 4.44,0.32 7.18,1.23l4.11 2c10.88,2.98 22.29,7.16 32.56,13.54l2766.64 1597.36c10.31,5.65 19.6,12.93 28.58,21.01 1.85,1.43 3.98,3.05 5.6,4.4 8.21,7.94 16.93,17.03 24.27,26.19 1.57,1.87 2.82,3.51 4.21,5.33 2.69,3.72 6.41,7.41 9.31,11.79 2.61,3.63 4.02,8.58 6.76,12.27 3.03,4.23 5.55,8.47 7.96,12.82 1.1,2.33 2.43,4.29 3.45,6.5 4.1,8.08 8.15,16.73 10.8,25.57l1.79 2.67 0 0.4c4.21,9.18 7.19,18.76 9.54,28.18 1.03,3.07 1.18,6.76 2.13,9.46 0.95,2.96 1.43,6.08 1.97,8.36 1.29,3.86 2.12,7.46 2.51,10.95 2.13,8.58 2.88,16.78 3.82,25.51l0.97 4.07 0 1.59c0.94,12.2 0.94,24.58 0.94,36.96l-0.62 2.53c-0.32,16.03 -2.82,31.03 -5.81,46.75l-500.47 2191.42 -66.51 38.61 488.7 -2211.05c3.2,-15.06 5.04,-31.21 5.89,-47.04 0,-13.36 0,-27.31 -0.85,-40.78l-0.54 -4.02z"/>
  <path class="fil20" d="M8303.29 17782.72c-89.86,-52.27 -184.56,-1.66 -210.39,113.45l-448.24 2060.45 3071.69 1864.44 472.28 -2138.04c25.45,-114.9 -27.69,-250.52 -118.51,-303.18l-2766.83 -1597.12z"/>
  <polygon class="fil21" points="7730.58,19943.69 8154.48,18073.54 10109.86,19189.52 11080.45,19743.46 10653.6,21614.49 "/>
  <path class="fil9" d="M8708.75 20998.14l-87.05 50.76 114.88 66.41 86.66 -50.88 -114.49 -66.29zm-1112.47 -541.34l87.13 -50.26 -114.32 -66.36 -87.28 50.13 114.47 66.49zm1973.2 1138.99l86.92 -50.62 -114.62 -66.41 -86.86 51.21 114.56 65.82zm454.02 161.99l-86.26 50.38 115.01 66.76 86.55 -51.02 -115.3 -66.12zm-174.82 -101.73l-87.54 50.69 115.29 66.61 86.63 -50.27 -114.38 -67.03zm-1798 -1037.52l-87.11 50.65 115.07 66.7 87.44 -50.52 -115.4 -66.83zm175.29 101.11l-86.75 50.73 114.19 66.2 87.82 -50.18 -115.26 -66.75zm-481.84 -278.56l-87.69 50.69 115.43 66.69 86.63 -51.12 -114.37 -66.26zm1621.7 936.36l-86.7 50.63 115.44 66.56 86.84 -50.84 -115.58 -66.35zm-832.87 -480.49l-86.86 50.17 114.96 66.66 86.67 -50.03 -114.77 -66.8zm118.59 642.16l-124.84 72.86 114.78 66.48 125.04 -72.97 -114.98 -66.37zm-1240.3 -974.5l124.53 -72.84 -114.49 -66.22 -125.37 72.36 115.33 66.7zm960.57 812.83l-115.06 -66.05 -124.59 72.46 114.78 66.99 124.87 -73.4zm108.64 -196.01l114.67 66.57 124.9 -72.75 -114.44 -66.46 -125.13 72.64zm-1197.48 -85.95l125.5 -72.26 -114.72 -65.96 -125.08 72.51 114.3 65.71zm1717.5 241.27l-125.5 72.38 114.49 66.31 125.11 -72.24 -114.1 -66.45zm256.5 898.58l124.32 -73.05 -114.88 -66.44 -124.53 72.85 115.09 66.64zm127.07 -531.79l125.43 -72.65 -114.49 -66.04 -125.63 72.24 114.69 66.45zm-1926.38 -708.49l124.96 -73.23 -114.9 -65.83 -125.29 72.59 115.23 66.47zm1578.74 911.09l124.52 -72.74 -114.82 -66.35 -125.17 72.84 115.47 66.25zm-2147.48 -1037.94l124.4 -72.85 -114.16 -65.84 -125.44 72.66 115.2 66.03zm1972.99 1139.04l124.75 -72.3 -114.82 -66.43 -124.98 72.8 115.05 65.93zm-650.77 -1126.2l-125.32 72.78 114.87 66.48 124.64 -73.18 -114.19 -66.08zm-405.27 -88.83l124.63 -72.57 -114.01 -66.26 -125.75 72.49 115.13 66.34zm56.27 291.09l-125.15 73.36 115.32 66.25 125.06 -72.81 -115.23 -66.8zm1568.76 1050.96l124.82 -72.99 -114.91 -66.14 -125 72.78 115.09 66.35zm-2367.93 -1367.46l125.25 -72.42 -114.92 -66.24 -125.15 72.36 114.82 66.3zm2715.5 1164.39l125.46 -73.01 -114.91 -65.6 -124.63 72.41 114.08 66.2zm-1472.45 -647.82l114.43 65.56 125.17 -72.52 -113.93 -66.4 -125.67 73.36zm1298.16 749.08l125.34 -72.56 -114.47 -66.34 -125.37 72.82 114.5 66.08zm-1567.55 -1050.09l-125.25 72.72 114.4 66.72 125.54 -73.51 -114.69 -65.93zm-405.44 -88.89l125.77 -72.78 -114.96 -66.25 -125.19 72.76 114.38 66.27zm1578.78 911.12l125.63 -72.61 -114.72 -66.39 -125.65 72.69 114.74 66.31zm-383.95 -366.57l-125.29 72.84 114.34 65.8 125.4 -72.37 -114.45 -66.27zm-1589.75 -772.59l126.19 -72.66 -115.17 -66.32 -125.27 72.73 114.25 66.25zm2674.64 1341.81l124.73 -72.3 -115.46 -66.43 -124.81 72.8 115.54 65.93zm-917.01 76.25l125.04 -72.76 -115.4 -66.72 -125.54 72.49 115.9 66.99zm-1450.94 -1442.95l124.88 -72.92 -114.81 -66.31 -125.21 72.96 115.14 66.27zm2019.45 1569.38l124.86 -72.76 -114.8 -66.53 -125.39 72.86 115.33 66.43zm-2367.82 -1367.13l125.19 -72.42 -115.13 -66.86 -125.25 73.13 115.19 66.15zm-173.87 101.47l124.88 -72.69 -115.31 -66.37 -124.95 72.88 115.38 66.18zm2367.74 1367.16l125.13 -73.13 -115.5 -66.36 -124.82 72.39 115.19 67.1zm-256.78 -899.05l-125.63 73.01 115.56 66.65 125.03 -73.27 -114.96 -66.39zm-348.46 202.92l-125.26 72.37 115.24 66.41 125.08 -72.62 -115.06 -66.16zm-1367.79 -443.03l124.78 -72.78 -115.55 -66.64 -124.65 72.49 115.42 66.93zm577.97 -12.78l-124.87 72.53 115.19 66.47 125.06 -72.28 -115.38 -66.72zm-404.18 -88.6l125.12 -72.74 -115.32 -66.49 -124.95 72.94 115.15 66.29zm1147.5 113.88l-125.15 72.49 115.42 66.76 124.79 -72.42 -115.06 -66.83zm-799.13 -316.56l124.88 -72.85 -114.9 -65.84 -125.26 72.66 115.28 66.03zm450.94 519.28l-125.02 72.3 115.11 66.72 125.45 -72.75 -115.54 -66.27zm1127.38 392.43l125.17 -72.64 -114.86 -66.86 -125.64 72.94 115.33 66.56zm-348.25 202.69l125.23 -73.33 -115.44 -66.21 -124.96 72.26 115.17 67.28zm-825.38 -1025.85l-125.31 73.02 115.27 66.27 125.21 -72.82 -115.17 -66.47zm1305.04 898.71l125.57 -72.5 -115.53 -66.83 -124.59 72.64 114.55 66.69zm-394.5 -227.5l124.69 -73.02 -114.38 -66.35 -125.29 72.73 114.98 66.64zm-348.25 202.16l125.31 -72.34 -115.21 -66.46 -125.58 72.41 115.48 66.39zm394.38 227.77l125.1 -72.38 -114.98 -66.83 -124.74 73.16 114.62 66.05zm-430.37 -797.21l-125.39 72.48 114.73 66.91 125.63 -72.57 -114.97 -66.82zm-1716.59 -240.38l125.38 -73.18 -115.24 -66.08 -125.33 72.62 115.19 66.64zm578.39 -12.93l-125.17 72.68 115.35 66.53 125.13 -72.94 -115.31 -66.27zm618.53 97.96l114.68 66.93 125.42 -72.78 -115.44 -66.64 -124.66 72.49zm-108.39 196.28l-115.69 -66.17 -125.12 72.69 115.46 66.6 125.35 -73.12zm-566.35 -585.55l125.11 -72.52 -115.12 -66.38 -124.77 72.5 114.78 66.4zm404.46 89.14l-124.47 72.21 114.7 66.85 125.02 -72.69 -115.25 -66.37zm441.18 658.17l-124.69 72.78 114.95 66.04 124.98 -72.22 -115.24 -66.6zm-1193.79 -544.75l125.23 -72.32 -115.23 -66.99 -125.21 72.84 115.21 66.47zm1799.23 1240.61l125.02 -72.53 -115.36 -66.68 -124.77 72.82 115.11 66.39zm216.2 -278.5l125.7 -72.57 -114.9 -66.12 -125.87 72.16 115.07 66.53zm-383.74 -366.79l-125.63 72.63 114.74 66.59 125.62 -72.81 -114.73 -66.41zm-1194.84 -544.48l125.59 -72.51 -114.84 -66.68 -125.64 72.9 114.89 66.29zm800.33 316.72l-125.39 72.49 115 66.68 125.05 -72.84 -114.66 -66.33zm-1195.2 -544.2l125.91 -72.8 -114.85 -67.03 -125.34 73.17 114.28 66.66zm2368.09 1366.85l125.61 -72.74 -114.78 -66.65 -126 72.87 115.17 66.52zm-1568.36 -1050.81l-124.71 72.8 114.96 66.64 125.4 -72.57 -115.65 -66.87zm6.47 149.17l114.3 66.28 125.94 -72.76 -114.66 -66.92 -125.58 73.4zm1298.43 749.65l125.7 -72.75 -114.98 -66.64 -125.54 72.98 114.82 66.41zm-778.2 -595.04l-125.52 72.97 115.07 66.72 125.25 -73.42 -114.8 -66.27zm384.13 367.3l125.52 -73.05 -115.23 -66.44 -125.36 73.01 115.07 66.48zm-1578.63 -911.55l125.37 -72.62 -114.98 -66.81 -125.44 73.55 115.05 65.88zm404.94 88.55l-125.47 73.09 115.11 66.28 125.28 -72.86 -114.92 -66.51zm825.75 1025.09l124.85 -73.01 -1298.9 -749.39 -125.27 72.64 1299.32 749.76zm-1195.68 -1685.93l2789.12 1610.5 -930.74 541.76 -2790.04 -1610.74 931.66 -541.52z"/>
  <polygon class="fil5" points="8457.46,21023.22 8332.25,21096.04 8216.98,21029.77 8342.29,20957.26 "/>
  <polygon class="fil5" points="7535.78,20491.77 7411.25,20564.61 7295.92,20497.91 7421.29,20425.55 "/>
  <polygon class="fil5" points="8062.48,20795.35 7937.6,20868.2 7822.32,20802.17 7947.58,20729.51 "/>
  <polygon class="fil5" points="7714.35,20998.14 7589.23,21070.88 7474.08,21004.59 7599.03,20931.65 "/>
  <polygon class="fil5" points="7683.41,20406.54 7596.28,20456.8 7481.81,20390.31 7569.09,20340.18 "/>
  <polygon class="fil5" points="7858.5,20507.34 7771.87,20558.46 7656.44,20491.77 7744.13,20441.08 "/>
  <polygon class="fil5" points="7667.85,20567.62 7542.97,20640.54 7427.83,20574.27 7553.04,20501.31 "/>
  <polygon class="fil5" points="7362.47,20592.77 7236.28,20665.43 7122.03,20599.18 7247.3,20526.45 "/>
  <polygon class="fil5" points="7799.29,20643.54 7674.18,20716.06 7559.4,20649.66 7684.17,20577.16 "/>
  <polygon class="fil5" points="8166.08,20685.36 8078.64,20735.88 7963.57,20669.18 8050.68,20618.53 "/>
  <polygon class="fil5" points="7493.92,20669.18 7368.01,20741.98 7253.73,20675.32 7379.07,20602.15 "/>
  <polygon class="fil5" points="7188.23,20694.38 7062.98,20766.8 6948.16,20700.5 7073.31,20628.14 "/>
  <polygon class="fil5" points="7930.51,20719.64 7805.88,20792.21 7690.75,20725.87 7816.5,20653.38 "/>
  <polygon class="fil5" points="7625.31,20744.93 7499.94,20817.55 7384.89,20751.67 7510.33,20678.12 "/>
  <polygon class="fil5" points="8341.23,20786.39 8253.41,20836.57 8139.22,20770.37 8225.97,20719.64 "/>
  <polygon class="fil5" points="7319.79,20770.37 7194.6,20842.79 7079.41,20776.64 7204.66,20703.51 "/>
  <polygon class="fil5" points="7013.33,20795.35 6888.93,20868.2 6773.73,20802.17 6899.17,20729.51 "/>
  <polygon class="fil5" points="7756.97,20820.69 7631.2,20893.47 7516.82,20827.2 7642.01,20754.44 "/>
  <polygon class="fil5" points="7451.26,20846.3 7326.03,20918.62 7210.82,20852.15 7336.03,20779.31 "/>
  <polygon class="fil5" points="8193.89,20871.57 8068.87,20944.26 7954.17,20877.41 8078.64,20805.2 "/>
  <polygon class="fil5" points="7888.47,20896.95 7762.88,20969.46 7647.99,20903.17 7773.63,20830.27 "/>
  <polygon class="fil5" points="7582.63,20921.82 7457.67,20995.05 7342.44,20928.58 7467.73,20855.99 "/>
  <polygon class="fil5" points="8647.73,20963.75 8561.06,21013.78 8446.1,20947.12 8532.96,20896.95 "/>
  <polygon class="fil5" points="8325.34,20947.12 8200.7,21020.3 8085.83,20953.82 8211.15,20881.04 "/>
  <polygon class="fil5" points="8019.8,20972.61 7894.52,21045.47 7779.41,20979.19 7904.88,20906.1 "/>
  <polygon class="fil5" points="7408.48,21023.22 7282.98,21095.48 7168.68,21029.77 7293.76,20957.26 "/>
  <polygon class="fil5" points="8823.24,21064.43 8736.58,21115.31 8621.7,21048.9 8708.75,20998.14 "/>
  <polygon class="fil5" points="8151.33,21048.29 8025.79,21121.8 7911.39,21055.08 8036.64,20982.36 "/>
  <polygon class="fil5" points="7845.7,21073.64 7720.57,21146.58 7605.22,21080.05 7730.39,21007.37 "/>
  <polygon class="fil5" points="8589.02,21099.48 8463.6,21172.26 8348.92,21105.33 8473.58,21032.84 "/>
  <polygon class="fil5" points="7540.22,21099.48 7415.44,21172.26 7300.02,21105.33 7424.67,21032.84 "/>
  <polygon class="fil5" points="7977.38,21150.1 7852.32,21222.91 7737,21156.66 7862.15,21083.3 "/>
  <polygon class="fil5" points="8720.03,21175.25 8595.13,21248 8480.46,21181.43 8605.59,21108.79 "/>
  <polygon class="fil5" points="8414.45,21200.71 8288.51,21273.47 8174.21,21207.19 8299.79,21133.79 "/>
  <polygon class="fil5" points="8108.79,21226.2 7983.73,21298.48 7868.54,21232.01 7993.41,21159.48 "/>
  <polygon class="fil5" points="8851.79,21251.59 8727,21324.01 8611.58,21257.25 8736.73,21184.76 "/>
  <polygon class="fil5" points="8545.63,21276.41 8420.46,21348.93 8306.03,21283.37 8431.7,21210.01 "/>
  <polygon class="fil5" points="8240.53,21301.61 8115.18,21374.73 7999.72,21308.13 8124.84,21235.44 "/>
  <polygon class="fil5" points="8983.56,21327.5 8857.93,21400.07 8743.2,21333.16 8868.59,21260.68 "/>
  <polygon class="fil5" points="8677.87,21352.51 8552.82,21425.35 8437.82,21358.67 8563.21,21286.18 "/>
  <polygon class="fil5" points="8371.82,21377.44 8246.95,21450.84 8132.17,21383.85 8256.76,21311.39 "/>
  <polygon class="fil5" points="9114.58,21403.2 8989.47,21475.44 8874.98,21409.13 9000.48,21336.75 "/>
  <polygon class="fil5" points="9481.41,21443.79 9394.57,21494.63 9279.13,21428.07 9365.83,21377.44 "/>
  <polygon class="fil5" points="8809.24,21428.07 8683.99,21501.49 8568.92,21434.77 8694.44,21361.8 "/>
  <polygon class="fil5" points="8504.08,21453.75 8378.63,21526.5 8263.52,21459.78 8388.54,21387.48 "/>
  <polygon class="fil5" points="9246.65,21478.76 9121.62,21552.03 9006.06,21485.38 9131.69,21412.37 "/>
  <polygon class="fil5" points="8940.48,21504.29 8815.08,21576.66 8700.74,21510.86 8826.03,21438.02 "/>
  <polygon class="fil5" points="9656.4,21545.17 9569.48,21595.79 9454.92,21529.97 9541.78,21478.76 "/>
  <polygon class="fil5" points="8635.06,21529.97 8510.08,21602.19 8395.13,21536.15 8519.82,21463.37 "/>
  <polygon class="fil5" points="9377.52,21554.94 9252.83,21627.96 9137.85,21561.32 9263.14,21488.59 "/>
  <polygon class="fil5" points="9072.45,21580.35 8946.83,21653.16 8832.09,21586.57 8957.72,21513.94 "/>
  <polygon class="fil5" points="8766.53,21605.48 8641.49,21678.45 8526.71,21611.97 8651.55,21539.11 "/>
  <polygon class="fil5" points="9509.48,21630.89 9384.05,21703.54 9269.36,21637.09 9394.99,21564.85 "/>
  <polygon class="fil5" points="9204.09,21656.05 9078.57,21729.1 8963.5,21662.62 9088.86,21589.61 "/>
  <polygon class="fil5" points="8898.29,21681.45 8773.21,21754.07 8657.97,21687.66 8783.23,21615.29 "/>
  <polygon class="fil5" points="9963.06,21723.08 9876.43,21773.35 9761.14,21706.74 9848.68,21656.05 "/>
  <polygon class="fil5" points="9641.09,21707.27 9515.92,21779.91 9400.59,21713.35 9526.23,21640.41 "/>
  <polygon class="fil5" points="9335.61,21731.98 9209.98,21804.59 9095.24,21738.28 9220.89,21665.59 "/>
  <polygon class="fil5" points="9772.9,21782.96 9647.33,21855.46 9532.78,21788.77 9657.37,21716.13 "/>
  <polygon class="fil5" points="10138.8,21823.9 10052.25,21874.92 9937.24,21808.16 10023.5,21757.78 "/>
  <polygon class="fil5" points="9467.16,21808.16 9341.46,21880.73 9226.39,21814.2 9352.26,21742.04 "/>
  <polygon class="fil5" points="9160.93,21833.4 9036.41,21906.14 8920.94,21839.89 9046.11,21767.05 "/>
  <polygon class="fil5" points="9903.94,21858.18 9778.48,21931.19 9664.4,21864.99 9789.03,21792.58 "/>
  <polygon class="fil5" points="8855.48,21858.18 8730.63,21931.19 7431.31,21181.43 7556.58,21108.79 "/>
  <polygon class="fil5" points="9598.34,21884.09 9472.64,21956.84 9357.82,21890.43 9483.36,21817.45 "/>
  <polygon class="fil5" points="9292.9,21909.27 9167.67,21982.6 9052.5,21915.32 9177.46,21843.06 "/>
  <polygon class="fil5" points="10035.65,21934.94 9910.92,22007.24 9795.38,21941.31 9920.19,21868.51 "/>
  <polygon class="fil5" points="8986.67,21934.94 8861.92,22007.24 8746.87,21941.31 8871.85,21868.51 "/>
  <polygon class="fil5" points="9729.53,21959.89 9604.19,22032.45 9489.69,21966.37 9615.06,21893.55 "/>
  <polygon class="fil5" points="9424.06,21985.51 9298.96,22057.89 9184.34,21991.84 9309.08,21918.68 "/>
  <polygon class="fil5" points="9118.95,22010.73 8993.91,22083.49 8878.01,22016.5 9003.55,21944.01 "/>
  <polygon class="fil5" points="9861.71,22036.09 9736.1,22108.83 9620.93,22042.31 9746.93,21969.44 "/>
  <polygon class="fil5" points="9555.73,22061.27 9430.91,22134.26 9315.82,22067.91 9440.82,21995.13 "/>
  <polygon class="fil5" points="9250.28,22086.7 9125.26,22159.23 9010.15,22092.84 9134.92,22020.02 "/>
  <polygon class="fil5" points="9687.28,22137.16 9562.42,22209.92 9447.09,22143.49 9572.48,22070.63 "/>
  <polygon class="fil5" points="9381.3,22162.28 9256.98,22235.33 9141.89,22168.69 9266.42,22095.84 "/>
  <polygon class="fil5" points="9513.6,22238.29 9388.47,22311.42 9273.28,22244.32 9398.1,22171.93 "/>
  <polygon class="fil5" points="8283.39,21124.89 8157.99,21197.46 8043.03,21130.82 8167.74,21058.02 "/>
  <polygon class="fil5" points="9029.89,21757.78 8904.58,21830.12 8789.1,21763.73 8914.68,21691.32 "/>
  <polygon class="fil5" points="7277.38,20947.12 7152,21020.3 7036.81,20953.66 7162.14,20881.04 "/>
  <polygon class="fil5" points="7145.61,20871.57 7020.73,20944.26 6905.35,20878.08 7030.3,20805.2 "/>
  <path class="fil5" d="M8095.97 21713.65c39.64,23.27 40.39,60.99 0.11,84.11l-261.95 151.66c-39.97,23.45 -105.09,23.45 -145.54,0.71l-355.77 -205.75c-39.45,-23.19 -39.77,-60.95 0,-84.33l261.55 -152.19c39.3,-22.48 105.05,-22.48 145.37,0l356.23 205.79z"/>
  <path class="fil9" d="M8095.97 21726.24c39.64,23.31 40.39,61.22 0.11,83.78l-261.95 151.84c-39.97,23.65 -105.09,23.65 -145.54,0.75l-355.77 -205.66c-39.45,-22.9 -39.77,-60.94 0,-84.53l261.55 -151.85c39.3,-23.12 105.05,-23.12 145.37,0l356.23 205.67z"/>
  <path class="fil22" d="M6351.32 21084.63l0 0zm0.08 0c130.39,-0.04 191.39,-70.37 209.95,-141.32 -18.56,70.95 -79.55,141.3 -209.95,141.32zm210.43 -143.21l0 0c0.1,-0.38 0.19,-0.79 0.29,-1.19 -0.1,0.4 -0.19,0.81 -0.29,1.19l0 0zm0.5 -2.03c0,-0.03 0.02,-0.09 0.02,-0.13 0,0.04 -0.02,0.1 -0.02,0.13zm-196.8 -110.35c-0.65,-0.72 -1.33,-1.42 -2.02,-2.13 25.2,-2.03 41.21,-4.61 43,-8.26 -1.73,3.7 -16.95,7.1 -40.98,10.39z"/>
 </g>
</svg>
